<?xml version="1.0" encoding="UTF-8"?>
<svg width="1600px" height="1200px" viewBox="0 0 1600 1200" version="1.1" xmlns="http://www.w3.org/2000/svg" xmlns:xlink="http://www.w3.org/1999/xlink">
    <!-- Generator: Sketch 51.3 (57544) - http://www.bohemiancoding.com/sketch -->
    <title>Dribbble bg 4</title>
    <desc>Created with Sketch.</desc>
    <defs>
        <linearGradient x1="0%" y1="53.7000241%" x2="100%" y2="52.3143967%" id="linearGradient-1">
            <stop stop-color="#177CF7" offset="0%"></stop>
            <stop stop-color="#072A3A" offset="100%"></stop>
        </linearGradient>
        <linearGradient x1="2.82489698%" y1="24.2178946%" x2="63.8319871%" y2="24.2178946%" id="linearGradient-2">
            <stop stop-color="#082C3F" offset="0%"></stop>
            <stop stop-color="#177BF6" offset="100%"></stop>
        </linearGradient>
    </defs>
    <g id="Dribbble-bg-4" stroke="none" stroke-width="1" fill="none" fill-rule="evenodd">
        <rect id="Rectangle-3" fill="url(#linearGradient-1)" fill-rule="nonzero" x="-1" y="-12" width="1624" height="1219"></rect>
        <path d="M2247.73578,1544.84191 C2348.91918,1544.84191 2438.06081,1493.99417 2490.68659,1416.75464 C2522.25555,1370.45609 2540.64365,1314.57519 2540.64365,1254.46773 C2540.64365,1194.26349 2522.15791,1138.2858 2490.49131,1091.89046 C2437.86554,1014.74772 2348.82154,964.093555 2247.73578,964.093555 L1232.32183,964.093555 C1070.44141,964.093555 939.413956,1093.95534 939.413956,1254.46773 C939.413956,1414.78655 1070.44141,1544.84191 1232.32183,1544.84191 L2247.73578,1544.84191 Z M2124.45411,1835.21609 L1232.32183,1835.21609 C908.821353,1835.21609 646.538629,1575.16989 646.538629,1254.46773 C646.538629,1186.2298 658.417671,1120.70203 680.288122,1059.85251 L680.939032,1060.04609 C683.412478,1052.65768 684.746832,1044.81758 684.746832,1036.6871 C684.746832,996.615463 651.94115,964.093555 611.519867,964.093555 L90.6645786,964.093555 C63.1963299,964.093555 39.177884,979.128487 26.6479365,1001.22919 L-25.8476633,1091.89046 C-57.5142588,1138.2858 -76,1194.26349 -76,1254.46773 C-76,1314.57519 -57.6444401,1370.45609 -26.0429353,1416.75464 L461.193037,2252.61285 L461.388308,2252.61285 C486.025115,2303.10569 525.697858,2346.95219 578.258549,2377.02205 C630.786695,2407.09191 688.749907,2419.35215 744.955676,2415.22239 L744.955676,2415.28691 L1719.75307,2415.28691 L1719.75307,2415.22239 C1775.8612,2419.35215 1833.85696,2407.09191 1886.3851,2377.02205 C1938.91325,2346.95219 1978.58599,2303.10569 2003.28789,2252.61285 L2003.45061,2252.61285 L2184.04459,1942.39643 C2190.16311,1931.9107 2194.36146,1920.10215 2194.36146,1907.1321 C2194.36146,1868.1897 2163.28068,1837.02287 2124.45411,1835.21609 Z M2124.45411,673.783905 L340.156995,673.783905 C301.39552,671.944868 270.31474,640.745776 270.31474,601.835636 C270.31474,588.897853 274.513087,577.057039 280.599061,566.603569 L461.193037,256.354889 L461.388308,256.354889 C486.025115,205.89431 525.697858,162.047809 578.258549,131.977949 C630.786695,101.90809 688.749907,89.6478464 744.955676,93.7776125 L744.955676,93.6808211 L1719.75307,93.6808211 L1719.75307,93.7776125 C1775.8612,89.6478464 1833.85696,101.90809 1886.3851,131.977949 C1938.91325,162.047809 1978.58599,205.89431 2003.28789,256.354889 L2003.45061,256.354889 L2184.04459,566.603569 C2190.16311,577.057039 2194.36146,588.897853 2194.36146,601.835636 C2194.36146,640.745776 2163.28068,671.944868 2124.45411,673.783905 Z" id="logo-(enzyme)" fill="url(#linearGradient-2)" fill-rule="nonzero"></path>
    </g>
</svg>