<svg width="1600" height="1200" xmlns="http://www.w3.org/2000/svg"><defs><linearGradient x1="0%" y1="53.7%" y2="52.314%" id="a"><stop stop-color="#177CF7" offset="0%"/><stop stop-color="#072A3A" offset="100%"/></linearGradient><linearGradient x1="2.825%" y1="24.218%" x2="63.832%" y2="24.218%" id="b"><stop stop-color="#082C3F" offset="0%"/><stop stop-color="#177BF6" offset="100%"/></linearGradient></defs><g fill="none" fill-rule="nonzero"><path fill="url(#a)" d="M-1-12h1624v1219H-1z"/><path d="M2247.736 1544.842c101.183 0 190.325-50.848 242.95-128.087 31.57-46.299 49.958-102.18 49.958-162.287 0-60.205-18.486-116.182-50.153-162.578-52.625-77.142-141.67-127.796-242.755-127.796H1232.322c-161.88 0-292.908 129.861-292.908 290.374 0 160.319 131.027 290.374 292.908 290.374h1015.414zm-123.282 290.374h-892.132c-323.5 0-585.783-260.046-585.783-580.748 0-68.238 11.879-133.766 33.75-194.615l.65.193a73.39 73.39 0 0 0 3.808-23.359c0-40.072-32.806-72.593-73.227-72.593H90.665c-27.469 0-51.487 15.034-64.017 37.135l-52.496 90.661C-57.514 1138.286-76 1194.263-76 1254.468c0 60.107 18.356 115.988 49.957 162.287l487.236 835.858h.195c24.637 50.493 64.31 94.34 116.87 124.41 52.529 30.069 110.492 42.33 166.698 38.2v.064h974.797v-.065c56.108 4.13 114.104-8.13 166.632-38.2 52.528-30.07 92.201-73.916 116.903-124.41h.163l180.594-310.216c6.118-10.485 10.316-22.294 10.316-35.264 0-38.942-31.08-70.11-69.907-71.916zm0-1161.432H340.157c-38.761-1.84-69.842-33.038-69.842-71.948 0-12.938 4.198-24.779 10.284-35.232l180.594-310.25h.195c24.637-50.46 64.31-94.306 116.87-124.376 52.529-30.07 110.492-42.33 166.698-38.2v-.097h974.797v.097c56.108-4.13 114.104 8.13 166.632 38.2 52.528 30.07 92.201 73.916 116.903 124.377h.163l180.594 310.249c6.118 10.453 10.316 22.294 10.316 35.232 0 38.91-31.08 70.109-69.907 71.948z" fill="url(#b)"/></g></svg>