<?xml version="1.0" encoding="UTF-8"?>
<svg width="1600px" height="1200px" viewBox="0 0 1600 1200" version="1.1" xmlns="http://www.w3.org/2000/svg" xmlns:xlink="http://www.w3.org/1999/xlink">
    <!-- Generator: Sketch 51.3 (57544) - http://www.bohemiancoding.com/sketch -->
    <title>Dribbble bg 5</title>
    <desc>Created with Sketch.</desc>
    <defs>
        <linearGradient x1="0%" y1="53.7000241%" x2="100%" y2="52.3143967%" id="linearGradient-1">
            <stop stop-color="#177CF7" offset="0%"></stop>
            <stop stop-color="#072A3A" offset="100%"></stop>
        </linearGradient>
        <linearGradient x1="6.27475369%" y1="65.277506%" x2="67.2328035%" y2="65.277506%" id="linearGradient-2">
            <stop stop-color="#082C3F" offset="0%"></stop>
            <stop stop-color="#177BF6" offset="100%"></stop>
        </linearGradient>
    </defs>
    <g id="Dribbble-bg-5" stroke="none" stroke-width="1" fill="none" fill-rule="evenodd">
        <rect id="Rectangle-3" fill="url(#linearGradient-1)" fill-rule="nonzero" x="-1" y="-12" width="1624" height="1219"></rect>
        <path d="M2169.73578,540.841914 C2270.91918,540.841914 2360.06081,489.994173 2412.68659,412.754641 C2444.25555,366.456089 2462.64365,310.57519 2462.64365,250.467735 C2462.64365,190.263488 2444.15791,134.285803 2412.49131,87.8904596 C2359.86554,10.7477192 2270.82154,-39.9064452 2169.73578,-39.9064452 L1154.32183,-39.9064452 C992.441411,-39.9064452 861.413956,89.9553447 861.413956,250.467735 C861.413956,410.786547 992.441411,540.841914 1154.32183,540.841914 L2169.73578,540.841914 Z M2046.45411,831.216094 L1154.32183,831.216094 C830.821353,831.216094 568.538629,571.169886 568.538629,250.467735 C568.538629,182.229802 580.417671,116.702029 602.288122,55.8525085 L602.939032,56.0460913 C605.412478,48.6576796 606.746832,40.8175767 606.746832,32.6870997 C606.746832,-7.38453709 573.94115,-39.9064452 533.519867,-39.9064452 L12.6645786,-39.9064452 C-14.8036701,-39.9064452 -38.822116,-24.8715135 -51.3520635,-2.77081004 L-103.847663,87.8904596 C-135.514259,134.285803 -154,190.263488 -154,250.467735 C-154,310.57519 -135.64444,366.456089 -104.042935,412.754641 L383.193037,1248.61285 L383.388308,1248.61285 C408.025115,1299.10569 447.697858,1342.95219 500.258549,1373.02205 C552.786695,1403.09191 610.749907,1415.35215 666.955676,1411.22239 L666.955676,1411.28691 L1641.75307,1411.28691 L1641.75307,1411.22239 C1697.8612,1415.35215 1755.85696,1403.09191 1808.3851,1373.02205 C1860.91325,1342.95219 1900.58599,1299.10569 1925.28789,1248.61285 L1925.45061,1248.61285 L2106.04459,938.396432 C2112.16311,927.910696 2116.36146,916.102146 2116.36146,903.132099 C2116.36146,864.189699 2085.28068,833.022871 2046.45411,831.216094 Z M2046.45411,-330.216095 L262.156995,-330.216095 C223.39552,-332.055132 192.31474,-363.254224 192.31474,-402.164364 C192.31474,-415.102147 196.513087,-426.942961 202.599061,-437.396431 L383.193037,-747.645111 L383.388308,-747.645111 C408.025115,-798.10569 447.697858,-841.952191 500.258549,-872.022051 C552.786695,-902.09191 610.749907,-914.352154 666.955676,-910.222387 L666.955676,-910.319179 L1641.75307,-910.319179 L1641.75307,-910.222387 C1697.8612,-914.352154 1755.85696,-902.09191 1808.3851,-872.022051 C1860.91325,-841.952191 1900.58599,-798.10569 1925.28789,-747.645111 L1925.45061,-747.645111 L2106.04459,-437.396431 C2112.16311,-426.942961 2116.36146,-415.102147 2116.36146,-402.164364 C2116.36146,-363.254224 2085.28068,-332.055132 2046.45411,-330.216095 Z" id="logo-(enzyme)" fill="url(#linearGradient-2)" fill-rule="nonzero"></path>
    </g>
</svg>