<?xml version="1.0" encoding="UTF-8"?>
<svg width="1600px" height="1200px" viewBox="0 0 1600 1200" version="1.1" xmlns="http://www.w3.org/2000/svg" xmlns:xlink="http://www.w3.org/1999/xlink">
    <!-- Generator: Sketch 51.3 (57544) - http://www.bohemiancoding.com/sketch -->
    <title>Dribbble bg 6</title>
    <desc>Created with Sketch.</desc>
    <defs>
        <linearGradient x1="0%" y1="53.7000241%" x2="100%" y2="52.3143967%" id="linearGradient-1">
            <stop stop-color="#177CF7" offset="0%"></stop>
            <stop stop-color="#072A3A" offset="100%"></stop>
        </linearGradient>
        <linearGradient x1="0%" y1="50%" x2="100%" y2="50%" id="linearGradient-2">
            <stop stop-color="#0A3C63" offset="0%"></stop>
            <stop stop-color="#136BD1" offset="100%"></stop>
        </linearGradient>
    </defs>
    <g id="Dribbble-bg-6" stroke="none" stroke-width="1" fill="none" fill-rule="evenodd">
        <rect id="Rectangle-3" fill="url(#linearGradient-1)" fill-rule="nonzero" x="-1" y="-12" width="1624" height="1219"></rect>
        <path d="M1160.91979,703.399872 C1196.83961,703.399872 1228.48465,685.349064 1247.16665,657.929244 C1258.37355,641.493386 1264.90127,621.655821 1264.90127,600.31784 C1264.90127,578.945498 1258.33889,559.073575 1247.09733,542.603356 C1228.41533,515.217896 1196.80495,497.235808 1160.91979,497.235808 L800.450638,497.235808 C742.983536,497.235808 696.469152,543.336384 696.469152,600.31784 C696.469152,657.230576 742.983536,703.399872 800.450638,703.399872 L1160.91979,703.399872 Z M1117.15514,806.481904 L800.450638,806.481904 C685.608862,806.481904 592.499219,714.166218 592.499219,600.31784 C592.499219,576.093562 596.716246,552.831384 604.480196,531.229972 L604.711267,531.298693 C605.589333,528.675827 606.063026,525.892612 606.063026,523.006316 C606.063026,508.780995 594.417099,497.235808 580.067655,497.235808 L395.165465,497.235808 C385.414313,497.235808 376.887831,502.573167 372.439734,510.418856 L353.803941,542.603356 C342.562387,559.073575 336,578.945498 336,600.31784 C336,621.655821 342.516173,641.493386 353.73462,657.929244 L526.702045,954.6566 L526.771366,954.6566 C535.517365,972.581419 549.601079,988.146806 568.259979,998.821525 C586.907326,1009.49624 607.484106,1013.84859 627.436999,1012.38254 L627.436999,1012.40544 L973.487382,1012.40544 L973.487382,1012.38254 C993.405614,1013.84859 1013.99395,1009.49624 1032.64129,998.821525 C1051.28864,988.146806 1065.37236,972.581419 1074.14146,954.6566 L1074.19923,954.6566 L1138.30959,844.530629 C1140.48165,840.808221 1141.97205,836.616219 1141.97205,832.011888 C1141.97205,818.187443 1130.93846,807.123305 1117.15514,806.481904 Z M1117.15514,394.176683 L483.734584,394.176683 C469.974368,393.52383 458.940777,382.448238 458.940777,368.635246 C458.940777,364.042369 460.431178,359.838913 462.591682,356.12796 L526.702045,245.990535 L526.771366,245.990535 C535.517365,228.077168 549.601079,212.511782 568.259979,201.837064 C586.907326,191.162347 607.484106,186.809995 627.436999,188.27605 L627.436999,188.24169 L973.487382,188.24169 L973.487382,188.27605 C993.405614,186.809995 1013.99395,191.162347 1032.64129,201.837064 C1051.28864,212.511782 1065.37236,228.077168 1074.14146,245.990535 L1074.19923,245.990535 L1138.30959,356.12796 C1140.48165,359.838913 1141.97205,364.042369 1141.97205,368.635246 C1141.97205,382.448238 1130.93846,393.52383 1117.15514,394.176683 Z" id="logo-(enzyme)" fill="url(#linearGradient-2)" fill-rule="nonzero"></path>
    </g>
</svg>