<svg width="1600" height="1200" xmlns="http://www.w3.org/2000/svg"><defs><linearGradient x1="0%" y1="53.7%" y2="52.314%" id="a"><stop stop-color="#177CF7" offset="0%"/><stop stop-color="#072A3A" offset="100%"/></linearGradient><linearGradient x1="0%" y1="50%" y2="50%" id="b"><stop stop-color="#0A3C63" offset="0%"/><stop stop-color="#136BD1" offset="100%"/></linearGradient></defs><g fill="none" fill-rule="nonzero"><path fill="url(#a)" d="M-1-12h1624v1219H-1z"/><path d="M1160.92 703.4c35.92 0 67.565-18.05 86.247-45.47 11.207-16.437 17.734-36.274 17.734-57.612 0-21.373-6.562-41.244-17.804-57.715-18.682-27.385-50.292-45.367-86.177-45.367H800.45c-57.466 0-103.98 46.1-103.98 103.082 0 56.913 46.514 103.082 103.98 103.082h360.47zm-43.765 103.082H800.451c-114.842 0-207.952-92.316-207.952-206.164 0-24.224 4.217-47.487 11.981-69.088l.231.069a26.053 26.053 0 0 0 1.352-8.293c0-14.225-11.646-25.77-25.995-25.77H395.165c-9.75 0-18.277 5.337-22.725 13.183l-18.636 32.184C342.562 559.073 336 578.945 336 600.318c0 21.338 6.516 41.175 17.735 57.611l172.967 296.728h.07c8.745 17.924 22.83 33.49 41.488 44.165 18.647 10.674 39.224 15.027 59.177 13.56v.023h346.05v-.022c19.919 1.466 40.507-2.887 59.154-13.561 18.648-10.675 32.731-26.24 41.5-44.165h.058l64.11-110.126c2.173-3.723 3.663-7.915 3.663-12.52 0-13.824-11.034-24.888-24.817-25.53zm0-412.305h-633.42c-13.76-.653-24.794-11.729-24.794-25.542 0-4.593 1.49-8.796 3.65-12.507l64.111-110.137h.07c8.745-17.914 22.83-33.48 41.488-44.154 18.647-10.675 39.224-15.027 59.177-13.56v-.035h346.05v.034c19.919-1.466 40.507 2.886 59.154 13.561 18.648 10.675 32.731 26.24 41.5 44.154h.058l64.11 110.137c2.173 3.71 3.663 7.914 3.663 12.507 0 13.813-11.034 24.889-24.817 25.542z" fill="url(#b)"/></g></svg>