<svg width="1017" height="763" xmlns="http://www.w3.org/2000/svg"><defs><linearGradient x1="0%" y1="53.7%" y2="52.314%" id="a"><stop stop-color="#FBD249" offset="0%"/><stop stop-color="#F5A623" offset="100%"/></linearGradient><linearGradient x1="52.154%" y1="82.521%" x2="93.93%" y2="62.66%" id="b"><stop stop-color="#F6AD29" offset="0%"/><stop stop-color="#FACB43" offset="100%"/></linearGradient></defs><g fill="none" fill-rule="evenodd"><path fill="url(#a)" fill-rule="nonzero" d="M1258 1514h1017.001v763H1258z" transform="translate(-1258 -1514)"/><g fill="url(#b)" transform="translate(-1258 -1514)"><path d="M1207.533 144.834c-159.618 0-279.063 161.276-394.615 317.302-50.773 68.528-103.25 139.4-158.888 195.434-55.639 56.034-126.012 108.847-194.058 159.98C305.08 933.889 144.906 1054.25 144.906 1215s160.174 281.112 315.066 397.45c68.046 51.133 138.42 103.981 194.058 159.98 55.639 56.033 108.15 126.906 158.923 195.504 115.552 155.956 234.997 317.232 394.58 317.232 159.618 0 279.062-161.276 394.615-317.232 50.773-68.598 103.25-139.47 158.923-195.504 55.638-55.999 126.012-108.847 194.058-159.98 154.926-116.408 315.066-236.7 315.066-397.45s-160.14-281.042-315.066-397.45c-68.046-51.133-138.42-103.946-194.058-159.98-55.64-56.033-108.115-126.906-158.854-195.434-115.587-156.026-235.066-317.302-394.684-317.302M1199.483 2430c-229.165 0-375.933-199.299-505.438-375.072-49.882-67.768-96.99-131.708-145.347-180.655-48.356-49.017-111.48-96.7-178.347-147.226C196.788 1595.865 0 1447.198 0 1215c0-232.2 196.788-380.866 370.351-512.046 66.868-50.527 129.991-98.175 178.347-147.227 48.357-48.947 95.43-112.887 145.278-180.584C823.516 199.299 970.283 0 1199.483 0c229.234 0 376.001 199.299 505.507 375.143 49.881 67.697 96.955 131.637 145.312 180.584 48.356 49.052 111.48 96.7 178.347 147.227C2202.245 834.134 2399 982.8 2399 1215c0 232.2-196.754 380.866-370.351 512.046-66.868 50.527-129.991 98.21-178.347 147.227-48.392 48.947-95.465 112.887-145.347 180.655C1575.45 2230.7 1428.682 2430 1199.483 2430"/><path d="M702.367 370.744c-98.937 0-187.369 19.263-249.907 81.765-113.314 113.312-84.384 311.878-56.465 503.954 12.284 84.312 24.987 171.52 24.987 250.563 0 79.043-12.703 166.252-24.987 250.599-27.919 192.04-56.85 390.607 56.465 503.919 113.315 113.382 311.991 84.417 503.932 56.464 84.384-12.249 171.63-24.917 250.64-24.917 79.009 0 166.29 12.668 250.674 24.917 191.905 28.058 390.616 56.918 503.896-56.464 113.315-113.312 84.42-311.878 56.5-503.92-12.284-84.346-24.987-171.625-24.987-250.598 0-78.973 12.703-166.251 24.988-250.563 27.918-192.076 56.814-390.642-56.5-503.954-113.246-113.278-311.817-84.383-503.897-56.534-84.384 12.318-171.63 25.021-250.675 25.021-79.01 0-166.255-12.703-250.64-25.021-86.093-12.494-173.549-25.231-254.024-25.231m-7.097 1801.243c-128.72 0-251.671-27.288-346.813-122.396-162.543-162.58-127.087-406.188-95.802-621.084 12.063-82.802 23.395-160.946 23.395-229.53 0-68.585-11.332-146.694-23.395-229.496-31.285-214.93-66.741-458.539 95.802-621.084 162.51-162.44 406.046-127.018 621.08-95.803 82.731 12.097 160.874 23.465 229.458 23.465s146.762-11.368 229.494-23.465c214.894-31.215 458.605-66.637 621.079 95.803 162.509 162.545 127.052 406.154 95.802 621.154-12.062 82.732-23.394 160.841-23.394 229.426 0 68.584 11.332 146.728 23.394 229.46 31.25 214.966 66.707 458.575-95.802 621.154-162.509 162.476-406.08 127.054-621.079 95.734-82.732-12.028-160.91-23.395-229.494-23.395s-146.727 11.367-229.459 23.395c-89.093 13-183.122 26.662-274.266 26.662"/></g></g></svg>