<?xml version="1.0" encoding="UTF-8"?>
<svg width="1017px" height="763px" viewBox="0 0 1017 763" version="1.1" xmlns="http://www.w3.org/2000/svg" xmlns:xlink="http://www.w3.org/1999/xlink">
    <!-- Generator: Sketch 51.3 (57544) - http://www.bohemiancoding.com/sketch -->
    <title>Dribbble 5</title>
    <desc>Created with Sketch.</desc>
    <defs>
        <linearGradient x1="0%" y1="53.7000241%" x2="100%" y2="52.3143967%" id="linearGradient-1">
            <stop stop-color="#FBD249" offset="0%"></stop>
            <stop stop-color="#F5A623" offset="100%"></stop>
        </linearGradient>
        <linearGradient x1="52.1538922%" y1="82.5212191%" x2="93.9300881%" y2="62.6604295%" id="linearGradient-2">
            <stop stop-color="#F6AD29" offset="0%"></stop>
            <stop stop-color="#FACB43" offset="100%"></stop>
        </linearGradient>
    </defs>
    <g id="Dribbble-5" stroke="none" stroke-width="1" fill="none" fill-rule="evenodd">
        <g id="bg" transform="translate(-1258.000000, -1514.000000)">
            <rect id="Rectangle-3" fill="url(#linearGradient-1)" fill-rule="nonzero" x="1258" y="1514" width="1017.00131" height="763"></rect>
            <g id="logomark" fill="url(#linearGradient-2)">
                <path d="M1207.53296,144.834437 C1047.91477,144.834437 928.470456,306.110001 812.918423,462.135709 C762.145034,530.663824 709.668772,601.536875 654.030034,657.570333 C598.391296,713.603792 528.017502,766.417339 459.972124,817.550933 C305.080272,933.887733 144.90604,1054.24942 144.90604,1215 C144.90604,1375.75058 305.080272,1496.11227 459.972124,1612.44907 C528.017502,1663.58266 598.391296,1716.43121 654.030034,1772.42967 C709.668772,1828.46313 762.179786,1899.33618 812.953176,1967.93429 C928.505209,2123.89 1047.94952,2285.16556 1207.53296,2285.16556 C1367.15115,2285.16556 1486.59546,2123.89 1602.1475,1967.93429 C1652.92088,1899.33618 1705.39715,1828.46313 1761.07064,1772.42967 C1816.70938,1716.43121 1887.08317,1663.58266 1955.12855,1612.44907 C2110.05515,1496.04227 2270.19463,1375.75058 2270.19463,1215 C2270.19463,1054.24942 2110.05515,933.957731 1955.12855,817.550933 C1887.08317,766.417339 1816.70938,713.603792 1761.07064,657.570333 C1705.4319,601.536875 1652.95564,530.663824 1602.217,462.135709 C1486.63022,306.110001 1367.15115,144.834437 1207.53296,144.834437 M1199.48267,2430 C970.318147,2430 823.550248,2230.7011 694.045082,2054.92761 C644.163408,1987.16036 597.054864,1923.22039 548.698412,1874.27347 C500.34196,1825.25634 437.218591,1777.57348 370.351496,1727.0465 C196.78823,1595.86597 0,1447.19938 0,1215 C0,982.800624 196.78823,834.134035 370.351496,702.953501 C437.218591,652.426524 500.34196,604.778776 548.698412,555.726527 C597.054864,506.779614 644.128744,442.839638 693.975754,375.142618 C823.515584,199.298905 970.283483,0 1199.48267,0 C1428.71652,0 1575.48442,199.298905 1704.98958,375.142618 C1754.87126,442.839638 1801.94514,506.779614 1850.30159,555.726527 C1898.65804,604.778776 1961.78141,652.426524 2028.6485,702.953501 C2202.24643,834.134035 2399,982.800624 2399,1215 C2399,1447.19938 2202.24643,1595.86597 2028.6485,1727.0465 C1961.78141,1777.57348 1898.65804,1825.25634 1850.30159,1874.27347 C1801.91047,1923.22039 1754.83659,1987.16036 1704.95492,2054.92761 C1575.44975,2230.7011 1428.68185,2430 1199.48267,2430" id="Fill-16"></path>
                <path d="M702.366978,370.743802 C603.430306,370.743802 514.99802,390.007193 452.460272,452.508524 C339.145501,565.820541 368.076189,764.387025 395.994827,956.462583 C408.279028,1040.77482 420.982008,1127.98354 420.982008,1207.02627 C420.982008,1286.06899 408.279028,1373.27771 395.994827,1457.62485 C368.076189,1649.66551 339.145501,1848.23199 452.460272,1961.54401 C565.775043,2074.92582 764.451049,2045.96094 956.391684,2018.00808 C1040.77577,2005.75907 1128.02151,1993.0913 1207.03125,1993.0913 C1286.041,1993.0913 1373.32164,2005.75907 1457.70572,2018.00808 C1649.61146,2046.06563 1848.32236,2074.92582 1961.60224,1961.54401 C2074.91701,1848.23199 2046.02122,1649.66551 2018.10258,1457.62485 C2005.81838,1373.27771 1993.1154,1285.99919 1993.1154,1207.02627 C1993.1154,1128.05334 2005.81838,1040.77482 2018.10258,956.462583 C2046.02122,764.387025 2074.91701,565.820541 1961.60224,452.508524 C1848.35726,339.231405 1649.78595,368.126493 1457.70572,395.974657 C1373.32164,408.293457 1286.0759,420.996128 1207.03125,420.996128 C1128.02151,420.996128 1040.77577,408.293457 956.391684,395.974657 C870.297585,383.48137 782.842452,370.743802 702.366978,370.743802 M695.270198,2171.98672 C566.54934,2171.98672 443.598847,2144.69893 348.457344,2049.5914 C185.913803,1887.01176 221.370264,1643.40301 252.655376,1428.50728 C264.717525,1345.70533 276.049688,1267.56143 276.049688,1198.97694 C276.049688,1130.39246 264.717525,1052.28332 252.655376,969.48137 C221.370264,754.550876 185.913803,510.942125 348.457344,348.397245 C510.966123,185.95665 754.503345,221.378642 969.536353,252.594489 C1052.2681,264.691499 1130.41135,276.058517 1198.99527,276.058517 C1267.57919,276.058517 1345.75721,264.691499 1428.48896,252.594489 C1643.38292,221.378642 1887.09395,185.95665 2049.56797,348.397245 C2212.07675,510.942125 2176.62028,754.550876 2145.36993,969.550893 C2133.30778,1052.28332 2121.97562,1130.39246 2121.97562,1198.97694 C2121.97562,1267.56143 2133.30778,1345.70533 2145.36993,1428.43775 C2176.62028,1643.40301 2212.07675,1887.01176 2049.56797,2049.5914 C1887.05919,2212.06676 1643.4872,2176.64477 1428.48896,2145.32463 C1345.75721,2133.29715 1267.57919,2121.93013 1198.99527,2121.93013 C1130.41135,2121.93013 1052.2681,2133.29715 969.536353,2145.32463 C880.443304,2158.32544 786.41416,2171.98672 695.270198,2171.98672" id="Fill-17"></path>
            </g>
        </g>
    </g>
</svg>