<svg width="1600" height="1200" xmlns="http://www.w3.org/2000/svg"><defs><linearGradient x1="0%" y1="53.7%" y2="52.314%" id="a"><stop stop-color="#FBD249" offset="0%"/><stop stop-color="#F5A623" offset="100%"/></linearGradient><linearGradient x1="53.879%" y1="4.069%" x2="95.317%" y2="35.501%" id="b"><stop stop-color="#F6AD29" offset="0%"/><stop stop-color="#FACB43" offset="100%"/></linearGradient></defs><g fill="none" fill-rule="evenodd"><path fill="url(#a)" fill-rule="nonzero" d="M2037 158h1624v1219H2037z" transform="translate(-2038 -170)"/><g fill="url(#b)" transform="translate(-2038 -170)"><path d="M1927.321 231.199c-254.763 0-445.406 257.443-629.837 506.507-81.038 109.39-164.795 222.525-253.599 311.971S842.76 1223.43 734.153 1305.054c-247.22 185.708-502.871 377.84-502.871 634.446 0 256.606 255.651 448.738 502.871 634.446 108.606 81.625 220.928 165.987 309.732 255.377 88.804 89.446 172.616 202.58 253.655 312.083 184.43 248.952 375.073 506.395 629.781 506.395 254.764 0 445.407-257.443 629.837-506.395 81.039-109.503 164.795-222.637 253.655-312.083 88.804-89.39 201.126-173.752 309.732-255.377 247.275-185.82 502.871-377.84 502.871-634.446 0-256.606-255.596-448.627-502.871-634.446-108.606-81.625-220.928-165.93-309.732-255.377-88.804-89.446-172.56-202.58-253.544-311.971-184.486-249.064-375.184-506.507-629.948-506.507M1914.472 3879c-365.765 0-600.019-318.14-806.72-598.727-79.615-108.176-154.804-210.243-231.985-288.377-77.18-78.246-177.93-154.362-284.656-235.018C314.091 2547.475 0 2310.159 0 1939.5c0-370.659 314.09-607.975 591.111-817.378 106.726-80.656 207.476-156.716 284.656-235.018 77.181-78.134 152.315-180.2 231.875-288.265C1314.398 318.14 1548.652 0 1914.472 0c365.876 0 600.13 318.14 806.83 598.839 79.616 108.064 154.75 210.131 231.93 288.265 77.181 78.302 177.931 154.362 284.657 235.018C3514.965 1331.525 3829 1568.841 3829 1939.5c0 370.659-314.035 607.975-591.111 817.378-106.726 80.656-207.476 156.772-284.656 235.018-77.237 78.134-152.37 180.2-231.986 288.377C2514.547 3560.86 2280.293 3879 1914.472 3879"/><path d="M1121.035 591.817c-157.91 0-299.056 30.75-398.871 130.52-180.86 180.88-134.684 497.851-90.124 804.46 19.607 134.588 39.882 273.799 39.882 399.975 0 126.175-20.275 265.386-39.882 400.03-44.56 306.553-90.736 623.524 90.124 804.403 180.86 180.991 497.962 134.755 804.315 90.134 134.684-19.553 273.935-39.775 400.042-39.775 126.106 0 265.413 20.222 400.096 39.775 306.298 44.788 623.456 90.857 804.26-90.134 180.86-180.88 134.74-497.85 90.18-804.404-19.607-134.643-39.882-273.965-39.882-400.03 0-126.064 20.275-265.386 39.882-399.973 44.56-306.61 90.68-623.58-90.18-804.46-180.748-180.824-497.684-134.699-804.26-90.245-134.683 19.664-273.935 39.942-400.097 39.942-126.106 0-265.357-20.278-400.04-39.942-137.414-19.943-277-40.276-405.445-40.276m-11.327 2875.317c-205.449 0-401.688-43.559-553.542-195.379-259.432-259.525-202.841-648.397-152.907-991.434 19.252-132.177 37.339-256.917 37.339-366.399 0-109.48-18.087-234.166-37.34-366.342-49.933-343.093-106.524-731.965 152.908-991.435 259.378-259.303 648.083-202.76 991.293-152.93 132.047 19.311 256.77 37.456 366.235 37.456 109.466 0 234.244-18.145 366.291-37.455 342.988-49.83 731.971-106.374 991.293 152.93 259.377 259.469 202.786 648.34 152.908 991.544-19.252 132.066-37.34 256.751-37.34 366.232 0 109.482 18.088 234.222 37.34 366.288 49.878 343.148 106.47 732.02-152.908 991.545-259.377 259.359-648.138 202.815-991.293 152.819-132.047-19.2-256.825-37.345-366.29-37.345-109.466 0-234.19 18.145-366.236 37.345-142.2 20.753-292.278 42.56-437.751 42.56"/></g></g></svg>