<?xml version="1.0" encoding="UTF-8"?>
<svg width="1600px" height="1200px" viewBox="0 0 1600 1200" version="1.1" xmlns="http://www.w3.org/2000/svg" xmlns:xlink="http://www.w3.org/1999/xlink">
    <!-- Generator: Sketch 51.3 (57544) - http://www.bohemiancoding.com/sketch -->
    <title>Dribbble bg 9</title>
    <desc>Created with Sketch.</desc>
    <defs>
        <linearGradient x1="2.36444684%" y1="0%" x2="96.1549237%" y2="100%" id="linearGradient-1">
            <stop stop-color="#EDBC51" offset="0%"></stop>
            <stop stop-color="#F76D1E" offset="100%"></stop>
        </linearGradient>
        <linearGradient x1="53.8788649%" y1="4.06851605%" x2="95.3168499%" y2="35.501409%" id="linearGradient-2">
            <stop stop-color="#F6AD29" offset="0%"></stop>
            <stop stop-color="#FACB43" offset="100%"></stop>
        </linearGradient>
    </defs>
    <g id="Dribbble-bg-9" stroke="none" stroke-width="1" fill="none" fill-rule="evenodd">
        <rect id="Rectangle-3" fill="url(#linearGradient-1)" fill-rule="nonzero" x="-1" y="-12" width="1624" height="1219"></rect>
        <g id="logomark_looper" transform="translate(-3866.000000, -1980.000000)" fill="url(#linearGradient-2)" opacity="0.0936941964">
            <g id="logomark_5" style="mix-blend-mode: screen;" transform="translate(3741.922560, 3749.500000) rotate(288.000000) translate(-3741.922560, -3749.500000) translate(828.453801, 797.986467)">
                <path d="M2932.98004,351.83605 C2545.28298,351.83605 2255.16437,743.611366 1974.49973,1122.63358 C1851.17611,1289.10408 1723.71638,1461.27097 1588.5753,1597.38908 C1453.43422,1733.5072 1282.50312,1861.80341 1117.22752,1986.01863 C741.010288,2268.62739 351.962669,2561.01353 351.962669,2951.51353 C351.962669,3342.01354 741.010288,3634.39967 1117.22752,3917.00843 C1282.50312,4041.22365 1453.43422,4169.60489 1588.5753,4305.63798 C1723.71638,4441.7561 1851.26052,4613.92298 1974.58414,4780.56353 C2255.24879,5159.4157 2545.36739,5551.19102 2932.98004,5551.19102 C3320.67709,5551.19102 3610.7957,5159.4157 3891.46034,4780.56353 C4014.78396,4613.92298 4142.24369,4441.7561 4277.46918,4305.63798 C4412.61026,4169.60489 4583.54136,4041.22365 4748.81696,3917.00843 C5125.1186,3634.22963 5514.08181,3342.01354 5514.08181,2951.51353 C5514.08181,2561.01353 5125.1186,2268.79743 4748.81696,1986.01863 C4583.54136,1861.80341 4412.61026,1733.5072 4277.46918,1597.38908 C4142.3281,1461.27097 4014.86837,1289.10408 3891.62916,1122.63358 C3610.88011,743.611366 3320.67709,351.83605 2932.98004,351.83605 M2913.42666,5903.02707 C2356.80834,5903.02707 2000.3234,5418.88434 1685.76796,4991.89024 C1564.61023,4827.26807 1450.18816,4671.94321 1332.73504,4553.03993 C1215.28192,4433.96607 1061.9614,4318.13347 899.54774,4195.39186 C477.979457,3876.72427 0,3515.57905 0,2951.51353 C0,2387.44802 477.979457,2026.30279 899.54774,1707.6352 C1061.9614,1584.89359 1215.28192,1469.14629 1332.73504,1349.98713 C1450.18816,1231.08386 1564.52603,1075.759 1685.59957,911.307418 C2000.2392,484.142728 2356.72415,0 2913.42666,0 C3470.21337,0 3826.69831,484.142728 4141.25376,911.307418 C4262.41149,1075.759 4376.74936,1231.08386 4494.20248,1349.98713 C4611.65559,1469.14629 4764.97611,1584.89359 4927.38978,1707.6352 C5349.04226,2026.30279 5826.93752,2387.44802 5826.93752,2951.51353 C5826.93752,3515.57905 5349.04226,3876.72427 4927.38978,4195.39186 C4764.97611,4318.13347 4611.65559,4433.96607 4494.20248,4553.03993 C4376.66516,4671.94321 4262.32729,4827.26807 4141.16956,4991.89024 C3826.61412,5418.88434 3470.12917,5903.02707 2913.42666,5903.02707" id="Fill-16"></path>
                <path d="M1705.98103,900.621685 C1465.67348,900.621685 1250.88007,947.41688 1098.98196,1099.24694 C823.751414,1374.5078 894.02124,1856.87131 961.832894,2323.46688 C991.670022,2528.28063 1022.52432,2740.13061 1022.52432,2932.1435 C1022.52432,3124.15639 991.670022,3336.00638 961.832894,3540.9049 C894.02124,4007.41569 823.751414,4489.7792 1098.98196,4765.04007 C1374.21252,5040.47048 1856.7772,4970.10814 2322.98232,4902.20424 C2527.94304,4872.4486 2739.85446,4841.67568 2931.76144,4841.67568 C3123.66842,4841.67568 3335.66461,4872.4486 3540.62533,4902.20424 C4006.74569,4970.36246 4489.39514,5040.47048 4764.54092,4765.04007 C5039.77147,4489.7792 4969.58641,4007.41569 4901.77476,3540.9049 C4871.93763,3336.00638 4841.08333,3123.98685 4841.08333,2932.1435 C4841.08333,2740.30016 4871.93763,2528.28063 4901.77476,2323.46688 C4969.58641,1856.87131 5039.77147,1374.5078 4764.54092,1099.24694 C4489.4799,824.070851 4007.16951,894.263643 3540.62533,961.913217 C3335.66461,991.838405 3123.75319,1022.69611 2931.76144,1022.69611 C2739.85446,1022.69611 2527.94304,991.838405 2322.98232,961.913217 C2113.86813,931.56416 1901.44813,900.621685 1705.98103,900.621685 M1688.74364,5276.25366 C1376.09321,5276.25366 1077.45843,5209.96535 846.368974,4978.92737 C451.566532,4583.98415 537.686825,3992.20265 613.675319,3470.17165 C642.973105,3269.02674 670.497826,3079.19729 670.497826,2912.58985 C670.497826,2745.98242 642.973105,2556.23741 613.675319,2355.0925 C537.686825,1832.97705 451.566532,1241.19555 846.368974,846.336777 C1241.08698,451.731333 1832.61519,537.779471 2354.90944,613.60992 C2555.85679,642.99633 2745.65916,670.609423 2912.24283,670.609423 C3078.82649,670.609423 3268.7133,642.99633 3469.66065,613.60992 C3991.61717,537.779471 4583.56754,451.731333 4978.20111,846.336777 C5372.91913,1241.19555 5286.79883,1832.97705 5210.89477,2355.26138 C5181.59698,2556.23741 5154.07226,2745.98242 5154.07226,2912.58985 C5154.07226,3079.19729 5181.59698,3269.02674 5210.89477,3470.00276 C5286.79883,3992.20265 5372.91913,4583.98415 4978.20111,4978.92737 C4583.4831,5373.61726 3991.87046,5287.56912 3469.66065,5211.48534 C3268.7133,5182.26782 3078.82649,5154.65472 2912.24283,5154.65472 C2745.65916,5154.65472 2555.85679,5182.26782 2354.90944,5211.48534 C2138.5111,5243.06729 1910.12346,5276.25366 1688.74364,5276.25366" id="Fill-17"></path>
            </g>
            <g id="logomark_4" style="mix-blend-mode: screen;" transform="translate(3741.953801, 3749.500000) rotate(216.000000) translate(-3741.953801, -3749.500000) translate(1078.208687, 1050.971064)">
                <path d="M2681.58401,321.678946 C2327.11783,321.678946 2061.86631,679.873823 1805.25842,1026.40871 C1692.5053,1178.61044 1575.97059,1336.0203 1452.41293,1460.47125 C1328.85527,1584.92221 1172.57527,1702.2217 1021.46603,1815.79 C677.495692,2074.17537 321.794712,2341.50006 321.794712,2698.52894 C321.794712,3055.55781 677.495692,3322.88251 1021.46603,3581.26787 C1172.57527,3694.83617 1328.85527,3812.2134 1452.41293,3936.58662 C1575.97059,4061.03757 1692.58248,4218.44743 1805.3356,4370.80463 C2061.94349,4717.18405 2327.19501,5075.37893 2681.58401,5075.37893 C3036.05019,5075.37893 3301.30171,4717.18405 3557.9096,4370.80463 C3670.66272,4218.44743 3787.19743,4061.03757 3910.83227,3936.58662 C4034.38993,3812.2134 4190.66992,3694.83617 4341.77917,3581.26787 C4685.82668,3322.72704 5041.45048,3055.55781 5041.45048,2698.52894 C5041.45048,2341.50006 4685.82668,2074.33083 4341.77917,1815.79 C4190.66992,1702.2217 4034.38993,1584.92221 3910.83227,1460.47125 C3787.2746,1336.0203 3670.73989,1178.61044 3558.06395,1026.40871 C3301.37888,679.873823 3036.05019,321.678946 2681.58401,321.678946 M2663.70662,5397.05787 C2154.79802,5397.05787 1828.86865,4954.41272 1541.27486,4564.01779 C1430.50199,4413.50596 1325.88743,4271.49454 1218.50164,4162.78288 C1111.11584,4053.91526 970.936961,3948.01108 822.444342,3835.79008 C437.010158,3544.43661 0,3214.24641 0,2698.52894 C0,2182.81146 437.010158,1852.62126 822.444342,1561.26779 C970.936961,1449.04679 1111.11584,1343.2206 1218.50164,1234.27499 C1325.88743,1125.56334 1430.42501,983.551916 1541.1209,833.196057 C1828.79167,442.645153 2154.72104,0 2663.70662,0 C3172.76919,0 3498.69855,442.645153 3786.29234,833.196057 C3897.06522,983.551916 4001.60279,1125.56334 4108.98859,1234.27499 C4216.37439,1343.2206 4356.55327,1449.04679 4505.04588,1561.26779 C4890.55705,1852.62126 5327.49023,2182.81146 5327.49023,2698.52894 C5327.49023,3214.24641 4890.55705,3544.43661 4505.04588,3835.79008 C4356.55327,3948.01108 4216.37439,4053.91526 4108.98859,4162.78288 C4001.52581,4271.49454 3896.98824,4413.50596 3786.21537,4564.01779 C3498.62157,4954.41272 3172.69221,5397.05787 2663.70662,5397.05787" id="Fill-16"></path>
                <path d="M1559.7554,823.426236 C1340.04546,823.426236 1143.66274,866.21045 1004.78436,1005.02662 C753.144785,1256.69391 817.391538,1697.71235 879.390817,2124.31437 C906.6705,2311.57281 934.880172,2505.26439 934.880172,2680.81918 C934.880172,2856.37397 906.6705,3050.06555 879.390817,3237.4015 C817.391538,3663.92601 753.144785,4104.94445 1004.78436,4356.61174 C1256.42393,4608.43404 1697.6263,4544.1027 2123.87134,4482.01909 C2311.26416,4454.81391 2505.01191,4426.67864 2680.46987,4426.67864 C2855.92783,4426.67864 3049.75307,4454.81391 3237.14589,4482.01909 C3663.31344,4544.33523 4104.5933,4608.43404 4356.15538,4356.61174 C4607.79495,4104.94445 4543.6257,3663.92601 4481.62642,3237.4015 C4454.34674,3050.06555 4426.13706,2856.21896 4426.13706,2680.81918 C4426.13706,2505.4194 4454.34674,2311.57281 4481.62642,2124.31437 C4543.6257,1697.71235 4607.79495,1256.69391 4356.15538,1005.02662 C4104.6708,753.436842 3663.70093,817.613163 3237.14589,879.464255 C3049.75307,906.82445 2856.00533,935.037229 2680.46987,935.037229 C2505.01191,935.037229 2311.26416,906.82445 2123.87134,879.464255 C1932.68107,851.716522 1738.46832,823.426236 1559.7554,823.426236 M1543.99549,4824.00742 C1258.14342,4824.00742 985.105679,4763.40091 773.823715,4552.16601 C412.861178,4191.07476 491.599798,3650.01693 561.075051,3172.73104 C587.861621,2988.82697 613.027102,2815.26847 613.027102,2662.94154 C613.027102,2510.61461 587.861621,2337.13332 561.075051,2153.22924 C491.599798,1675.86615 412.861178,1134.80832 773.823715,773.794278 C1134.70906,413.011853 1675.53531,491.684503 2153.06188,561.015258 C2336.78532,587.882855 2510.31907,613.129132 2662.62426,613.129132 C2814.92946,613.129132 2988.54039,587.882855 3172.26384,561.015258 C3649.48163,491.684503 4190.69386,413.011853 4551.502,773.794278 C4912.38735,1134.80832 4833.64873,1675.86615 4764.25067,2153.38365 C4737.4641,2337.13332 4712.29862,2510.61461 4712.29862,2662.94154 C4712.29862,2815.26847 4737.4641,2988.82697 4764.25067,3172.57663 C4833.64873,3650.01693 4912.38735,4191.07476 4551.502,4552.16601 C4190.61666,4913.02564 3649.71322,4834.35299 3172.26384,4764.79062 C2988.54039,4738.07743 2814.92946,4712.83115 2662.62426,4712.83115 C2510.31907,4712.83115 2336.78532,4738.07743 2153.06188,4764.79062 C1955.2118,4793.66556 1746.40006,4824.00742 1543.99549,4824.00742" id="Fill-17"></path>
            </g>
            <g id="logomark_3" style="mix-blend-mode: screen;" transform="translate(3742.208687, 3749.500000) rotate(144.000000) translate(-3742.208687, -3749.500000) translate(1328.000000, 1303.765997)">
                <path d="M2430.37646,291.544451 C2109.11625,291.544451 1868.71316,616.184064 1636.14399,930.255982 C1533.95345,1068.19964 1428.33557,1210.86353 1316.35264,1323.65607 C1204.36971,1436.44861 1062.72984,1542.75963 925.776322,1645.68898 C614.028714,1879.86912 291.649372,2122.15116 291.649372,2445.734 C291.649372,2769.31685 614.028714,3011.59888 925.776322,3245.77902 C1062.72984,3348.70838 1204.36971,3455.08985 1316.35264,3567.81194 C1428.33557,3680.60448 1534.02339,3823.26837 1636.21394,3961.35293 C1868.78311,4275.28394 2109.18619,4599.92356 2430.37646,4599.92356 C2751.63667,4599.92356 2992.03975,4275.28394 3224.60892,3961.35293 C3326.79947,3823.26837 3432.41735,3680.60448 3544.47022,3567.81194 C3656.45315,3455.08985 3798.09302,3348.70838 3935.04654,3245.77902 C4246.86409,3011.45798 4569.17349,2769.31685 4569.17349,2445.734 C4569.17349,2122.15116 4246.86409,1880.01002 3935.04654,1645.68898 C3798.09302,1542.75963 3656.45315,1436.44861 3544.47022,1323.65607 C3432.48729,1210.86353 3326.86941,1068.19964 3224.74881,930.255982 C2992.1097,616.184064 2751.63667,291.544451 2430.37646,291.544451 M2414.1738,4891.46801 C1952.93914,4891.46801 1657.54244,4490.28932 1396.89009,4136.46611 C1296.49429,4000.05405 1201.6799,3871.34608 1104.35387,3772.81841 C1007.02785,3674.14937 879.980758,3578.16617 745.398749,3476.4579 C396.071574,3212.39807 0,2913.13969 0,2445.734 C0,1978.32832 396.071574,1679.06994 745.398749,1415.01011 C879.980758,1313.30184 1007.02785,1217.38932 1104.35387,1118.6496 C1201.6799,1020.12192 1296.42452,891.41396 1396.75056,755.143256 C1657.47268,401.17869 1952.86937,0 2414.1738,0 C2875.548,0 3170.9447,401.17869 3431.59705,755.143256 C3531.99286,891.41396 3626.73747,1020.12192 3724.0635,1118.6496 C3821.38953,1217.38932 3948.43662,1313.30184 4083.01863,1415.01011 C4432.41557,1679.06994 4828.41737,1978.32832 4828.41737,2445.734 C4828.41737,2913.13969 4432.41557,3212.39807 4083.01863,3476.4579 C3948.43662,3578.16617 3821.38953,3674.14937 3724.0635,3772.81841 C3626.66771,3871.34608 3531.92309,4000.05405 3431.52728,4136.46611 C3170.87493,4490.28932 2875.47823,4891.46801 2414.1738,4891.46801" id="Fill-16"></path>
                <path d="M1413.6394,746.28866 C1214.51162,746.28866 1036.5258,785.064901 910.657373,910.876942 C682.591091,1138.96834 740.819286,1538.67271 797.010547,1925.31116 C821.734702,2095.02746 847.301726,2270.57425 847.301726,2429.68328 C847.301726,2588.79231 821.734702,2764.33909 797.010547,2934.12564 C740.819286,3320.69385 682.591091,3720.39821 910.657373,3948.48961 C1138.72365,4176.7215 1538.59472,4118.41665 1924.90964,4062.14895 C2094.74773,4037.49232 2270.34542,4011.99273 2429.36669,4011.99273 C2588.38796,4011.99273 2764.05589,4037.49232 2933.89397,4062.14895 C3320.13866,4118.62739 3720.07996,4176.7215 3948.076,3948.48961 C4176.14228,3720.39821 4117.98433,3320.69385 4061.79307,2934.12564 C4037.06891,2764.33909 4011.50189,2588.65181 4011.50189,2429.68328 C4011.50189,2270.71474 4037.06891,2095.02746 4061.79307,1925.31116 C4117.98433,1538.67271 4176.14228,1138.96834 3948.076,910.876942 C3720.1502,682.855789 3320.48985,741.020149 2933.89397,797.077106 C2764.05589,821.874231 2588.4582,847.44407 2429.36669,847.44407 C2270.34542,847.44407 2094.74773,821.874231 1924.90964,797.077106 C1751.62984,771.928747 1575.61071,746.28866 1413.6394,746.28866 M1399.35586,4372.10023 C1140.28207,4372.10023 892.822168,4317.17127 701.332844,4125.72459 C374.184841,3798.45994 445.547323,3308.08775 508.514218,2875.51343 C532.791454,2708.83727 555.599463,2551.53752 555.599463,2413.48039 C555.599463,2275.42327 532.791454,2118.19349 508.514218,1951.51733 C445.547323,1518.87303 374.184841,1028.50085 701.332844,701.306164 C1028.41088,374.321401 1518.57318,445.624092 1951.36564,508.460026 C2117.8781,532.810699 2275.15541,555.691935 2413.19284,555.691935 C2551.23026,555.691935 2708.57754,532.810699 2875.08999,508.460026 C3307.6026,445.624092 3798.11472,374.321401 4125.12279,701.306164 C4452.20083,1028.50085 4380.83835,1518.87303 4317.94142,1951.65727 C4293.66418,2118.19349 4270.85617,2275.42327 4270.85617,2413.48039 C4270.85617,2551.53752 4293.66418,2708.83727 4317.94142,2875.37348 C4380.83835,3308.08775 4452.20083,3798.45994 4125.12279,4125.72459 C3798.04475,4452.77933 3307.81249,4381.47664 2875.08999,4318.43078 C2708.57754,4294.22006 2551.23026,4271.33882 2413.19284,4271.33882 C2275.15541,4271.33882 2117.8781,4294.22006 1951.36564,4318.43078 C1772.04992,4344.60076 1582.79941,4372.10023 1399.35586,4372.10023" id="Fill-17"></path>
            </g>
            <g id="logomark_2" style="mix-blend-mode: screen;" transform="translate(3742.500000, 3749.500000) rotate(72.000000) translate(-3742.500000, -3749.500000) translate(1578.000000, 1556.735440)">
                <path d="M2178.99549,261.389153 C1890.96416,261.389153 1675.42668,552.450339 1466.91282,834.036876 C1375.29214,957.712615 1280.59863,1085.62036 1180.19842,1186.74644 C1079.79822,1287.87251 952.808572,1383.18747 830.020561,1475.47054 C550.517922,1685.42874 261.483221,1902.65084 261.483221,2192.76456 C261.483221,2482.87828 550.517922,2700.10038 830.020561,2910.05858 C952.808572,3002.34165 1079.79822,3097.71977 1180.19842,3198.78268 C1280.59863,3299.90876 1375.35485,3427.81651 1466.97553,3551.61857 C1675.48939,3833.07878 1891.02688,4124.13997 2178.99549,4124.13997 C2467.02682,4124.13997 2682.5643,3833.07878 2891.07816,3551.61857 C2982.69884,3427.81651 3077.39235,3299.90876 3177.85527,3198.78268 C3278.25548,3097.71977 3405.24512,3002.34165 3528.03313,2910.05858 C3807.59848,2699.97405 4096.57047,2482.87828 4096.57047,2192.76456 C4096.57047,1902.65084 3807.59848,1685.55507 3528.03313,1475.47054 C3405.24512,1383.18747 3278.25548,1287.87251 3177.85527,1186.74644 C3077.45506,1085.62036 2982.76155,957.712615 2891.20358,834.036876 C2682.62701,552.450339 2467.02682,261.389153 2178.99549,261.389153 M2164.46872,4385.52912 C1750.94092,4385.52912 1486.09797,4025.84552 1252.40565,3708.61928 C1162.39408,3586.31672 1077.38662,3470.9214 990.127314,3382.58473 C902.868005,3294.12132 788.961767,3208.06594 668.29997,3116.87766 C355.104729,2880.13031 0,2611.8251 0,2192.76456 C0,1773.70402 355.104729,1505.39881 668.29997,1268.65146 C788.961767,1177.46318 902.868005,1091.47117 990.127314,1002.94439 C1077.38662,914.607719 1162.33153,799.212399 1252.28055,677.036574 C1486.03542,359.683601 1750.87836,0 2164.46872,0 C2578.12164,0 2842.96458,359.683601 3076.6569,677.036574 C3166.66847,799.212399 3251.61338,914.607719 3338.87269,1002.94439 C3426.132,1091.47117 3540.03823,1177.46318 3660.70003,1268.65146 C3973.95782,1505.39881 4329,1773.70402 4329,2192.76456 C4329,2611.8251 3973.95782,2880.13031 3660.70003,3116.87766 C3540.03823,3208.06594 3426.132,3294.12132 3338.87269,3382.58473 C3251.55083,3470.9214 3166.60592,3586.31672 3076.59435,3708.61928 C2842.90203,4025.84552 2578.05908,4385.52912 2164.46872,4385.52912" id="Fill-16"></path>
                <path d="M1267.42253,669.097835 C1088.89112,669.097835 929.314894,703.863335 816.465409,816.662268 C611.988692,1021.16151 664.194174,1379.52327 714.573408,1726.17058 C736.740271,1878.33262 759.662823,2035.72209 759.662823,2178.37401 C759.662823,2321.02592 736.740271,2478.41539 714.573408,2630.64041 C664.194174,2977.22474 611.988692,3335.58651 816.465409,3540.08575 C1020.94213,3744.71095 1379.45335,3692.43673 1725.81059,3641.98897 C1878.08182,3619.88265 2035.51693,3597.02055 2178.09016,3597.02055 C2320.6634,3597.02055 2478.16148,3619.88265 2630.43271,3641.98897 C2976.72697,3692.62568 3335.30117,3744.71095 3539.71492,3540.08575 C3744.19163,3335.58651 3692.04913,2977.22474 3641.66989,2630.64041 C3619.50303,2478.41539 3596.58048,2320.89996 3596.58048,2178.37401 C3596.58048,2035.84805 3619.50303,1878.33262 3641.66989,1726.17058 C3692.04913,1379.52327 3744.19163,1021.16151 3539.71492,816.662268 C3335.36415,612.226011 2977.04184,664.374261 2630.43271,714.633082 C2478.16148,736.865368 2320.72637,759.790444 2178.09016,759.790444 C2035.51693,759.790444 1878.08182,736.865368 1725.81059,714.633082 C1570.45362,692.085892 1412.64067,669.097835 1267.42253,669.097835 M1254.61638,3919.88108 C1022.33935,3919.88108 800.474952,3870.63358 628.79193,3698.98879 C335.481805,3405.57408 399.463056,2965.92253 455.9171,2578.09064 C477.683271,2428.65428 498.13218,2287.6245 498.13218,2163.84703 C498.13218,2040.06956 477.683271,1899.10252 455.9171,1749.66616 C399.463056,1361.77154 335.481805,922.119987 628.79193,628.76801 C922.039328,335.604241 1361.5027,399.531885 1749.53017,455.868513 C1898.81975,477.700525 2039.82941,498.215088 2163.58922,498.215088 C2287.34903,498.215088 2428.42142,477.700525 2577.711,455.868513 C2965.48756,399.531885 3405.26457,335.604241 3698.44924,628.76801 C3991.69664,922.119987 3927.71539,1361.77154 3871.32407,1749.79164 C3849.5579,1899.10252 3829.10899,2040.06956 3829.10899,2163.84703 C3829.10899,2287.6245 3849.5579,2428.65428 3871.32407,2577.96517 C3927.71539,2965.92253 3991.69664,3405.57408 3698.44924,3698.98879 C3405.20184,3992.2153 2965.67574,3928.28765 2577.711,3871.76282 C2428.42142,3850.05628 2287.34903,3829.54172 2163.58922,3829.54172 C2039.82941,3829.54172 1898.81975,3850.05628 1749.53017,3871.76282 C1588.76159,3895.22596 1419.08583,3919.88108 1254.61638,3919.88108" id="Fill-17"></path>
            </g>
            <g id="logomark_1" style="mix-blend-mode: screen;" transform="translate(1828.000000, 1810.000000)">
                <path d="M1927.32126,231.198675 C1672.55758,231.198675 1481.9147,488.642261 1297.48422,737.705521 C1216.44574,847.096697 1132.68934,960.231085 1043.88537,1049.67709 C955.081398,1139.12309 842.759072,1223.42916 734.15309,1305.05353 C486.933039,1490.76153 231.281879,1682.89445 231.281879,1939.5 C231.281879,2196.10555 486.933039,2388.23847 734.15309,2573.94647 C842.759072,2655.57084 955.081398,2739.93278 1043.88537,2829.32291 C1132.68934,2918.76892 1216.50121,3031.9033 1297.53969,3141.40622 C1481.97017,3390.35774 1672.61305,3647.80132 1927.32126,3647.80132 C2182.08493,3647.80132 2372.72781,3390.35774 2557.1583,3141.40622 C2638.19678,3031.9033 2721.95318,2918.76892 2810.81262,2829.32291 C2899.61659,2739.93278 3011.93891,2655.57084 3120.5449,2573.94647 C3367.82042,2388.12673 3623.41611,2196.10555 3623.41611,1939.5 C3623.41611,1682.89445 3367.82042,1490.87327 3120.5449,1305.05353 C3011.93891,1223.42916 2899.61659,1139.12309 2810.81262,1049.67709 C2722.00865,960.231085 2638.25224,847.096697 2557.26923,737.705521 C2372.78328,488.642261 2182.08493,231.198675 1927.32126,231.198675 M1914.47234,3879 C1548.70704,3879 1314.45348,3560.8599 1107.75266,3280.27333 C1028.13743,3172.09673 952.948343,3070.02958 875.767495,2991.8958 C798.586646,2913.64993 697.836592,2837.53396 591.111246,2756.87793 C314.090092,2547.47493 0,2310.159 0,1939.5 C0,1568.841 314.090092,1331.52507 591.111246,1122.12207 C697.836592,1041.46604 798.586646,965.406121 875.767495,887.104196 C952.948343,808.970422 1028.0821,706.903274 1107.642,598.838771 C1314.39815,318.140103 1548.65171,0 1914.47234,0 C2280.34829,0 2514.60185,318.140103 2721.30267,598.838771 C2800.9179,706.903274 2876.05166,808.970422 2953.23251,887.104196 C3030.41335,965.406121 3131.16341,1041.46604 3237.88875,1122.12207 C3514.96523,1331.52507 3829,1568.841 3829,1939.5 C3829,2310.159 3514.96523,2547.47493 3237.88875,2756.87793 C3131.16341,2837.53396 3030.41335,2913.64993 2953.23251,2991.8958 C2875.99633,3070.02958 2800.86257,3172.09673 2721.24734,3280.27333 C2514.54652,3560.8599 2280.29296,3879 1914.47234,3879" id="Fill-16"></path>
                <path d="M1121.03508,591.816957 C963.124069,591.816957 821.978916,622.567038 722.16356,722.337681 C541.303927,903.217233 587.47967,1220.18818 632.040097,1526.79768 C651.646685,1661.38499 671.921679,1800.59595 671.921679,1926.77156 C671.921679,2052.94716 651.646685,2192.15813 632.040097,2326.80114 C587.47967,2633.35494 541.303927,2950.32588 722.16356,3131.20543 C903.023193,3312.1964 1220.12633,3265.95986 1526.47927,3221.33882 C1661.16316,3201.78578 1800.41449,3181.56426 1926.5205,3181.56426 C2052.62651,3181.56426 2191.93354,3201.78578 2326.61743,3221.33882 C2632.91467,3266.12698 2950.0735,3312.1964 3130.87744,3131.20543 C3311.73707,2950.32588 3265.61703,2633.35494 3221.0566,2326.80114 C3201.45001,2192.15813 3181.17502,2052.83575 3181.17502,1926.77156 C3181.17502,1800.70737 3201.45001,1661.38499 3221.0566,1526.79768 C3265.61703,1220.18818 3311.73707,903.217233 3130.87744,722.337681 C2950.1292,541.513836 2633.19317,587.638957 2326.61743,632.092879 C2191.93354,651.757333 2052.68221,672.03456 1926.5205,672.03456 C1800.41449,672.03456 1661.16316,651.757333 1526.47927,632.092879 C1389.06605,612.149891 1249.48051,591.816957 1121.03508,591.816957 M1109.70804,3467.13436 C904.259035,3467.13436 708.020003,3423.57495 556.16639,3271.75516 C296.733618,3012.22988 353.325027,2623.35814 403.258623,2280.32087 C422.510798,2148.14443 440.597856,2023.40361 440.597856,1913.92245 C440.597856,1804.44129 422.510798,1679.75596 403.258623,1547.57952 C353.325027,1204.48677 296.733618,815.615022 556.16639,556.145232 C815.543679,296.841912 1204.24898,353.385906 1547.45923,403.215647 C1679.50585,422.526059 1804.22888,440.671188 1913.69442,440.671188 C2023.15995,440.671188 2147.93846,422.526059 2279.98508,403.215647 C2622.9734,353.385906 3011.95612,296.841912 3271.27792,556.145232 C3530.65521,815.615022 3474.06381,1204.48677 3424.18569,1547.6905 C3404.93352,1679.75596 3386.84646,1804.44129 3386.84646,1913.92245 C3386.84646,2023.40361 3404.93352,2148.14443 3424.18569,2280.20989 C3474.06381,2623.35814 3530.65521,3012.22988 3271.27792,3271.75516 C3011.90063,3531.11397 2623.13985,3474.56998 2279.98508,3424.57377 C2147.93846,3405.37433 2023.15995,3387.22921 1913.69442,3387.22921 C1804.22888,3387.22921 1679.50585,3405.37433 1547.45923,3424.57377 C1405.25945,3445.32691 1255.18125,3467.13436 1109.70804,3467.13436" id="Fill-17"></path>
            </g>
        </g>
        <g id="logomark_looper-copy" transform="translate(-790.000000, 2940.500000) rotate(180.000000) translate(790.000000, -2940.500000) translate(-4532.000000, -809.000000)" fill="url(#linearGradient-2)" opacity="0.0936941964">
            <g id="logomark_5" style="mix-blend-mode: screen;" transform="translate(3741.922560, 3749.500000) rotate(288.000000) translate(-3741.922560, -3749.500000) translate(828.453801, 797.986467)">
                <path d="M2932.98004,351.83605 C2545.28298,351.83605 2255.16437,743.611366 1974.49973,1122.63358 C1851.17611,1289.10408 1723.71638,1461.27097 1588.5753,1597.38908 C1453.43422,1733.5072 1282.50312,1861.80341 1117.22752,1986.01863 C741.010288,2268.62739 351.962669,2561.01353 351.962669,2951.51353 C351.962669,3342.01354 741.010288,3634.39967 1117.22752,3917.00843 C1282.50312,4041.22365 1453.43422,4169.60489 1588.5753,4305.63798 C1723.71638,4441.7561 1851.26052,4613.92298 1974.58414,4780.56353 C2255.24879,5159.4157 2545.36739,5551.19102 2932.98004,5551.19102 C3320.67709,5551.19102 3610.7957,5159.4157 3891.46034,4780.56353 C4014.78396,4613.92298 4142.24369,4441.7561 4277.46918,4305.63798 C4412.61026,4169.60489 4583.54136,4041.22365 4748.81696,3917.00843 C5125.1186,3634.22963 5514.08181,3342.01354 5514.08181,2951.51353 C5514.08181,2561.01353 5125.1186,2268.79743 4748.81696,1986.01863 C4583.54136,1861.80341 4412.61026,1733.5072 4277.46918,1597.38908 C4142.3281,1461.27097 4014.86837,1289.10408 3891.62916,1122.63358 C3610.88011,743.611366 3320.67709,351.83605 2932.98004,351.83605 M2913.42666,5903.02707 C2356.80834,5903.02707 2000.3234,5418.88434 1685.76796,4991.89024 C1564.61023,4827.26807 1450.18816,4671.94321 1332.73504,4553.03993 C1215.28192,4433.96607 1061.9614,4318.13347 899.54774,4195.39186 C477.979457,3876.72427 0,3515.57905 0,2951.51353 C0,2387.44802 477.979457,2026.30279 899.54774,1707.6352 C1061.9614,1584.89359 1215.28192,1469.14629 1332.73504,1349.98713 C1450.18816,1231.08386 1564.52603,1075.759 1685.59957,911.307418 C2000.2392,484.142728 2356.72415,0 2913.42666,0 C3470.21337,0 3826.69831,484.142728 4141.25376,911.307418 C4262.41149,1075.759 4376.74936,1231.08386 4494.20248,1349.98713 C4611.65559,1469.14629 4764.97611,1584.89359 4927.38978,1707.6352 C5349.04226,2026.30279 5826.93752,2387.44802 5826.93752,2951.51353 C5826.93752,3515.57905 5349.04226,3876.72427 4927.38978,4195.39186 C4764.97611,4318.13347 4611.65559,4433.96607 4494.20248,4553.03993 C4376.66516,4671.94321 4262.32729,4827.26807 4141.16956,4991.89024 C3826.61412,5418.88434 3470.12917,5903.02707 2913.42666,5903.02707" id="Fill-16"></path>
                <path d="M1705.98103,900.621685 C1465.67348,900.621685 1250.88007,947.41688 1098.98196,1099.24694 C823.751414,1374.5078 894.02124,1856.87131 961.832894,2323.46688 C991.670022,2528.28063 1022.52432,2740.13061 1022.52432,2932.1435 C1022.52432,3124.15639 991.670022,3336.00638 961.832894,3540.9049 C894.02124,4007.41569 823.751414,4489.7792 1098.98196,4765.04007 C1374.21252,5040.47048 1856.7772,4970.10814 2322.98232,4902.20424 C2527.94304,4872.4486 2739.85446,4841.67568 2931.76144,4841.67568 C3123.66842,4841.67568 3335.66461,4872.4486 3540.62533,4902.20424 C4006.74569,4970.36246 4489.39514,5040.47048 4764.54092,4765.04007 C5039.77147,4489.7792 4969.58641,4007.41569 4901.77476,3540.9049 C4871.93763,3336.00638 4841.08333,3123.98685 4841.08333,2932.1435 C4841.08333,2740.30016 4871.93763,2528.28063 4901.77476,2323.46688 C4969.58641,1856.87131 5039.77147,1374.5078 4764.54092,1099.24694 C4489.4799,824.070851 4007.16951,894.263643 3540.62533,961.913217 C3335.66461,991.838405 3123.75319,1022.69611 2931.76144,1022.69611 C2739.85446,1022.69611 2527.94304,991.838405 2322.98232,961.913217 C2113.86813,931.56416 1901.44813,900.621685 1705.98103,900.621685 M1688.74364,5276.25366 C1376.09321,5276.25366 1077.45843,5209.96535 846.368974,4978.92737 C451.566532,4583.98415 537.686825,3992.20265 613.675319,3470.17165 C642.973105,3269.02674 670.497826,3079.19729 670.497826,2912.58985 C670.497826,2745.98242 642.973105,2556.23741 613.675319,2355.0925 C537.686825,1832.97705 451.566532,1241.19555 846.368974,846.336777 C1241.08698,451.731333 1832.61519,537.779471 2354.90944,613.60992 C2555.85679,642.99633 2745.65916,670.609423 2912.24283,670.609423 C3078.82649,670.609423 3268.7133,642.99633 3469.66065,613.60992 C3991.61717,537.779471 4583.56754,451.731333 4978.20111,846.336777 C5372.91913,1241.19555 5286.79883,1832.97705 5210.89477,2355.26138 C5181.59698,2556.23741 5154.07226,2745.98242 5154.07226,2912.58985 C5154.07226,3079.19729 5181.59698,3269.02674 5210.89477,3470.00276 C5286.79883,3992.20265 5372.91913,4583.98415 4978.20111,4978.92737 C4583.4831,5373.61726 3991.87046,5287.56912 3469.66065,5211.48534 C3268.7133,5182.26782 3078.82649,5154.65472 2912.24283,5154.65472 C2745.65916,5154.65472 2555.85679,5182.26782 2354.90944,5211.48534 C2138.5111,5243.06729 1910.12346,5276.25366 1688.74364,5276.25366" id="Fill-17"></path>
            </g>
            <g id="logomark_4" style="mix-blend-mode: screen;" transform="translate(3741.953801, 3749.500000) rotate(216.000000) translate(-3741.953801, -3749.500000) translate(1078.208687, 1050.971064)">
                <path d="M2681.58401,321.678946 C2327.11783,321.678946 2061.86631,679.873823 1805.25842,1026.40871 C1692.5053,1178.61044 1575.97059,1336.0203 1452.41293,1460.47125 C1328.85527,1584.92221 1172.57527,1702.2217 1021.46603,1815.79 C677.495692,2074.17537 321.794712,2341.50006 321.794712,2698.52894 C321.794712,3055.55781 677.495692,3322.88251 1021.46603,3581.26787 C1172.57527,3694.83617 1328.85527,3812.2134 1452.41293,3936.58662 C1575.97059,4061.03757 1692.58248,4218.44743 1805.3356,4370.80463 C2061.94349,4717.18405 2327.19501,5075.37893 2681.58401,5075.37893 C3036.05019,5075.37893 3301.30171,4717.18405 3557.9096,4370.80463 C3670.66272,4218.44743 3787.19743,4061.03757 3910.83227,3936.58662 C4034.38993,3812.2134 4190.66992,3694.83617 4341.77917,3581.26787 C4685.82668,3322.72704 5041.45048,3055.55781 5041.45048,2698.52894 C5041.45048,2341.50006 4685.82668,2074.33083 4341.77917,1815.79 C4190.66992,1702.2217 4034.38993,1584.92221 3910.83227,1460.47125 C3787.2746,1336.0203 3670.73989,1178.61044 3558.06395,1026.40871 C3301.37888,679.873823 3036.05019,321.678946 2681.58401,321.678946 M2663.70662,5397.05787 C2154.79802,5397.05787 1828.86865,4954.41272 1541.27486,4564.01779 C1430.50199,4413.50596 1325.88743,4271.49454 1218.50164,4162.78288 C1111.11584,4053.91526 970.936961,3948.01108 822.444342,3835.79008 C437.010158,3544.43661 0,3214.24641 0,2698.52894 C0,2182.81146 437.010158,1852.62126 822.444342,1561.26779 C970.936961,1449.04679 1111.11584,1343.2206 1218.50164,1234.27499 C1325.88743,1125.56334 1430.42501,983.551916 1541.1209,833.196057 C1828.79167,442.645153 2154.72104,0 2663.70662,0 C3172.76919,0 3498.69855,442.645153 3786.29234,833.196057 C3897.06522,983.551916 4001.60279,1125.56334 4108.98859,1234.27499 C4216.37439,1343.2206 4356.55327,1449.04679 4505.04588,1561.26779 C4890.55705,1852.62126 5327.49023,2182.81146 5327.49023,2698.52894 C5327.49023,3214.24641 4890.55705,3544.43661 4505.04588,3835.79008 C4356.55327,3948.01108 4216.37439,4053.91526 4108.98859,4162.78288 C4001.52581,4271.49454 3896.98824,4413.50596 3786.21537,4564.01779 C3498.62157,4954.41272 3172.69221,5397.05787 2663.70662,5397.05787" id="Fill-16"></path>
                <path d="M1559.7554,823.426236 C1340.04546,823.426236 1143.66274,866.21045 1004.78436,1005.02662 C753.144785,1256.69391 817.391538,1697.71235 879.390817,2124.31437 C906.6705,2311.57281 934.880172,2505.26439 934.880172,2680.81918 C934.880172,2856.37397 906.6705,3050.06555 879.390817,3237.4015 C817.391538,3663.92601 753.144785,4104.94445 1004.78436,4356.61174 C1256.42393,4608.43404 1697.6263,4544.1027 2123.87134,4482.01909 C2311.26416,4454.81391 2505.01191,4426.67864 2680.46987,4426.67864 C2855.92783,4426.67864 3049.75307,4454.81391 3237.14589,4482.01909 C3663.31344,4544.33523 4104.5933,4608.43404 4356.15538,4356.61174 C4607.79495,4104.94445 4543.6257,3663.92601 4481.62642,3237.4015 C4454.34674,3050.06555 4426.13706,2856.21896 4426.13706,2680.81918 C4426.13706,2505.4194 4454.34674,2311.57281 4481.62642,2124.31437 C4543.6257,1697.71235 4607.79495,1256.69391 4356.15538,1005.02662 C4104.6708,753.436842 3663.70093,817.613163 3237.14589,879.464255 C3049.75307,906.82445 2856.00533,935.037229 2680.46987,935.037229 C2505.01191,935.037229 2311.26416,906.82445 2123.87134,879.464255 C1932.68107,851.716522 1738.46832,823.426236 1559.7554,823.426236 M1543.99549,4824.00742 C1258.14342,4824.00742 985.105679,4763.40091 773.823715,4552.16601 C412.861178,4191.07476 491.599798,3650.01693 561.075051,3172.73104 C587.861621,2988.82697 613.027102,2815.26847 613.027102,2662.94154 C613.027102,2510.61461 587.861621,2337.13332 561.075051,2153.22924 C491.599798,1675.86615 412.861178,1134.80832 773.823715,773.794278 C1134.70906,413.011853 1675.53531,491.684503 2153.06188,561.015258 C2336.78532,587.882855 2510.31907,613.129132 2662.62426,613.129132 C2814.92946,613.129132 2988.54039,587.882855 3172.26384,561.015258 C3649.48163,491.684503 4190.69386,413.011853 4551.502,773.794278 C4912.38735,1134.80832 4833.64873,1675.86615 4764.25067,2153.38365 C4737.4641,2337.13332 4712.29862,2510.61461 4712.29862,2662.94154 C4712.29862,2815.26847 4737.4641,2988.82697 4764.25067,3172.57663 C4833.64873,3650.01693 4912.38735,4191.07476 4551.502,4552.16601 C4190.61666,4913.02564 3649.71322,4834.35299 3172.26384,4764.79062 C2988.54039,4738.07743 2814.92946,4712.83115 2662.62426,4712.83115 C2510.31907,4712.83115 2336.78532,4738.07743 2153.06188,4764.79062 C1955.2118,4793.66556 1746.40006,4824.00742 1543.99549,4824.00742" id="Fill-17"></path>
            </g>
            <g id="logomark_3" style="mix-blend-mode: screen;" transform="translate(3742.208687, 3749.500000) rotate(144.000000) translate(-3742.208687, -3749.500000) translate(1328.000000, 1303.765997)">
                <path d="M2430.37646,291.544451 C2109.11625,291.544451 1868.71316,616.184064 1636.14399,930.255982 C1533.95345,1068.19964 1428.33557,1210.86353 1316.35264,1323.65607 C1204.36971,1436.44861 1062.72984,1542.75963 925.776322,1645.68898 C614.028714,1879.86912 291.649372,2122.15116 291.649372,2445.734 C291.649372,2769.31685 614.028714,3011.59888 925.776322,3245.77902 C1062.72984,3348.70838 1204.36971,3455.08985 1316.35264,3567.81194 C1428.33557,3680.60448 1534.02339,3823.26837 1636.21394,3961.35293 C1868.78311,4275.28394 2109.18619,4599.92356 2430.37646,4599.92356 C2751.63667,4599.92356 2992.03975,4275.28394 3224.60892,3961.35293 C3326.79947,3823.26837 3432.41735,3680.60448 3544.47022,3567.81194 C3656.45315,3455.08985 3798.09302,3348.70838 3935.04654,3245.77902 C4246.86409,3011.45798 4569.17349,2769.31685 4569.17349,2445.734 C4569.17349,2122.15116 4246.86409,1880.01002 3935.04654,1645.68898 C3798.09302,1542.75963 3656.45315,1436.44861 3544.47022,1323.65607 C3432.48729,1210.86353 3326.86941,1068.19964 3224.74881,930.255982 C2992.1097,616.184064 2751.63667,291.544451 2430.37646,291.544451 M2414.1738,4891.46801 C1952.93914,4891.46801 1657.54244,4490.28932 1396.89009,4136.46611 C1296.49429,4000.05405 1201.6799,3871.34608 1104.35387,3772.81841 C1007.02785,3674.14937 879.980758,3578.16617 745.398749,3476.4579 C396.071574,3212.39807 0,2913.13969 0,2445.734 C0,1978.32832 396.071574,1679.06994 745.398749,1415.01011 C879.980758,1313.30184 1007.02785,1217.38932 1104.35387,1118.6496 C1201.6799,1020.12192 1296.42452,891.41396 1396.75056,755.143256 C1657.47268,401.17869 1952.86937,0 2414.1738,0 C2875.548,0 3170.9447,401.17869 3431.59705,755.143256 C3531.99286,891.41396 3626.73747,1020.12192 3724.0635,1118.6496 C3821.38953,1217.38932 3948.43662,1313.30184 4083.01863,1415.01011 C4432.41557,1679.06994 4828.41737,1978.32832 4828.41737,2445.734 C4828.41737,2913.13969 4432.41557,3212.39807 4083.01863,3476.4579 C3948.43662,3578.16617 3821.38953,3674.14937 3724.0635,3772.81841 C3626.66771,3871.34608 3531.92309,4000.05405 3431.52728,4136.46611 C3170.87493,4490.28932 2875.47823,4891.46801 2414.1738,4891.46801" id="Fill-16"></path>
                <path d="M1413.6394,746.28866 C1214.51162,746.28866 1036.5258,785.064901 910.657373,910.876942 C682.591091,1138.96834 740.819286,1538.67271 797.010547,1925.31116 C821.734702,2095.02746 847.301726,2270.57425 847.301726,2429.68328 C847.301726,2588.79231 821.734702,2764.33909 797.010547,2934.12564 C740.819286,3320.69385 682.591091,3720.39821 910.657373,3948.48961 C1138.72365,4176.7215 1538.59472,4118.41665 1924.90964,4062.14895 C2094.74773,4037.49232 2270.34542,4011.99273 2429.36669,4011.99273 C2588.38796,4011.99273 2764.05589,4037.49232 2933.89397,4062.14895 C3320.13866,4118.62739 3720.07996,4176.7215 3948.076,3948.48961 C4176.14228,3720.39821 4117.98433,3320.69385 4061.79307,2934.12564 C4037.06891,2764.33909 4011.50189,2588.65181 4011.50189,2429.68328 C4011.50189,2270.71474 4037.06891,2095.02746 4061.79307,1925.31116 C4117.98433,1538.67271 4176.14228,1138.96834 3948.076,910.876942 C3720.1502,682.855789 3320.48985,741.020149 2933.89397,797.077106 C2764.05589,821.874231 2588.4582,847.44407 2429.36669,847.44407 C2270.34542,847.44407 2094.74773,821.874231 1924.90964,797.077106 C1751.62984,771.928747 1575.61071,746.28866 1413.6394,746.28866 M1399.35586,4372.10023 C1140.28207,4372.10023 892.822168,4317.17127 701.332844,4125.72459 C374.184841,3798.45994 445.547323,3308.08775 508.514218,2875.51343 C532.791454,2708.83727 555.599463,2551.53752 555.599463,2413.48039 C555.599463,2275.42327 532.791454,2118.19349 508.514218,1951.51733 C445.547323,1518.87303 374.184841,1028.50085 701.332844,701.306164 C1028.41088,374.321401 1518.57318,445.624092 1951.36564,508.460026 C2117.8781,532.810699 2275.15541,555.691935 2413.19284,555.691935 C2551.23026,555.691935 2708.57754,532.810699 2875.08999,508.460026 C3307.6026,445.624092 3798.11472,374.321401 4125.12279,701.306164 C4452.20083,1028.50085 4380.83835,1518.87303 4317.94142,1951.65727 C4293.66418,2118.19349 4270.85617,2275.42327 4270.85617,2413.48039 C4270.85617,2551.53752 4293.66418,2708.83727 4317.94142,2875.37348 C4380.83835,3308.08775 4452.20083,3798.45994 4125.12279,4125.72459 C3798.04475,4452.77933 3307.81249,4381.47664 2875.08999,4318.43078 C2708.57754,4294.22006 2551.23026,4271.33882 2413.19284,4271.33882 C2275.15541,4271.33882 2117.8781,4294.22006 1951.36564,4318.43078 C1772.04992,4344.60076 1582.79941,4372.10023 1399.35586,4372.10023" id="Fill-17"></path>
            </g>
            <g id="logomark_2" style="mix-blend-mode: screen;" transform="translate(3742.500000, 3749.500000) rotate(72.000000) translate(-3742.500000, -3749.500000) translate(1578.000000, 1556.735440)">
                <path d="M2178.99549,261.389153 C1890.96416,261.389153 1675.42668,552.450339 1466.91282,834.036876 C1375.29214,957.712615 1280.59863,1085.62036 1180.19842,1186.74644 C1079.79822,1287.87251 952.808572,1383.18747 830.020561,1475.47054 C550.517922,1685.42874 261.483221,1902.65084 261.483221,2192.76456 C261.483221,2482.87828 550.517922,2700.10038 830.020561,2910.05858 C952.808572,3002.34165 1079.79822,3097.71977 1180.19842,3198.78268 C1280.59863,3299.90876 1375.35485,3427.81651 1466.97553,3551.61857 C1675.48939,3833.07878 1891.02688,4124.13997 2178.99549,4124.13997 C2467.02682,4124.13997 2682.5643,3833.07878 2891.07816,3551.61857 C2982.69884,3427.81651 3077.39235,3299.90876 3177.85527,3198.78268 C3278.25548,3097.71977 3405.24512,3002.34165 3528.03313,2910.05858 C3807.59848,2699.97405 4096.57047,2482.87828 4096.57047,2192.76456 C4096.57047,1902.65084 3807.59848,1685.55507 3528.03313,1475.47054 C3405.24512,1383.18747 3278.25548,1287.87251 3177.85527,1186.74644 C3077.45506,1085.62036 2982.76155,957.712615 2891.20358,834.036876 C2682.62701,552.450339 2467.02682,261.389153 2178.99549,261.389153 M2164.46872,4385.52912 C1750.94092,4385.52912 1486.09797,4025.84552 1252.40565,3708.61928 C1162.39408,3586.31672 1077.38662,3470.9214 990.127314,3382.58473 C902.868005,3294.12132 788.961767,3208.06594 668.29997,3116.87766 C355.104729,2880.13031 0,2611.8251 0,2192.76456 C0,1773.70402 355.104729,1505.39881 668.29997,1268.65146 C788.961767,1177.46318 902.868005,1091.47117 990.127314,1002.94439 C1077.38662,914.607719 1162.33153,799.212399 1252.28055,677.036574 C1486.03542,359.683601 1750.87836,0 2164.46872,0 C2578.12164,0 2842.96458,359.683601 3076.6569,677.036574 C3166.66847,799.212399 3251.61338,914.607719 3338.87269,1002.94439 C3426.132,1091.47117 3540.03823,1177.46318 3660.70003,1268.65146 C3973.95782,1505.39881 4329,1773.70402 4329,2192.76456 C4329,2611.8251 3973.95782,2880.13031 3660.70003,3116.87766 C3540.03823,3208.06594 3426.132,3294.12132 3338.87269,3382.58473 C3251.55083,3470.9214 3166.60592,3586.31672 3076.59435,3708.61928 C2842.90203,4025.84552 2578.05908,4385.52912 2164.46872,4385.52912" id="Fill-16"></path>
                <path d="M1267.42253,669.097835 C1088.89112,669.097835 929.314894,703.863335 816.465409,816.662268 C611.988692,1021.16151 664.194174,1379.52327 714.573408,1726.17058 C736.740271,1878.33262 759.662823,2035.72209 759.662823,2178.37401 C759.662823,2321.02592 736.740271,2478.41539 714.573408,2630.64041 C664.194174,2977.22474 611.988692,3335.58651 816.465409,3540.08575 C1020.94213,3744.71095 1379.45335,3692.43673 1725.81059,3641.98897 C1878.08182,3619.88265 2035.51693,3597.02055 2178.09016,3597.02055 C2320.6634,3597.02055 2478.16148,3619.88265 2630.43271,3641.98897 C2976.72697,3692.62568 3335.30117,3744.71095 3539.71492,3540.08575 C3744.19163,3335.58651 3692.04913,2977.22474 3641.66989,2630.64041 C3619.50303,2478.41539 3596.58048,2320.89996 3596.58048,2178.37401 C3596.58048,2035.84805 3619.50303,1878.33262 3641.66989,1726.17058 C3692.04913,1379.52327 3744.19163,1021.16151 3539.71492,816.662268 C3335.36415,612.226011 2977.04184,664.374261 2630.43271,714.633082 C2478.16148,736.865368 2320.72637,759.790444 2178.09016,759.790444 C2035.51693,759.790444 1878.08182,736.865368 1725.81059,714.633082 C1570.45362,692.085892 1412.64067,669.097835 1267.42253,669.097835 M1254.61638,3919.88108 C1022.33935,3919.88108 800.474952,3870.63358 628.79193,3698.98879 C335.481805,3405.57408 399.463056,2965.92253 455.9171,2578.09064 C477.683271,2428.65428 498.13218,2287.6245 498.13218,2163.84703 C498.13218,2040.06956 477.683271,1899.10252 455.9171,1749.66616 C399.463056,1361.77154 335.481805,922.119987 628.79193,628.76801 C922.039328,335.604241 1361.5027,399.531885 1749.53017,455.868513 C1898.81975,477.700525 2039.82941,498.215088 2163.58922,498.215088 C2287.34903,498.215088 2428.42142,477.700525 2577.711,455.868513 C2965.48756,399.531885 3405.26457,335.604241 3698.44924,628.76801 C3991.69664,922.119987 3927.71539,1361.77154 3871.32407,1749.79164 C3849.5579,1899.10252 3829.10899,2040.06956 3829.10899,2163.84703 C3829.10899,2287.6245 3849.5579,2428.65428 3871.32407,2577.96517 C3927.71539,2965.92253 3991.69664,3405.57408 3698.44924,3698.98879 C3405.20184,3992.2153 2965.67574,3928.28765 2577.711,3871.76282 C2428.42142,3850.05628 2287.34903,3829.54172 2163.58922,3829.54172 C2039.82941,3829.54172 1898.81975,3850.05628 1749.53017,3871.76282 C1588.76159,3895.22596 1419.08583,3919.88108 1254.61638,3919.88108" id="Fill-17"></path>
            </g>
            <g id="logomark_1" style="mix-blend-mode: screen;" transform="translate(1828.000000, 1810.000000)">
                <path d="M1927.32126,231.198675 C1672.55758,231.198675 1481.9147,488.642261 1297.48422,737.705521 C1216.44574,847.096697 1132.68934,960.231085 1043.88537,1049.67709 C955.081398,1139.12309 842.759072,1223.42916 734.15309,1305.05353 C486.933039,1490.76153 231.281879,1682.89445 231.281879,1939.5 C231.281879,2196.10555 486.933039,2388.23847 734.15309,2573.94647 C842.759072,2655.57084 955.081398,2739.93278 1043.88537,2829.32291 C1132.68934,2918.76892 1216.50121,3031.9033 1297.53969,3141.40622 C1481.97017,3390.35774 1672.61305,3647.80132 1927.32126,3647.80132 C2182.08493,3647.80132 2372.72781,3390.35774 2557.1583,3141.40622 C2638.19678,3031.9033 2721.95318,2918.76892 2810.81262,2829.32291 C2899.61659,2739.93278 3011.93891,2655.57084 3120.5449,2573.94647 C3367.82042,2388.12673 3623.41611,2196.10555 3623.41611,1939.5 C3623.41611,1682.89445 3367.82042,1490.87327 3120.5449,1305.05353 C3011.93891,1223.42916 2899.61659,1139.12309 2810.81262,1049.67709 C2722.00865,960.231085 2638.25224,847.096697 2557.26923,737.705521 C2372.78328,488.642261 2182.08493,231.198675 1927.32126,231.198675 M1914.47234,3879 C1548.70704,3879 1314.45348,3560.8599 1107.75266,3280.27333 C1028.13743,3172.09673 952.948343,3070.02958 875.767495,2991.8958 C798.586646,2913.64993 697.836592,2837.53396 591.111246,2756.87793 C314.090092,2547.47493 0,2310.159 0,1939.5 C0,1568.841 314.090092,1331.52507 591.111246,1122.12207 C697.836592,1041.46604 798.586646,965.406121 875.767495,887.104196 C952.948343,808.970422 1028.0821,706.903274 1107.642,598.838771 C1314.39815,318.140103 1548.65171,0 1914.47234,0 C2280.34829,0 2514.60185,318.140103 2721.30267,598.838771 C2800.9179,706.903274 2876.05166,808.970422 2953.23251,887.104196 C3030.41335,965.406121 3131.16341,1041.46604 3237.88875,1122.12207 C3514.96523,1331.52507 3829,1568.841 3829,1939.5 C3829,2310.159 3514.96523,2547.47493 3237.88875,2756.87793 C3131.16341,2837.53396 3030.41335,2913.64993 2953.23251,2991.8958 C2875.99633,3070.02958 2800.86257,3172.09673 2721.24734,3280.27333 C2514.54652,3560.8599 2280.29296,3879 1914.47234,3879" id="Fill-16"></path>
            </g>
        </g>
    </g>
</svg>