<?xml version="1.0" encoding="UTF-8"?>
<svg width="1600px" height="1200px" viewBox="0 0 1600 1200" version="1.1" xmlns="http://www.w3.org/2000/svg" xmlns:xlink="http://www.w3.org/1999/xlink">
    <!-- Generator: Sketch 51.3 (57544) - http://www.bohemiancoding.com/sketch -->
    <title>Dribbble bg 2</title>
    <desc>Created with Sketch.</desc>
    <defs>
        <linearGradient x1="0%" y1="53.7000241%" x2="100%" y2="52.3143967%" id="linearGradient-1">
            <stop stop-color="#FBD249" offset="0%"></stop>
            <stop stop-color="#F5A623" offset="100%"></stop>
        </linearGradient>
        <linearGradient x1="53.8788649%" y1="4.06851605%" x2="95.3168499%" y2="35.501409%" id="linearGradient-2">
            <stop stop-color="#F6AD29" offset="0%"></stop>
            <stop stop-color="#FACB43" offset="100%"></stop>
        </linearGradient>
    </defs>
    <g id="Dribbble-bg-2" stroke="none" stroke-width="1" fill="none" fill-rule="evenodd">
        <g id="bg" transform="translate(-2038.000000, -170.000000)">
            <rect id="Rectangle-3" fill="url(#linearGradient-1)" fill-rule="nonzero" x="2037" y="158" width="1624" height="1219"></rect>
            <g id="logomark" fill="url(#linearGradient-2)">
                <path d="M1927.32126,231.198675 C1672.55758,231.198675 1481.9147,488.642261 1297.48422,737.705521 C1216.44574,847.096697 1132.68934,960.231085 1043.88537,1049.67709 C955.081398,1139.12309 842.759072,1223.42916 734.15309,1305.05353 C486.933039,1490.76153 231.281879,1682.89445 231.281879,1939.5 C231.281879,2196.10555 486.933039,2388.23847 734.15309,2573.94647 C842.759072,2655.57084 955.081398,2739.93278 1043.88537,2829.32291 C1132.68934,2918.76892 1216.50121,3031.9033 1297.53969,3141.40622 C1481.97017,3390.35774 1672.61305,3647.80132 1927.32126,3647.80132 C2182.08493,3647.80132 2372.72781,3390.35774 2557.1583,3141.40622 C2638.19678,3031.9033 2721.95318,2918.76892 2810.81262,2829.32291 C2899.61659,2739.93278 3011.93891,2655.57084 3120.5449,2573.94647 C3367.82042,2388.12673 3623.41611,2196.10555 3623.41611,1939.5 C3623.41611,1682.89445 3367.82042,1490.87327 3120.5449,1305.05353 C3011.93891,1223.42916 2899.61659,1139.12309 2810.81262,1049.67709 C2722.00865,960.231085 2638.25224,847.096697 2557.26923,737.705521 C2372.78328,488.642261 2182.08493,231.198675 1927.32126,231.198675 M1914.47234,3879 C1548.70704,3879 1314.45348,3560.8599 1107.75266,3280.27333 C1028.13743,3172.09673 952.948343,3070.02958 875.767495,2991.8958 C798.586646,2913.64993 697.836592,2837.53396 591.111246,2756.87793 C314.090092,2547.47493 0,2310.159 0,1939.5 C0,1568.841 314.090092,1331.52507 591.111246,1122.12207 C697.836592,1041.46604 798.586646,965.406121 875.767495,887.104196 C952.948343,808.970422 1028.0821,706.903274 1107.642,598.838771 C1314.39815,318.140103 1548.65171,0 1914.47234,0 C2280.34829,0 2514.60185,318.140103 2721.30267,598.838771 C2800.9179,706.903274 2876.05166,808.970422 2953.23251,887.104196 C3030.41335,965.406121 3131.16341,1041.46604 3237.88875,1122.12207 C3514.96523,1331.52507 3829,1568.841 3829,1939.5 C3829,2310.159 3514.96523,2547.47493 3237.88875,2756.87793 C3131.16341,2837.53396 3030.41335,2913.64993 2953.23251,2991.8958 C2875.99633,3070.02958 2800.86257,3172.09673 2721.24734,3280.27333 C2514.54652,3560.8599 2280.29296,3879 1914.47234,3879" id="Fill-16"></path>
                <path d="M1121.03508,591.816957 C963.124069,591.816957 821.978916,622.567038 722.16356,722.337681 C541.303927,903.217233 587.47967,1220.18818 632.040097,1526.79768 C651.646685,1661.38499 671.921679,1800.59595 671.921679,1926.77156 C671.921679,2052.94716 651.646685,2192.15813 632.040097,2326.80114 C587.47967,2633.35494 541.303927,2950.32588 722.16356,3131.20543 C903.023193,3312.1964 1220.12633,3265.95986 1526.47927,3221.33882 C1661.16316,3201.78578 1800.41449,3181.56426 1926.5205,3181.56426 C2052.62651,3181.56426 2191.93354,3201.78578 2326.61743,3221.33882 C2632.91467,3266.12698 2950.0735,3312.1964 3130.87744,3131.20543 C3311.73707,2950.32588 3265.61703,2633.35494 3221.0566,2326.80114 C3201.45001,2192.15813 3181.17502,2052.83575 3181.17502,1926.77156 C3181.17502,1800.70737 3201.45001,1661.38499 3221.0566,1526.79768 C3265.61703,1220.18818 3311.73707,903.217233 3130.87744,722.337681 C2950.1292,541.513836 2633.19317,587.638957 2326.61743,632.092879 C2191.93354,651.757333 2052.68221,672.03456 1926.5205,672.03456 C1800.41449,672.03456 1661.16316,651.757333 1526.47927,632.092879 C1389.06605,612.149891 1249.48051,591.816957 1121.03508,591.816957 M1109.70804,3467.13436 C904.259035,3467.13436 708.020003,3423.57495 556.16639,3271.75516 C296.733618,3012.22988 353.325027,2623.35814 403.258623,2280.32087 C422.510798,2148.14443 440.597856,2023.40361 440.597856,1913.92245 C440.597856,1804.44129 422.510798,1679.75596 403.258623,1547.57952 C353.325027,1204.48677 296.733618,815.615022 556.16639,556.145232 C815.543679,296.841912 1204.24898,353.385906 1547.45923,403.215647 C1679.50585,422.526059 1804.22888,440.671188 1913.69442,440.671188 C2023.15995,440.671188 2147.93846,422.526059 2279.98508,403.215647 C2622.9734,353.385906 3011.95612,296.841912 3271.27792,556.145232 C3530.65521,815.615022 3474.06381,1204.48677 3424.18569,1547.6905 C3404.93352,1679.75596 3386.84646,1804.44129 3386.84646,1913.92245 C3386.84646,2023.40361 3404.93352,2148.14443 3424.18569,2280.20989 C3474.06381,2623.35814 3530.65521,3012.22988 3271.27792,3271.75516 C3011.90063,3531.11397 2623.13985,3474.56998 2279.98508,3424.57377 C2147.93846,3405.37433 2023.15995,3387.22921 1913.69442,3387.22921 C1804.22888,3387.22921 1679.50585,3405.37433 1547.45923,3424.57377 C1405.25945,3445.32691 1255.18125,3467.13436 1109.70804,3467.13436" id="Fill-17"></path>
            </g>
        </g>
    </g>
</svg>