<?xml version="1.0" encoding="UTF-8"?>
<svg width="1017px" height="763px" viewBox="0 0 1017 763" version="1.1" xmlns="http://www.w3.org/2000/svg" xmlns:xlink="http://www.w3.org/1999/xlink">
    <!-- Generator: Sketch 51.3 (57544) - http://www.bohemiancoding.com/sketch -->
    <title>Dribbble 3</title>
    <desc>Created with Sketch.</desc>
    <defs>
        <linearGradient x1="0%" y1="53.7000241%" x2="100%" y2="52.3143967%" id="linearGradient-1">
            <stop stop-color="#FBD249" offset="0%"></stop>
            <stop stop-color="#F5A623" offset="100%"></stop>
        </linearGradient>
    </defs>
    <g id="Dribbble-3" stroke="none" stroke-width="1" fill="none" fill-rule="evenodd">
        <g id="bg">
            <rect id="Rectangle-3" fill="url(#linearGradient-1)" fill-rule="nonzero" x="0" y="0" width="1017.00131" height="763"></rect>
            <g id="logomark" opacity="0.491127232" style="mix-blend-mode: overlay;" transform="translate(181.000000, 50.000000)" fill="#FFFFFF">
                <path d="M329.346242,39.5165563 C285.811487,39.5165563 253.233879,83.5189015 221.717863,126.088879 C207.869774,144.786056 193.557237,164.123024 178.382157,179.411165 C163.207077,194.699306 144.013112,209.108928 125.454208,223.060193 C83.2085287,254.801468 39.5221177,287.640892 39.5221177,331.5 C39.5221177,375.359108 83.2085287,408.198532 125.454208,439.939807 C144.013112,453.891072 163.207077,468.310243 178.382157,483.588835 C193.557237,498.876976 207.879252,518.213944 221.727342,536.93022 C253.243358,579.481099 285.820965,623.483444 329.346242,623.483444 C372.880997,623.483444 405.458605,579.481099 436.97462,536.93022 C450.82271,518.213944 465.135247,498.876976 480.319805,483.588835 C495.494885,468.310243 514.68885,453.891072 533.247755,439.939807 C575.502912,408.179434 619.179845,375.359108 619.179845,331.5 C619.179845,287.640892 575.502912,254.820566 533.247755,223.060193 C514.68885,209.108928 495.494885,194.699306 480.319805,179.411165 C465.144725,164.123024 450.832189,144.786056 436.993577,126.088879 C405.468083,83.5189015 372.880997,39.5165563 329.346242,39.5165563 M327.150581,663 C264.647547,663 224.61762,608.623385 189.295984,560.665434 C175.691103,542.175852 162.842574,524.7305 149.653687,511.375849 C136.4648,498.002037 119.248339,484.992269 101.010803,471.206514 C53.6726251,435.415282 0,394.853163 0,331.5 C0,268.146837 53.6726251,227.584718 101.010803,191.793486 C119.248339,178.007731 136.4648,165.007543 149.653687,151.624151 C162.842574,138.2695 175.681649,120.824148 189.277075,102.353727 C224.608165,54.3766147 264.638092,0 327.150581,0 C389.672524,0 429.702451,54.3766147 465.024087,102.353727 C478.628967,120.824148 491.468042,138.2695 504.656929,151.624151 C517.845816,165.007543 535.062277,178.007731 553.299813,191.793486 C600.647445,227.584718 654.310616,268.146837 654.310616,331.5 C654.310616,394.853163 600.647445,435.415282 553.299813,471.206514 C535.062277,484.992269 517.845816,498.002037 504.656929,511.375849 C491.458587,524.7305 478.619513,542.175852 465.014632,560.665434 C429.692996,608.623385 389.663069,663 327.150581,663" id="Fill-16"></path>
                <path d="M191.660405,101.184645 C164.667809,101.184645 140.541093,106.440219 123.479106,123.49227 C92.5637752,154.406849 100.456848,208.581149 108.073807,260.984549 C111.425269,283.987205 114.890985,307.780101 114.890985,329.34509 C114.890985,350.91008 111.425269,374.702975 108.073807,397.715152 C100.456848,450.109031 92.5637752,504.283331 123.479106,535.19791 C154.394436,566.131531 208.598617,558.229128 260.965206,550.602834 C283.987463,547.260975 307.790459,543.804864 329.346451,543.804864 C350.902444,543.804864 374.71496,547.260975 397.737217,550.602834 C450.094286,558.257691 504.307988,566.131531 535.213797,535.19791 C566.129127,504.283331 558.245575,450.109031 550.628617,397.715152 C547.277155,374.702975 543.811439,350.891038 543.811439,329.34509 C543.811439,307.799143 547.277155,283.987205 550.628617,260.984549 C558.245575,208.581149 566.129127,154.406849 535.213797,123.49227 C504.317509,92.5872123 450.141892,100.470573 397.737217,108.068304 C374.71496,111.429205 350.911965,114.894837 329.346451,114.894837 C307.790459,114.894837 283.987463,111.429205 260.965206,108.068304 C237.476411,104.659798 213.616288,101.184645 191.660405,101.184645 M189.724212,592.612367 C154.605685,592.612367 121.06147,585.167519 95.1042975,559.219617 C50.758029,514.8635 60.4315093,448.400452 68.9669331,389.771092 C72.2578132,367.180484 75.3495333,345.860717 75.3495333,327.149017 C75.3495333,308.437317 72.2578132,287.127034 68.9669331,264.536426 C60.4315093,205.897582 50.758029,139.434535 95.1042975,95.0879011 C139.441082,50.7697191 205.884614,60.4337951 264.551427,68.9503214 C287.122881,72.2507125 308.442473,75.351942 327.154019,75.351942 C345.865564,75.351942 367.19464,72.2507125 389.766094,68.9503214 C448.394971,60.4337951 514.885923,50.7697191 559.213224,95.0879011 C603.550008,139.434535 593.876528,205.897582 585.350588,264.555394 C582.059708,287.127034 578.967988,308.437317 578.967988,327.149017 C578.967988,345.860717 582.059708,367.180484 585.350588,389.752124 C593.876528,448.400452 603.550008,514.8635 559.213224,559.219617 C514.876439,603.547283 448.423423,593.883207 389.766094,585.338229 C367.19464,582.056806 345.865564,578.955576 327.154019,578.955576 C308.442473,578.955576 287.122881,582.056806 264.551427,585.338229 C240.244437,588.885201 214.590747,592.612367 189.724212,592.612367" id="Fill-17"></path>
            </g>
        </g>
    </g>
</svg>