<svg width="1017" height="763" xmlns="http://www.w3.org/2000/svg"><defs><linearGradient x1="0%" y1="53.7%" y2="52.314%" id="a"><stop stop-color="#FBD249" offset="0%"/><stop stop-color="#F5A623" offset="100%"/></linearGradient><linearGradient x1="0%" y1="48.176%" y2="48.176%" id="b"><stop stop-color="#F6AD29" offset="0%"/><stop stop-color="#FACB43" offset="100%"/></linearGradient><linearGradient x1="2.821%" y1="50%" y2="47.031%" id="c"><stop stop-color="#F5AF2B" offset="0%"/><stop stop-color="#FACA42" offset="100%"/></linearGradient></defs><g fill="none" fill-rule="evenodd"><path fill="url(#a)" fill-rule="nonzero" d="M0 0h1017.001v763H0z"/><path d="M329.346 39.517c-43.535 0-76.112 44.002-107.628 86.572-13.848 18.697-28.16 38.034-43.336 53.322-15.175 15.288-34.369 29.698-52.928 43.65C83.21 254.8 39.522 287.64 39.522 331.5c0 43.86 43.687 76.699 85.932 108.44 18.56 13.951 37.753 28.37 52.928 43.649 15.175 15.288 29.497 34.625 43.345 53.341 31.516 42.551 64.094 86.553 107.62 86.553 43.534 0 76.112-44.002 107.628-86.553 13.848-18.716 28.16-38.053 43.345-53.341 15.175-15.279 34.369-29.698 52.928-43.65 42.255-31.76 85.932-64.58 85.932-108.439 0-43.86-43.677-76.68-85.932-108.44-18.56-13.951-37.753-28.36-52.928-43.649-15.175-15.288-29.488-34.625-43.326-53.322-31.526-42.57-64.113-86.572-107.648-86.572M327.151 663c-62.503 0-102.533-54.377-137.855-102.335-13.605-18.49-26.453-35.934-39.642-49.29-13.19-13.373-30.406-26.383-48.643-40.168C53.673 435.415 0 394.853 0 331.5c0-63.353 53.673-103.915 101.01-139.707 18.238-13.785 35.455-26.785 48.644-40.169 13.189-13.355 26.028-30.8 39.623-49.27C224.608 54.377 264.638 0 327.151 0c62.522 0 102.551 54.377 137.873 102.354 13.605 18.47 26.444 35.915 39.633 49.27 13.189 13.384 30.405 26.384 48.643 40.17 47.347 35.79 101.01 76.353 101.01 139.706 0 63.353-53.663 103.915-101.01 139.707-18.238 13.785-35.454 26.795-48.643 40.169-13.198 13.355-26.037 30.8-39.642 49.29C429.693 608.622 389.663 663 327.15 663" fill="url(#b)" transform="translate(181 50)"/><path d="M191.66 101.185c-26.992 0-51.119 5.255-68.18 22.307-30.916 30.915-23.023 85.09-15.406 137.493 3.351 23.002 6.817 46.795 6.817 68.36 0 21.565-3.466 45.358-6.817 68.37-7.617 52.394-15.51 106.568 15.405 137.483 30.915 30.934 85.12 23.031 137.486 15.405 23.022-3.342 46.825-6.798 68.381-6.798 21.556 0 45.369 3.456 68.391 6.798 52.357 7.655 106.571 15.529 137.477-15.405 30.915-30.915 23.032-85.089 15.415-137.483-3.352-23.012-6.818-46.824-6.818-68.37 0-21.546 3.466-45.358 6.818-68.36 7.617-52.404 15.5-106.578-15.415-137.493-30.896-30.905-85.072-23.021-137.477-15.424-23.022 3.361-46.825 6.827-68.39 6.827-21.557 0-45.36-3.466-68.382-6.827-23.489-3.408-47.349-6.883-69.305-6.883m-1.936 491.427c-35.118 0-68.663-7.444-94.62-33.392C50.758 514.864 60.432 448.4 68.967 389.77c3.29-22.59 6.383-43.91 6.383-62.622 0-18.712-3.092-40.022-6.383-62.613-8.535-58.638-18.209-125.101 26.137-169.448 44.337-44.318 110.78-34.654 169.447-26.138 22.572 3.3 43.891 6.402 62.603 6.402 18.712 0 40.04-3.101 62.612-6.402 58.629-8.516 125.12-18.18 169.447 26.138 44.337 44.347 34.664 110.81 26.138 169.467-3.291 22.572-6.383 43.882-6.383 62.594 0 18.712 3.092 40.031 6.383 62.603 8.526 58.648 18.199 125.112-26.138 169.468-44.337 44.327-110.79 34.663-169.447 26.118-22.571-3.281-43.9-6.382-62.612-6.382-18.712 0-40.031 3.1-62.603 6.382-24.307 3.547-49.96 7.274-74.827 7.274" fill="url(#c)" transform="translate(181 50)"/></g></svg>