<svg width="306" height="221" xmlns="http://www.w3.org/2000/svg"><path d="M270.857 3H35.143C17.39 3 3 17.39 3 35.143v150c0 17.752 14.39 32.143 32.143 32.143h235.714c17.752 0 32.143-14.391 32.143-32.143v-150C303 17.39 288.61 3 270.857 3zm-5.893 21.429L153 127.714 41.036 24.43h223.928zm5.893 171.428H35.143c-5.917 0-10.714-4.797-10.714-10.714V38.25l121.285 111.857a10.714 10.714 0 0014.572 0L281.57 38.25v146.893c0 5.917-4.797 10.714-10.714 10.714z" stroke="#F15403" stroke-width="6" fill="none" fill-rule="evenodd"/></svg>