<svg xmlns="http://www.w3.org/2000/svg" width="298" height="390"><path fill="#FFF" fill-rule="nonzero" d="M205.82 18.42c0-6.082 3.516-7.543 7.816-3.242l69.57 69.574c4.301 4.3 2.844 7.816-3.238 7.816h-63.094c-6.082 0-11.059-4.976-11.059-11.059V18.42l.005.001Zm-52.836 142.97h-8.094v53.156h7.93c6.484 0 11.43-2.144 14.816-6.418 3.387-4.29 5.086-10.398 5.086-18.352v-3.719c0-8.094-1.68-14.23-5.028-18.402-3.359-4.183-8.257-6.265-14.71-6.265Zm-55.477 4.016c-1.074-1.223-2.457-2.196-4.156-2.922-1.695-.727-3.711-1.094-6.043-1.094H72.652v24.992h14.656c2.336 0 4.344-.293 6.043-.875 1.695-.582 3.078-1.395 4.156-2.438 1.074-1.043 1.863-2.289 2.379-3.746.516-1.457.766-3.039.766-4.761 0-1.72-.254-3.368-.766-4.95a11.899 11.899 0 0 0-2.379-4.207Zm189.09-59.578h-82.988c-6.082 0-11.059-4.977-11.059-11.06V11.782c0-6.082-4.977-11.06-11.059-11.06H11.421C5.339.722.362 5.699.362 11.782v366.43c0 6.082 4.977 11.059 11.059 11.059h275.18c6.082 0 11.055-4.977 11.055-11.06V116.89c-.008-6.081-4.98-11.058-11.059-11.058v-.004Zm-171.4 79.078a21.628 21.628 0 0 1-5.879 7.93c-2.57 2.19-5.707 3.874-9.406 5.058-3.703 1.18-7.902 1.773-12.605 1.773H72.65v28.051H56.245l-.004-79.62h31.062c4.703 0 8.902.656 12.605 1.972 3.703 1.316 6.836 3.148 9.406 5.492a23.433 23.433 0 0 1 5.88 8.367c1.347 3.227 2.022 6.739 2.022 10.527.004 3.864-.667 7.352-2.019 10.45Zm74.156 4.863c0 5.691-.887 10.859-2.656 15.508-1.77 4.648-4.266 8.64-7.492 11.977-3.227 3.336-7.086 5.918-11.562 7.734-4.485 1.825-9.43 2.735-14.816 2.735H128.49l-.004-79.625h24.5c5.36 0 10.27.925 14.738 2.761s8.293 4.43 11.484 7.766c3.191 3.336 5.68 7.336 7.464 12.008 1.786 4.672 2.684 9.844 2.684 15.527l.004 3.61-.008-.001Zm63.766-28.38h-35.438v20.563h31.5v13.234h-31.5v32.535h-16.406v-79.625h51.844v13.294Z"/></svg>