<svg width="332" height="207" xmlns="http://www.w3.org/2000/svg"><g fill="none" fill-rule="evenodd"><path d="M27.407 134H3V71h24.16C46.734 71 59 82.813 59 102.5c0 19.688-12.265 31.5-31.593 31.5zM20 120h6.74c9.665 0 15.26-3.819 15.26-17 0-13.181-5.595-17-15.769-17H20v34zm47 14V71h46v13.781H84.328V95.61h26.303v13.782H84.328v10.828h28.547V134H67zm89.704-43.324c-.34-4.116-2.965-6.562-8.525-6.562-5.312 0-7.628 2.043-7.66 4.829-.154 3.033 2.533 4.797 8.525 6.067l5.19 1.114c13.96 3.002 19.704 9.78 19.766 19.438-.062 12.505-9.667 19.438-25.697 19.438-16.493 0-27.241-7.119-27.303-23.029h16.308c.278 5.82 4.17 8.915 10.748 8.915 5.498 0 8.34-2.198 8.4-5.324-.06-2.879-2.47-4.643-9.512-6.19l-6.3-1.362c-11.212-2.415-18.069-7.924-18.038-17.829C122.513 78.11 133.138 70 148.18 70c15.32 0 24.894 8.233 24.956 20.676h-16.431zM198 71v63h-17V71h17zm49.726 20.749c-1.06-4.325-4.74-6.797-10.167-6.797-8.732 0-13.721 6.457-13.721 17.424 0 11.122 4.615 17.672 13.597 17.672 7.765 0 11.694-3.522 11.85-9.021h-11.601V98.793H266v8.774c0 17.3-11.975 27.433-28.69 27.433-18.649 0-31.31-12.357-31.31-32.376C206 81.74 219.97 70 237.185 70c15.094 0 26.726 9.052 28.067 21.749h-17.526zM329 71v63h-14.402l-22.968-33.1h-.373V134H274V71h14.65l22.596 32.977h.497V71H329zM33.988 166.813c-.295-3.546-2.573-5.653-7.398-5.653-4.611 0-6.621 1.76-6.648 4.16-.134 2.613 2.198 4.133 7.398 5.227l4.504.96c12.116 2.586 17.102 8.426 17.156 16.746C48.946 199.027 40.61 205 26.697 205 12.382 205 3.054 198.867 3 185.16h14.154c.241 5.013 3.619 7.68 9.329 7.68 4.771 0 7.237-1.893 7.29-4.587-.053-2.48-2.144-4-8.256-5.333l-5.468-1.173c-9.73-2.08-15.682-6.827-15.655-15.36C4.314 155.987 13.535 149 26.59 149c13.296 0 21.606 7.093 21.66 17.813H33.987zM55 205v-55h23.66C90.836 150 99 157.734 99 169.443c0 11.844-8.377 19.229-20.876 19.229h-8.243V205H55zm15-28h5.402c5.374 0 8.598-3.092 8.598-8.057 0-4.993-3.224-7.943-8.598-7.943H70v16zm34 28v-55h23.752c12.226 0 20.42 6.982 20.42 18.691 0 7.627-3.492 12.972-9.35 15.791L150 205h-16.229l-9.673-18.154h-5.159V205H104zm16-30h5.402c5.374 0 8.598-1.948 8.598-6.887 0-4.968-3.224-7.113-8.598-7.113H120v14zm50-25v55h-15v-55h15zm56 0v55h-12.569l-20.045-28.896h-.325V205H178v-55h12.786l19.72 28.79h.433V150H226zm6 12.031V150h48v12.031h-16.611V205H248.61v-42.969H232zm82.988 4.782c-.295-3.546-2.573-5.653-7.398-5.653-4.611 0-6.621 1.76-6.648 4.16-.134 2.613 2.198 4.133 7.398 5.227l4.504.96c12.116 2.586 17.102 8.426 17.156 16.746-.054 10.774-8.39 16.747-22.303 16.747-14.315 0-23.643-6.133-23.697-19.84h14.154c.241 5.013 3.619 7.68 9.329 7.68 4.771 0 7.237-1.893 7.29-4.587-.053-2.48-2.144-4-8.256-5.333l-5.468-1.173c-9.73-2.08-15.682-6.827-15.655-15.36-.08-10.4 9.141-17.387 22.196-17.387 13.296 0 21.606 7.093 21.66 17.813h-14.262z" stroke="#FFF" stroke-width="4"/><path d="M120 49h87" stroke="#FFF" stroke-width="2" stroke-linecap="square"/><text font-family="Georgia-Italic, Georgia" font-size="36" font-style="italic" letter-spacing="-1.207" fill="#FFF"><tspan x="22.057" y="28">The Pros &amp; Cons of</tspan></text></g></svg>