<svg width="693" height="129" xmlns="http://www.w3.org/2000/svg"><g fill="none" fill-rule="evenodd"><path d="M25.262 123.342H2V62.885h23.026c18.656 0 30.346 11.336 30.346 30.229 0 18.892-11.69 30.228-30.11 30.228zm-6.849-13.933h6.258c8.975 0 14.17-3.66 14.17-16.295 0-12.635-5.195-16.296-14.642-16.296h-5.786v32.59zm44.517 13.933V62.885H106.5V76.11H79.343v10.391h24.915v13.225H79.343v10.391h27.04v13.225H62.93zm84.31-41.564c-.326-3.926-2.835-6.258-8.148-6.258-5.078 0-7.292 1.948-7.321 4.605-.148 2.893 2.42 4.575 8.147 5.786l4.96 1.062c13.343 2.864 18.833 9.329 18.892 18.539-.059 11.926-9.24 18.539-24.56 18.539-15.764 0-26.037-6.79-26.096-21.963H128.7c.266 5.55 3.986 8.502 10.273 8.502 5.255 0 7.97-2.096 8.03-5.078-.06-2.745-2.362-4.428-9.092-5.904l-6.022-1.299c-10.716-2.302-17.27-7.557-17.24-17.003-.089-11.513 10.066-19.248 24.443-19.248 14.641 0 23.793 7.853 23.852 19.72h-15.705zm39.202-18.893v60.457h-16.413V62.885h16.413zm47.055 19.956c-1.004-4.133-4.487-6.495-9.624-6.495-8.265 0-12.989 6.17-12.989 16.65 0 10.627 4.37 16.885 12.871 16.885 7.35 0 11.07-3.365 11.218-8.62H223.99v-11.69h26.805v8.384c0 16.531-11.336 26.214-27.159 26.214-17.653 0-29.638-11.808-29.638-30.937 0-19.956 13.225-31.174 29.52-31.174 14.288 0 25.299 8.65 26.568 20.783h-16.59zm77.284-19.956v60.457h-13.698L275.238 91.58h-.354v31.763h-16.413V62.885h13.933l21.491 31.646h.472V62.885h16.414zm56.914 18.893c-.324-3.926-2.833-6.258-8.147-6.258-5.078 0-7.292 1.948-7.321 4.605-.148 2.893 2.42 4.575 8.147 5.786l4.96 1.062c13.343 2.864 18.834 9.329 18.893 18.539-.06 11.926-9.24 18.539-24.561 18.539-15.764 0-26.037-6.79-26.096-21.963h15.587c.266 5.55 3.985 8.502 10.273 8.502 5.254 0 7.97-2.096 8.03-5.078-.06-2.745-2.362-4.428-9.093-5.904l-6.022-1.299c-10.716-2.302-17.27-7.557-17.24-17.003-.088-11.513 10.067-19.248 24.443-19.248 14.642 0 23.793 7.853 23.852 19.72h-15.705zm22.79 41.564V62.885h26.096c13.431 0 22.435 8.502 22.435 21.373 0 13.018-9.24 21.136-23.026 21.136h-9.092v17.948h-16.413zm16.413-30.7h5.786c5.757 0 9.21-3.218 9.21-8.384 0-5.196-3.453-8.266-9.21-8.266h-5.786v16.65zm38.14 30.7V62.885h26.096c13.432 0 22.435 7.675 22.435 20.546 0 8.384-3.837 14.258-10.273 17.358l12.28 22.553h-17.83l-10.627-19.955h-5.668v19.955h-16.413zm16.413-32.708h5.786c5.757 0 9.21-2.037 9.21-7.203 0-5.196-3.453-7.44-9.21-7.44h-5.786v14.643zm55.498-27.749v60.457h-16.413V62.885h16.413zm60.103 0v60.457h-13.697L541.51 91.58h-.354v31.763h-16.413V62.885h13.933l21.49 31.646h.473V62.885h16.413zm6.14 13.225V62.885h52.546V76.11h-18.184v47.232h-16.177V76.11h-18.184zm91.277 5.668c-.325-3.926-2.834-6.258-8.148-6.258-5.077 0-7.291 1.948-7.32 4.605-.148 2.893 2.42 4.575 8.147 5.786l4.96 1.062c13.342 2.864 18.833 9.329 18.892 18.539-.059 11.926-9.24 18.539-24.56 18.539-15.764 0-26.037-6.79-26.097-21.963h15.587c.266 5.55 3.985 8.502 10.273 8.502 5.255 0 7.97-2.096 8.03-5.078-.06-2.745-2.362-4.428-9.093-5.904l-6.022-1.299c-10.716-2.302-17.269-7.557-17.24-17.003-.088-11.513 10.067-19.248 24.443-19.248 14.642 0 23.793 7.853 23.852 19.72H674.47z" stroke="#FFF" stroke-width="4"/><path d="M504 16.5h189M0 16.5h196" stroke="#FFF" stroke-width="2" stroke-linecap="square"/><text font-family="Georgia-Italic, Georgia" font-size="36" font-style="italic" letter-spacing="-1.207" fill="#FFF"><tspan x="205.057" y="28">The Pros &amp; Cons of</tspan></text></g></svg>