<svg width="331" height="207" xmlns="http://www.w3.org/2000/svg"><g fill="none" fill-rule="evenodd"><text font-family="Georgia-Italic, Georgia" font-size="31" font-style="italic" letter-spacing="-1.039" fill="#FFF"><tspan x="1.361" y="198">Pros, Cons &amp; Alternatives</tspan></text><path d="M120 160h87" stroke="#FFF" stroke-width="2" stroke-linecap="square"/><path d="M26.407 65H2V2h24.16C45.734 2 58 13.813 58 33.5 58 53.188 45.735 65 26.407 65zM19 51h6.74C35.405 51 41 47.181 41 34c0-13.181-5.595-17-15.769-17H19v34zm47 14V2h46v13.781H83.328V26.61h26.303v13.782H83.328v10.828h28.547V65H66zm89.704-43.324c-.34-4.116-2.965-6.562-8.525-6.562-5.312 0-7.628 2.043-7.66 4.829-.154 3.033 2.533 4.797 8.525 6.067l5.19 1.114c13.96 3.002 19.704 9.78 19.766 19.438C172.938 59.067 163.333 66 147.303 66 130.81 66 120.062 58.881 120 42.971h16.308c.278 5.82 4.17 8.915 10.748 8.915 5.498 0 8.34-2.198 8.4-5.324-.06-2.879-2.47-4.643-9.512-6.19l-6.3-1.362c-11.212-2.415-18.069-7.924-18.038-17.829C121.513 9.11 132.138 1 147.18 1c15.32 0 24.894 8.233 24.956 20.676h-16.431zM197 2v63h-17V2h17zm49.726 20.749c-1.06-4.325-4.74-6.797-10.167-6.797-8.732 0-13.721 6.457-13.721 17.424 0 11.122 4.615 17.672 13.597 17.672 7.765 0 11.694-3.522 11.85-9.021h-11.601V29.793H265v8.774C265 55.867 253.025 66 236.31 66 217.66 66 205 53.643 205 33.624 205 12.74 218.97 1 236.185 1c15.094 0 26.726 9.052 28.067 21.749h-17.526zM328 2v63h-14.402L290.63 31.9h-.373V65H273V2h14.65l22.596 32.977h.497V2H328zM32.988 97.813c-.295-3.546-2.573-5.653-7.398-5.653-4.611 0-6.621 1.76-6.648 4.16-.134 2.613 2.198 4.133 7.398 5.227l4.504.96c12.116 2.586 17.102 8.426 17.156 16.746C47.946 130.027 39.61 136 25.697 136 11.382 136 2.054 129.867 2 116.16h14.154c.241 5.013 3.619 7.68 9.329 7.68 4.771 0 7.237-1.893 7.29-4.587-.053-2.48-2.144-4-8.256-5.333l-5.468-1.173c-9.73-2.08-15.682-6.827-15.655-15.36C3.314 86.987 12.535 80 25.59 80c13.296 0 21.606 7.093 21.66 17.813H32.987zM54 136V81h23.66C89.836 81 98 88.734 98 100.443c0 11.844-8.377 19.229-20.876 19.229h-8.243V136H54zm15-28h5.402c5.374 0 8.598-3.092 8.598-8.057C83 94.95 79.776 92 74.402 92H69v16zm34 28V81h23.752c12.226 0 20.42 6.982 20.42 18.691 0 7.627-3.492 12.972-9.35 15.791L149 136h-16.229l-9.673-18.154h-5.159V136H103zm16-30h5.402c5.374 0 8.598-1.948 8.598-6.887 0-4.968-3.224-7.113-8.598-7.113H119v14zm50-25v55h-15V81h15zm56 0v55h-12.569l-20.045-28.896h-.325V136H177V81h12.786l19.72 28.79h.433V81H225zm6 12.031V81h48v12.031h-16.611V136H247.61V93.031H231zm82.988 4.782c-.295-3.546-2.573-5.653-7.398-5.653-4.611 0-6.621 1.76-6.648 4.16-.134 2.613 2.198 4.133 7.398 5.227l4.504.96c12.116 2.586 17.102 8.426 17.156 16.746-.054 10.774-8.39 16.747-22.303 16.747-14.315 0-23.643-6.133-23.697-19.84h14.154c.241 5.013 3.619 7.68 9.329 7.68 4.771 0 7.237-1.893 7.29-4.587-.053-2.48-2.144-4-8.256-5.333l-5.468-1.173c-9.73-2.08-15.682-6.827-15.655-15.36-.08-10.4 9.141-17.387 22.196-17.387 13.296 0 21.606 7.093 21.66 17.813h-14.262z" stroke="#FFF" stroke-width="4"/></g></svg>