<svg width="695" height="118" xmlns="http://www.w3.org/2000/svg"><g fill="none" fill-rule="evenodd"><path d="M559 100h135" stroke="#FFF" stroke-width="2" stroke-linecap="square"/><text font-family="Georgia-Italic, Georgia" font-size="36" font-style="italic" letter-spacing="-1.207" fill="#FFF"><tspan x="156.386" y="111">Pros, Cons &amp; Alternatives</tspan></text><path d="M1 100h134" stroke="#FFF" stroke-width="2" stroke-linecap="square"/><path d="M26.262 63.175H3V2.825h23.026c18.656 0 30.346 11.316 30.346 30.175 0 18.86-11.69 30.175-30.11 30.175zm-6.849-13.909h6.258c8.975 0 14.17-3.654 14.17-16.266 0-12.612-5.195-16.266-14.642-16.266h-5.786v32.532zM63.93 63.175V2.825H107.5v13.202H80.343v10.372h24.915v13.202H80.343v10.372h27.04v13.202H63.93zm84.31-41.49c-.326-3.92-2.835-6.248-8.148-6.248-5.078 0-7.292 1.945-7.321 4.597-.148 2.888 2.42 4.568 8.147 5.776l4.96 1.06c13.343 2.86 18.833 9.313 18.892 18.506-.059 11.905-9.24 18.506-24.56 18.506-15.764 0-26.037-6.777-26.096-21.924H129.7c.266 5.54 3.986 8.487 10.273 8.487 5.255 0 7.97-2.092 8.03-5.069-.06-2.74-2.362-4.42-9.092-5.893l-6.022-1.297c-10.716-2.298-17.27-7.543-17.24-16.973C115.56 9.72 125.715 2 140.092 2c14.641 0 23.793 7.838 23.852 19.684h-15.705zm39.202-18.86v60.35h-16.413V2.825h16.413zm47.055 19.92c-1.004-4.125-4.487-6.483-9.624-6.483-8.265 0-12.989 6.16-12.989 16.62 0 10.608 4.37 16.856 12.871 16.856 7.35 0 11.07-3.36 11.218-8.605H224.99v-11.67h26.805v8.37C251.796 54.335 240.46 64 224.637 64 206.984 64 195 52.213 195 33.118c0-19.92 13.225-31.118 29.52-31.118 14.288 0 25.299 8.634 26.568 20.745h-16.59zm77.284-19.92v60.35h-13.698l-21.845-31.707h-.354v31.707h-16.413V2.825h13.933l21.491 31.59h.472V2.824h16.414zm56.914 18.86c-.324-3.92-2.833-6.248-8.147-6.248-5.078 0-7.292 1.945-7.321 4.597-.148 2.888 2.42 4.568 8.147 5.776l4.96 1.06c13.343 2.86 18.834 9.313 18.893 18.506-.06 11.905-9.24 18.506-24.561 18.506-15.764 0-26.037-6.777-26.096-21.924h15.587c.266 5.54 3.985 8.487 10.273 8.487 5.254 0 7.97-2.092 8.03-5.069-.06-2.74-2.362-4.42-9.093-5.893l-6.022-1.297c-10.716-2.298-17.27-7.543-17.24-16.973C336.017 9.72 346.172 2 360.548 2 375.19 2 384.34 9.838 384.4 21.684h-15.705zm22.79 41.49V2.825h26.096c13.431 0 22.435 8.487 22.435 21.335 0 12.995-9.24 21.099-23.026 21.099h-9.092v17.916h-16.413zm16.413-30.646h5.786c5.757 0 9.21-3.212 9.21-8.37 0-5.186-3.453-8.25-9.21-8.25h-5.786v16.62zm38.14 30.646V2.825h26.096c13.432 0 22.435 7.662 22.435 20.51 0 8.368-3.837 14.232-10.273 17.327l12.28 22.513h-17.83l-10.627-19.92h-5.668v19.92h-16.413zm16.413-32.65h5.786c5.757 0 9.21-2.034 9.21-7.19 0-5.187-3.453-7.426-9.21-7.426h-5.786v14.616zm55.498-27.7v60.35h-16.413V2.825h16.413zm60.103 0v60.35h-13.697L542.51 31.468h-.354v31.707h-16.413V2.825h13.933l21.49 31.59h.473V2.824h16.413zm6.14 13.202V2.825h52.546v13.202h-18.184v47.148h-16.177V16.027h-18.184zm91.277 5.657c-.325-3.919-2.834-6.247-8.148-6.247-5.077 0-7.291 1.945-7.32 4.597-.148 2.888 2.42 4.568 8.147 5.776l4.96 1.06C686.45 29.73 691.94 36.184 692 45.377c-.059 11.905-9.24 18.506-24.56 18.506-15.764 0-26.037-6.777-26.097-21.924h15.587c.266 5.54 3.985 8.487 10.273 8.487 5.255 0 7.97-2.092 8.03-5.069-.06-2.74-2.362-4.42-9.093-5.893l-6.022-1.297c-10.716-2.298-17.269-7.543-17.24-16.973C642.79 9.72 652.946 2 667.322 2c14.642 0 23.793 7.838 23.852 19.684H675.47z" stroke="#FFF" stroke-width="4"/></g></svg>