<svg width="765" height="296" xmlns="http://www.w3.org/2000/svg"><g fill="#FFF" fill-rule="evenodd"><g fill-rule="nonzero"><path d="M687.969 17.005h-20.704V5.023C667.265 2.248 665 0 662.234 0c-2.768 0-5.032 2.248-5.032 5.023v11.982h-28.037V5.023A5.026 5.026 0 0 0 624.135 0a5.026 5.026 0 0 0-5.032 5.023v11.982h-28.037V5.023A5.026 5.026 0 0 0 586.035 0a5.026 5.026 0 0 0-5.032 5.023v11.982h-28.037V5.023A5.026 5.026 0 0 0 547.935 0a5.026 5.026 0 0 0-5.031 5.023v11.982h-28.037V5.023A5.026 5.026 0 0 0 509.836 0a5.026 5.026 0 0 0-5.032 5.023v11.982h-21.773A5.026 5.026 0 0 0 478 22.028v266.949a5.026 5.026 0 0 0 5.031 5.023H687.97c2.78 0 5.03-2.26 5.03-5.023V22.015c.014-2.762-2.25-5.01-5.03-5.01zM504.804 27.039v10.487a5.026 5.026 0 0 0 5.032 5.023 5.026 5.026 0 0 0 5.03-5.023V27.039h28.038v10.487a5.026 5.026 0 0 0 5.031 5.023 5.026 5.026 0 0 0 5.031-5.023V27.039h28.037v10.487a5.026 5.026 0 0 0 5.032 5.023 5.026 5.026 0 0 0 5.03-5.023V27.039h28.038v10.487a5.026 5.026 0 0 0 5.031 5.023 5.026 5.026 0 0 0 5.031-5.023V27.039h28.037v10.487c0 2.775 2.264 5.023 5.032 5.023 2.767 0 5.03-2.248 5.03-5.023V27.039h15.66V55.61H488.064V27.04h16.741zM488.063 283.94V65.657h194.874V283.94H488.063zM765 116.997C765 101.01 751.991 88 735.994 88 720.02 88 707 101.01 707 116.997v137.498c0 .164.075.29.088.453.025.326.1.627.188.954.1.339.226.666.39.967.062.126.075.264.163.39l23.958 36.468a5.02 5.02 0 0 0 4.194 2.273 4.99 4.99 0 0 0 4.194-2.273l23.971-36.469c.075-.125.088-.263.163-.39.176-.313.29-.627.39-.979.1-.314.163-.628.188-.954.013-.15.088-.289.088-.452V116.997H765zm-47.93 3.14h15.797V237.88l-15.796 9.795v-127.54zm22.063 0h15.809v127.54l-15.81-9.796V120.136zm-3.14-22.09c9.368 0 17.128 6.856 18.635 15.81h-37.244c1.507-8.954 9.242-15.81 18.61-15.81zm0 183.762l-17.968-27.339 17.969-11.151 17.981 11.151-17.981 27.34z"/><path d="M554.163 208.056h-39.608c-1.49 0-2.555 1.578-2.555 3.156v44.451c0 1.841 1.278 3.156 2.555 3.156h39.608c1.49 0 2.556-1.578 2.556-3.156v-44.188c.213-1.841-1.065-3.42-2.556-3.42zM521.37 252.77l12.99-14.467 12.989 14.467h-25.98zm25.979-38.139l-12.99 14.467-12.99-14.467h25.98zm-16.823 19.201l-13.202 14.73V218.84l13.202 14.992zm7.88 0l13.202-14.73v29.722l-13.203-14.992zM616.79 152.428v3.683H658v-7.083h-41.21zM616.79 132.642v3.4H658v-7.084h-41.21zM616.79 113.47v3.683H658v-7.084h-41.21zM616.79 90v7.083H658V90zM616.79 172.78v3.4H658v-7.083h-41.21zM616.79 192.567v3.683H658v-7.083h-41.21zM512.212 193.217c0 .264.211.53.211.53 0 .264.212.264.212.528.211.265.423.53.635.53h.211c.423.264.635.264 1.058.264h86.76c.424 0 .635 0 1.058-.264h.212c.212-.265.423-.265.635-.53 0 0 .211-.264.211-.529.212-.265.212-.53.212-.53 0-.264 0-.528.212-.793V93.44v-.53c0-.264 0-.53-.212-.794 0-.264-.212-.529-.212-.529 0-.265-.211-.265-.211-.53l-.423-.529c-.212 0-.212-.264-.424-.264h-.423c-.211 0-.423-.265-.635-.265h-86.76c-.211 0-.423 0-.635.265h-.423c-.211 0-.211.264-.423.264-.212.265-.423.265-.423.53 0 0-.212.264-.212.529-.211.265-.211.53-.211.53 0 .264 0 .529-.212.793v99.777s0 .264.212.529zm82.316-96.6l-36.609 41.55-36.608-41.55h73.217zm4.02 87.866l-36.608-41.816 36.82-41.816v83.632h-.212zm-77.237 4.235l36.608-41.552 36.609 41.552H521.31zm-4.02-87.867l36.82 41.816-36.82 41.816v-83.632zM657.79 209.92c-.209-.533-.418-.799-.627-1.065-.21-.267-.21-.267-.419-.267s-.209-.266-.418-.266c-.21-.266-.628-.266-.837-.266h-83.284-.21c-.209 0-.627 0-.837.266-.209 0-.418.266-.418.266-.21 0-.21.267-.419.267-.209.266-.209.532-.418 1.065v.533c0 .266-.21.533-.21.8v45.018c0 .266 0 .532.21.799v.533c.21.266.21.799.418 1.065l.21.266c.209.267.418.267.627.533 0 0 .21 0 .21.267.209.266.627.266.837.266h83.284c.418 0 .628 0 .837-.266 0 0 .21 0 .21-.267.208 0 .418-.266.627-.533l.21-.266c.208-.266.418-.533.418-1.065v-.533c0-.267.209-.533.209-.8v-45.018c0-.266 0-.533-.21-.799.21-.266.21-.266 0-.533zm-72.82 43.154l28.877-15.716 28.877 15.716H584.97zm57.754-38.625l-28.877 15.716-28.878-15.716h57.755zm10.045 36.76l-32.226-17.58 32.226-17.582v35.162zm-77.844-34.896l32.226 17.582-32.226 17.58v-35.162z"/></g><text font-family="Inter-Black, Inter" font-size="100" font-weight="700" letter-spacing="-.67"><tspan x="322" y="190">+</tspan></text><g fill-rule="nonzero"><path d="M171.65 285H63.35c-2.402 0-4.35 2.015-4.35 4.5s1.948 4.5 4.35 4.5h108.3c2.402 0 4.35-2.015 4.35-4.5s-1.948-4.5-4.35-4.5zM233.258 157.71c0-16.32-3.384-31.863-9.476-45.973C230.159 106.637 234 98.831 234 90.56c0-14.943-12.152-27.1-27.089-27.1a26.895 26.895 0 0 0-15.542 4.923c-16.13-13.463-35.947-22.642-57.69-25.781v-7.117h3.226a4.344 4.344 0 0 0 4.34-4.345V4.345c0-2.4-1.944-4.345-4.34-4.345h-39.81a4.343 4.343 0 0 0-4.34 4.345V31.14c0 2.4 1.943 4.345 4.34 4.345h3.227v7.117C78.302 45.78 58.26 55.156 42.02 68.9a26.994 26.994 0 0 0-14.932-4.488C12.152 64.412 0 76.559 0 91.49c0 8.249 3.648 15.837 9.909 20.953-5.901 13.92-9.167 29.22-9.167 45.268 0 48.523 29.869 90.193 72.178 107.599H8.357a4.343 4.343 0 0 0-4.34 4.345c0 2.4 1.943 4.345 4.34 4.345h217.288a4.343 4.343 0 0 0 4.34-4.345c0-2.4-1.943-4.345-4.34-4.345H161.08c42.31-17.406 72.179-59.076 72.179-107.6zm-26.345-85.56c10.15 0 18.407 8.26 18.407 18.41 0 4.913-1.995 9.588-5.395 13.003a115.968 115.968 0 0 0-21.797-29.17 18.25 18.25 0 0 1 8.785-2.243zM101.437 8.69h31.127v18.105h-31.127V8.69zm23.56 26.795v6.19c-.154-.011-.307-.014-.462-.024a116.555 116.555 0 0 0-3.031-.155c-.276-.01-.555-.023-.831-.032-1.22-.038-2.443-.064-3.672-.064-1.23 0-2.453.026-3.673.064-.275.009-.55.021-.825.032-1.017.039-2.03.09-3.04.155-.153.01-.305.013-.458.023v-6.189h15.993zM8.683 91.49c0-10.14 8.258-18.388 18.407-18.388 2.866 0 5.654.66 8.163 1.903a115.41 115.41 0 0 0-21.499 29.19c-3.232-3.378-5.07-7.877-5.07-12.705zm108.319 173.82c-59.318 0-107.576-48.27-107.576-107.6 0-55.496 42.207-101.312 96.195-107.018a113.13 113.13 0 0 1 1.706-.162c.334-.03.669-.062 1.005-.09.766-.06 1.532-.11 2.297-.156.183-.01.365-.025.549-.034.837-.045 1.672-.078 2.506-.103.14-.005.277-.013.416-.016.971-.026 1.94-.04 2.902-.04h.007c.96 0 1.925.013 2.894.04.144.004.288.012.432.016.828.026 1.658.058 2.489.103.19.01.378.024.567.036.759.044 1.518.094 2.277.155.345.027.685.06 1.028.092.56.05 1.121.101 1.68.16 53.99 5.702 96.203 51.52 96.203 107.018-.001 59.33-48.26 107.599-107.577 107.599z"/><path d="M213.905 153.822c0-.024.004-.048.004-.072 0-.153-.009-.302-.024-.452a96.387 96.387 0 0 0-14.998-47.235c-.034-.064-.062-.129-.097-.191a4.351 4.351 0 0 0-.372-.537 97.722 97.722 0 0 0-36.551-33.312c-.034-.02-.063-.043-.095-.063a4.331 4.331 0 0 0-.432-.217C148.043 64.88 132.967 61 117 61c-19.123 0-36.97 5.566-52.011 15.159-.043.022-.086.04-.128.065a4.36 4.36 0 0 0-.479.326 97.715 97.715 0 0 0-33.326 36.521c-.035.056-.074.108-.107.166a4.292 4.292 0 0 0-.237.486C23.868 127.007 20 142.065 20 158.01c0 1.404.037 2.8.096 4.19 0 .017-.003.034-.003.05 0 .123.01.243.018.362a96.35 96.35 0 0 0 15.032 47.38c.024.046.044.092.07.138.107.184.226.356.354.52a97.696 97.696 0 0 0 36.593 33.343c.024.013.046.031.07.045.078.044.157.077.235.116C85.81 251.08 100.955 255 117.001 255c19.142 0 37.006-5.575 52.056-15.184l.083-.04c.163-.093.31-.197.455-.307a97.695 97.695 0 0 0 33.39-36.606c.02-.036.046-.065.066-.1.086-.146.158-.297.223-.448 6.853-13.287 10.726-28.35 10.726-44.302a97.005 97.005 0 0 0-.095-4.19zm-16.474 40.694l-5.283-3.048a4.334 4.334 0 1 0-4.33 7.512l5.627 3.245a89.016 89.016 0 0 1-25.057 27.579l-3.04-5.266a4.335 4.335 0 1 0-7.506 4.336l3.256 5.639a87.7 87.7 0 0 1-35.513 11.396v-6.112a4.334 4.334 0 0 0-8.666 0v6.53c-12.988-.013-25.328-2.842-36.442-7.908l3.047-5.28a4.336 4.336 0 0 0-1.586-5.923 4.332 4.332 0 0 0-5.92 1.586l-3.25 5.632a88.987 88.987 0 0 1-27.583-25.054l5.26-3.035a4.337 4.337 0 0 0 1.589-5.923 4.33 4.33 0 0 0-5.919-1.588l-5.64 3.255a87.666 87.666 0 0 1-11.393-35.5h6.106a4.334 4.334 0 0 0 4.333-4.336 4.334 4.334 0 0 0-4.333-4.335h-6.521c.014-12.982 2.843-25.317 7.908-36.427l5.278 3.046a4.33 4.33 0 0 0 5.918-1.59 4.337 4.337 0 0 0-1.588-5.922l-5.623-3.245A89.03 89.03 0 0 1 65.615 86.2l3.037 5.262a4.33 4.33 0 0 0 5.92 1.587 4.337 4.337 0 0 0 1.585-5.923l-3.253-5.636a87.697 87.697 0 0 1 35.511-11.4v6.114a4.334 4.334 0 1 0 8.667 0v-6.53c12.987.012 25.327 2.842 36.441 7.91l-3.047 5.279a4.336 4.336 0 0 0 3.748 6.504 4.331 4.331 0 0 0 3.757-2.168l3.25-5.63a89.013 89.013 0 0 1 27.58 25.058l-5.255 3.031a4.335 4.335 0 0 0 4.33 7.512l5.635-3.252a87.712 87.712 0 0 1 11.394 35.498h-6.102a4.335 4.335 0 0 0-4.333 4.336 4.335 4.335 0 0 0 4.333 4.335h6.521c-.01 12.982-2.839 25.319-7.903 36.429z"/><path d="M120.702 113.458c-.422-2.017-2.174-3.458-4.201-3.458-2.027 0-3.778 1.442-4.2 3.458l-7.537 35.973A16.916 16.916 0 0 0 100 161.215c0 9.256 7.402 16.785 16.5 16.785 9.098 0 16.5-7.529 16.5-16.785 0-4.43-1.72-8.642-4.764-11.784l-7.534-35.973zm-4.201 55.807c-4.363 0-7.912-3.611-7.912-8.048a8.126 8.126 0 0 1 2.857-6.182 4.384 4.384 0 0 0 1.435-2.43l3.62-17.26 3.62 17.26c.2.949.703 1.806 1.435 2.43a8.127 8.127 0 0 1 2.856 6.182c0 4.436-3.549 8.048-7.911 8.048z"/></g></g></svg>