<?xml version="1.0" encoding="UTF-8"?>
<svg width="765px" height="296px" viewBox="0 0 765 296" version="1.1" xmlns="http://www.w3.org/2000/svg" xmlns:xlink="http://www.w3.org/1999/xlink">
    <!-- Generator: Sketch 51.3 (57544) - http://www.bohemiancoding.com/sketch -->
    <title>sketching-illustration</title>
    <desc>Created with Sketch.</desc>
    <defs></defs>
    <g id="sketching-illustration" stroke="none" stroke-width="1" fill="none" fill-rule="evenodd">
        <g id="paper-+-pencil" transform="translate(478.000000, 0.000000)" fill="#FFFFFF" fill-rule="nonzero">
            <path d="M209.96865,17.004528 L189.264858,17.004528 L189.264858,5.02349423 C189.264858,2.24801367 187.000774,0 184.23356,0 C181.466346,0 179.202262,2.24801367 179.202262,5.02349423 L179.202262,17.004528 L151.165353,17.004528 L151.165353,5.02349423 C151.165353,2.24801367 148.913847,0 146.134055,0 C143.354262,0 141.102756,2.24801367 141.102756,5.02349423 L141.102756,17.004528 L113.065847,17.004528 L113.065847,5.02349423 C113.065847,2.24801367 110.814342,0 108.034549,0 C105.254757,0 103.003251,2.24801367 103.003251,5.02349423 L103.003251,17.004528 L74.9663423,17.004528 L74.9663423,5.02349423 C74.9663423,2.24801367 72.7148364,0 69.9350442,0 C67.1552519,0 64.903746,2.24801367 64.903746,5.02349423 L64.903746,17.004528 L36.8668371,17.004528 L36.8668371,5.02349423 C36.8668371,2.24801367 34.6153312,0 31.835539,0 C29.0557468,0 26.8042409,2.24801367 26.8042409,5.02349423 L26.8042409,17.004528 L5.03129814,17.004528 C2.25150592,17.004528 0,19.2525416 0,22.0280222 L0,288.976506 C0,291.751986 2.25150592,294 5.03129814,294 L209.96865,294 C212.748442,294 214.999948,291.739428 214.999948,288.976506 L214.999948,22.0154635 C215.012526,19.2525416 212.748442,17.004528 209.96865,17.004528 Z M26.8042409,27.0389577 L26.8042409,37.5255019 C26.8042409,40.3009825 29.0557468,42.5489962 31.835539,42.5489962 C34.6153312,42.5489962 36.8668371,40.3009825 36.8668371,37.5255019 L36.8668371,27.0389577 L64.903746,27.0389577 L64.903746,37.5255019 C64.903746,40.3009825 67.1552519,42.5489962 69.9350442,42.5489962 C72.7148364,42.5489962 74.9663423,40.3009825 74.9663423,37.5255019 L74.9663423,27.0389577 L103.003251,27.0389577 L103.003251,37.5255019 C103.003251,40.3009825 105.254757,42.5489962 108.034549,42.5489962 C110.814342,42.5489962 113.065847,40.3009825 113.065847,37.5255019 L113.065847,27.0389577 L141.102756,27.0389577 L141.102756,37.5255019 C141.102756,40.3009825 143.354262,42.5489962 146.134055,42.5489962 C148.913847,42.5489962 151.165353,40.3009825 151.165353,37.5255019 L151.165353,27.0389577 L179.202262,27.0389577 L179.202262,37.5255019 C179.202262,40.3009825 181.466346,42.5489962 184.23356,42.5489962 C187.000774,42.5489962 189.264858,40.3009825 189.264858,37.5255019 L189.264858,27.0389577 L204.924773,27.0389577 L204.924773,55.6100812 L10.0625963,55.6100812 L10.0625963,27.0389577 L26.8042409,27.0389577 Z M10.0625963,283.940453 L10.0625963,65.6570696 L204.937352,65.6570696 L204.937352,283.940453 L10.0625963,283.940453 Z" id="Shape"></path>
            <path d="M287,116.996679 C287,101.010203 273.991124,88 257.993722,88 C242.021433,88 229,101.010203 229,116.996679 L229,254.495442 C229,254.658697 229.075341,254.784278 229.087898,254.947534 C229.113011,255.274045 229.188352,255.575439 229.27625,255.90195 C229.376705,256.241019 229.502273,256.56753 229.665512,256.868925 C229.728296,256.994506 229.740853,257.132645 229.828751,257.258226 L253.787183,293.726982 C254.703832,295.13349 256.285993,296 257.981165,296 C259.676337,296 261.258498,295.146048 262.175146,293.726982 L286.146136,257.258226 C286.221477,257.132645 286.234033,256.994506 286.309374,256.868925 C286.48517,256.554972 286.598181,256.241019 286.698636,255.889392 C286.799091,255.575439 286.861875,255.261486 286.886989,254.934976 C286.899545,254.784278 286.974886,254.646139 286.974886,254.482884 L286.974886,116.996679 L287,116.996679 Z M239.070578,120.136207 L254.867071,120.136207 L254.867071,237.88106 L239.070578,247.676387 L239.070578,120.136207 Z M261.132929,120.136207 L276.941979,120.136207 L276.941979,247.676387 L261.132929,237.88106 L261.132929,120.136207 Z M257.993722,98.0464892 C267.361117,98.0464892 275.121238,104.903218 276.628058,113.857151 L239.384499,113.857151 C240.891318,104.903218 248.626326,98.0464892 257.993722,98.0464892 Z M257.993722,281.809334 L240.024897,254.470325 L257.993722,243.318722 L275.975103,254.470325 L257.993722,281.809334 Z" id="Shape"></path>
            <g id="wireframes" transform="translate(34.000000, 90.000000)">
                <path d="M42.1632811,118.055556 L2.55535037,118.055556 C1.06472932,118.055556 0,119.633708 0,121.21186 L0,165.66314 C0,167.504318 1.27767518,168.819444 2.55535037,168.819444 L42.1632811,168.819444 C43.6539021,168.819444 44.7186314,167.241292 44.7186314,165.66314 L44.7186314,121.474885 C44.9315773,119.633708 43.6539021,118.055556 42.1632811,118.055556 Z M9.36961802,162.769862 L22.3593157,148.303469 L35.3490134,162.769862 L9.36961802,162.769862 Z M35.3490134,124.631189 L22.3593157,139.097582 L9.36961802,124.631189 L35.3490134,124.631189 Z M18.5262902,143.832038 L5.3236466,158.561457 L5.3236466,128.839594 L18.5262902,143.832038 Z M26.4052871,143.832038 L39.6079307,129.102619 L39.6079307,158.824482 L26.4052871,143.832038 Z" id="Shape"></path>
                <polygon id="Shape" points="104.790323 62.4277778 104.790323 66.1111111 146 66.1111111 146 62.4277778 146 59.0277778 104.790323 59.0277778"></polygon>
                <polygon id="Shape" points="104.790323 42.6416667 104.790323 46.0416667 146 46.0416667 146 42.6416667 146 38.9583333 104.790323 38.9583333"></polygon>
                <polygon id="Shape" points="104.790323 23.4694444 104.790323 27.1527778 146 27.1527778 146 23.4694444 146 20.0694444 104.790323 20.0694444"></polygon>
                <polygon id="Shape" points="104.790323 0 104.790323 3.68333333 104.790323 7.08333333 146 7.08333333 146 3.68333333 146 0"></polygon>
                <polygon id="Shape" points="104.790323 82.7805556 104.790323 86.1805556 146 86.1805556 146 82.7805556 146 79.0972222 104.790323 79.0972222"></polygon>
                <polygon id="Shape" points="104.790323 102.566667 104.790323 106.25 146 106.25 146 102.566667 146 99.1666667 104.790323 99.1666667"></polygon>
                <path d="M0.21160993,103.216835 C0.21160993,103.481493 0.42321986,103.746152 0.42321986,103.746152 C0.42321986,104.01081 0.63482979,104.01081 0.63482979,104.275469 C0.63482979,104.275469 0.63482979,104.275469 0.63482979,104.275469 C0.846439721,104.540127 1.05804965,104.804786 1.26965958,104.804786 C1.26965958,104.804786 1.26965958,104.804786 1.48126951,104.804786 C1.90448937,105.069444 2.1160993,105.069444 2.53931916,105.069444 L89.2993905,105.069444 C89.7226104,105.069444 89.9342203,105.069444 90.3574402,104.804786 C90.3574402,104.804786 90.3574402,104.804786 90.5690501,104.804786 C90.78066,104.540127 90.99227,104.540127 91.2038799,104.275469 C91.2038799,104.275469 91.2038799,104.275469 91.2038799,104.275469 C91.2038799,104.275469 91.4154898,104.01081 91.4154898,103.746152 C91.6270997,103.481493 91.6270997,103.216835 91.6270997,103.216835 C91.6270997,102.952176 91.6270997,102.687517 91.8387097,102.422859 C91.8387097,102.1582 91.8387097,102.1582 91.8387097,101.893542 L91.8387097,3.44056115 C91.8387097,3.1759026 91.8387097,3.1759026 91.8387097,2.91124405 C91.8387097,2.6465855 91.8387097,2.38192695 91.6270997,2.1172684 C91.6270997,1.85260985 91.4154898,1.5879513 91.4154898,1.5879513 C91.4154898,1.32329275 91.2038799,1.32329275 91.2038799,1.0586342 C91.2038799,1.0586342 91.2038799,1.0586342 91.2038799,1.0586342 C90.99227,0.793975651 90.99227,0.793975651 90.78066,0.5293171 C90.5690501,0.5293171 90.5690501,0.26465855 90.3574402,0.26465855 C90.1458302,0.26465855 90.1458302,0.26465855 89.9342203,0.26465855 C89.7226104,0.26465855 89.5110004,0 89.2993905,0 C89.2993905,0 89.2993905,0 89.2993905,0 L2.53931916,0 C2.53931916,0 2.53931916,0 2.53931916,0 C2.32770923,0 2.1160993,0 1.90448937,0.26465855 C1.69287944,0.26465855 1.69287944,0.26465855 1.48126951,0.26465855 C1.26965958,0.26465855 1.26965958,0.5293171 1.05804965,0.5293171 C0.846439721,0.793975651 0.63482979,0.793975651 0.63482979,1.0586342 C0.63482979,1.0586342 0.63482979,1.0586342 0.63482979,1.0586342 C0.63482979,1.0586342 0.42321986,1.32329275 0.42321986,1.5879513 C0.21160993,1.85260985 0.21160993,2.1172684 0.21160993,2.1172684 C0.21160993,2.38192695 0.21160993,2.6465855 0,2.91124405 C0,3.1759026 0,3.1759026 0,3.44056115 L0,102.1582 C0,102.422859 0,102.422859 0,102.687517 C1.12768424e-14,102.687517 1.12768424e-14,102.952176 0.21160993,103.216835 Z M82.5278728,6.61646376 L45.9193548,48.1678561 L9.31083693,6.61646376 L82.5278728,6.61646376 Z M86.5484614,94.4831024 L49.9399435,52.6670515 L86.7600714,10.8510006 L86.7600714,94.4831024 L86.5484614,94.4831024 Z M9.31083693,98.7176392 L45.9193548,57.1662469 L82.5278728,98.7176392 L9.31083693,98.7176392 Z M5.29024825,10.8510006 L42.1103761,52.6670515 L5.29024825,94.4831024 L5.29024825,10.8510006 Z" id="Shape"></path>
                <path d="M145.790743,119.920228 C145.790743,119.920228 145.790743,119.920228 145.790743,119.920228 C145.790743,119.920228 145.790743,119.920228 145.790743,119.920228 C145.581486,119.387464 145.372229,119.121083 145.162972,118.854701 C144.953715,118.588319 144.953715,118.588319 144.744458,118.588319 C144.535201,118.588319 144.535201,118.321937 144.325944,118.321937 C144.116687,118.055556 143.698173,118.055556 143.488916,118.055556 C143.488916,118.055556 143.488916,118.055556 143.488916,118.055556 L60.2046323,118.055556 C60.2046323,118.055556 60.2046323,118.055556 59.9953753,118.055556 C59.7861183,118.055556 59.3676043,118.055556 59.1583473,118.321937 C58.9490904,118.321937 58.7398334,118.588319 58.7398334,118.588319 C58.5305764,118.588319 58.5305764,118.854701 58.3213194,118.854701 C58.1120624,119.121083 58.1120624,119.387464 57.9028054,119.920228 C57.9028054,119.920228 57.9028054,119.920228 57.9028054,119.920228 C57.9028054,119.920228 57.9028054,119.920228 57.9028054,119.920228 C57.9028054,120.18661 57.9028054,120.18661 57.9028054,120.452991 C57.9028054,120.719373 57.6935484,120.985755 57.6935484,121.252137 L57.6935484,166.270655 C57.6935484,166.537037 57.6935484,166.803419 57.9028054,167.069801 C57.9028054,167.336182 57.9028054,167.336182 57.9028054,167.602564 C58.1120624,167.868946 58.1120624,168.401709 58.3213194,168.668091 C58.3213194,168.668091 58.5305764,168.934473 58.5305764,168.934473 C58.7398334,169.200855 58.9490904,169.200855 59.1583473,169.467236 C59.1583473,169.467236 59.3676043,169.467236 59.3676043,169.733618 C59.5768613,170 59.9953753,170 60.2046323,170 C60.2046323,170 60.2046323,170 60.2046323,170 L143.488916,170 C143.488916,170 143.488916,170 143.488916,170 C143.90743,170 144.116687,170 144.325944,169.733618 C144.325944,169.733618 144.535201,169.733618 144.535201,169.467236 C144.744458,169.467236 144.953715,169.200855 145.162972,168.934473 C145.162972,168.934473 145.372229,168.668091 145.372229,168.668091 C145.581486,168.401709 145.790743,168.135328 145.790743,167.602564 C145.790743,167.336182 145.790743,167.336182 145.790743,167.069801 C145.790743,166.803419 146,166.537037 146,166.270655 L146,121.252137 C146,120.985755 146,120.719373 145.790743,120.452991 C146,120.18661 146,120.18661 145.790743,119.920228 Z M72.969309,163.074074 L101.846774,147.35755 L130.724239,163.074074 L72.969309,163.074074 Z M130.724239,124.448718 L101.846774,140.165242 L72.969309,124.448718 L130.724239,124.448718 Z M140.768575,161.209402 L108.542998,143.628205 L140.768575,126.047009 L140.768575,161.209402 Z M62.9249732,126.31339 L95.1505504,143.894587 L62.9249732,161.475783 L62.9249732,126.31339 Z" id="Shape"></path>
            </g>
        </g>
        <text id="+" font-family="Inter-Black, Inter" font-size="100" font-weight="700" letter-spacing="-0.6704761" fill="#FFFFFF">
            <tspan x="322" y="190">+</tspan>
        </text>
        <g id="watch" fill="#FFFFFF" fill-rule="nonzero">
            <path d="M171.649564,285 L63.3504358,285 C60.9477523,285 59,287.014714 59,289.5 C59,291.985286 60.9477523,294 63.3504358,294 L171.649564,294 C174.052248,294 176,291.985286 176,289.5 C176,287.014714 174.052248,285 171.649564,285 Z" id="Shape"></path>
            <path d="M233.257771,157.71089 C233.257771,141.389721 229.874024,125.846932 223.781792,111.737382 C230.159258,106.636318 234,98.8314047 234,90.560332 C234,75.6171572 221.84778,63.4597666 206.911425,63.4597666 C201.29727,63.4597666 195.900142,65.1872259 191.368637,68.3833049 C175.238639,54.9199228 155.421677,45.7407391 133.678764,42.6017661 L133.678764,35.4852296 L136.905012,35.4852296 C139.30098,35.4852296 141.245534,33.5398981 141.245534,31.1402008 L141.245534,4.34502882 C141.245534,1.94533147 139.30098,0 136.905012,0 L97.094988,0 C94.6977799,0 92.7544664,1.94533147 92.7544664,4.34502882 L92.7544664,31.1402008 C92.7544664,33.5398981 94.6977799,35.4852296 97.094988,35.4852296 L100.322476,35.4852296 L100.322476,42.6017661 C78.3011495,45.780465 58.2597211,55.1557958 42.0199696,68.8997427 C37.6279818,65.9873319 32.4460191,64.4119486 27.0879552,64.4119486 C12.1516003,64.4119486 0,76.558787 0,91.4895475 C0,99.738895 3.64789837,107.327177 9.90879075,112.443139 C4.00754159,126.363369 0.74160912,141.662837 0.74160912,157.71089 C0.74160912,206.23431 30.6105985,247.904378 72.9201429,265.309942 L8.35674424,265.309942 C5.95953616,265.309942 4.01622263,267.255274 4.01622263,269.654971 C4.01622263,272.054669 5.95953616,274 8.35674424,274 L225.645116,274 C228.042324,274 229.985638,272.054669 229.985638,269.654971 C229.985638,267.255274 228.042324,265.309942 225.645116,265.309942 L161.079237,265.309942 C203.388781,247.904378 233.257771,206.23431 233.257771,157.71089 Z M206.912665,72.1498242 C217.062665,72.1498242 225.320197,80.4091033 225.320197,90.560332 C225.320197,95.4733182 223.325417,100.147948 219.924929,103.56252 C214.226444,92.731605 206.918866,82.9546694 198.128069,74.3924798 C200.79997,72.9288258 203.807952,72.1498242 206.912665,72.1498242 Z M101.43675,8.69005763 L132.56449,8.69005763 L132.56449,26.795172 L129.338243,26.795172 L104.664238,26.795172 L101.43675,26.795172 L101.43675,8.69005763 Z M124.997721,35.4852296 L124.997721,41.6744128 C124.842702,41.6638606 124.690164,41.660757 124.535146,41.6508255 C123.527524,41.5862708 122.517423,41.5341305 121.503601,41.4956459 C121.227668,41.4850937 120.949255,41.4726793 120.672701,41.4639893 C119.452395,41.4255047 118.230228,41.4000553 117.00062,41.4000553 C115.771012,41.4000553 114.547605,41.4261254 113.327919,41.4639893 C113.053226,41.4726793 112.777913,41.4850937 112.5026,41.4956459 C111.485677,41.5347512 110.473096,41.5862708 109.462994,41.6514462 C109.309836,41.660757 109.157918,41.6644813 109.004759,41.6744128 L109.004759,35.4852296 L124.997721,35.4852296 Z M8.68228336,91.4895475 C8.68228336,81.3507331 16.9398157,73.1020062 27.0891953,73.1020062 C29.9545597,73.1020062 32.7430348,73.7618299 35.2524763,75.0051289 C26.5652324,83.5791121 19.3599665,93.3622549 13.7532527,104.194412 C10.5214244,100.817083 8.68228336,96.3181159 8.68228336,91.4895475 Z M117.00062,265.309942 C57.6830518,265.309942 9.42451255,217.040397 9.42451255,157.71089 C9.42451255,102.21432 51.6323647,56.3978533 105.619772,50.6922098 C106.188381,50.6332415 106.756989,50.5804804 107.325597,50.5302023 C107.660438,50.5004078 107.994658,50.4675097 108.330738,50.4408188 C109.09653,50.3793677 109.862942,50.3290895 110.628114,50.2843978 C110.811036,50.2738456 110.993338,50.2589483 111.17688,50.2496375 C112.013981,50.2049458 112.848601,50.1720477 113.682601,50.1465983 C113.822118,50.1422533 113.959775,50.1341839 114.099291,50.1310803 C115.070328,50.1050101 116.038264,50.0907336 117.00124,50.0907336 C117.00372,50.0907336 117.006201,50.0907336 117.008061,50.0907336 C117.968556,50.0907336 118.933392,50.1043894 119.901949,50.1310803 C120.045806,50.1348046 120.189663,50.142874 120.333521,50.147219 C121.16194,50.1732892 121.9916,50.2049458 122.8225,50.2496375 C123.012863,50.259569 123.200745,50.2744663 123.390488,50.2856392 C124.148839,50.3303309 124.90781,50.3799884 125.667402,50.4408188 C126.011543,50.4681304 126.351964,50.5016492 126.694865,50.5326851 C127.255412,50.5823426 127.81596,50.6344829 128.375887,50.6922098 C182.365775,56.3953704 224.577968,102.212458 224.577968,157.71089 C224.576728,217.040397 176.318188,265.309942 117.00062,265.309942 Z" id="Shape"></path>
            <path d="M213.905259,153.82214 C213.905878,153.797985 213.908973,153.77383 213.908973,153.749675 C213.908973,153.597314 213.900307,153.448049 213.88545,153.298165 C213.052862,135.984092 207.661154,119.847412 198.887093,106.063043 C198.853046,105.99925 198.824571,105.934217 198.789906,105.871663 C198.6791,105.679662 198.5522,105.503146 198.417872,105.334682 C189.325632,91.3292032 176.72352,79.8079584 161.86692,72.0226639 C161.833492,72.0028446 161.803779,71.9799284 161.77159,71.9601091 C161.629833,71.8783542 161.4856,71.8071283 161.33951,71.7433347 C148.043471,64.8802601 132.967117,61 117.001223,61 C97.8776826,61 80.0305718,66.5655255 64.9895015,76.1587177 C64.9474078,76.1810145 64.9040761,76.1995952 64.8619824,76.22375 C64.6917505,76.3222275 64.5345181,76.4330921 64.383476,76.5495309 C50.3767965,85.6305163 38.8505504,98.2232456 31.0570252,113.071047 C31.0217408,113.126789 30.9833612,113.178815 30.9499339,113.237034 C30.8583181,113.395589 30.7821781,113.55848 30.7128473,113.723228 C23.8682874,127.007158 20,142.064921 20,158.0096 C20,159.414298 20.0371415,160.809705 20.0959489,162.200776 C20.0959489,162.21688 20.0934728,162.234222 20.0934728,162.250944 C20.0934728,162.372957 20.1021391,162.493112 20.1114245,162.612028 C20.9272995,179.982463 26.3332451,196.173027 35.1432094,209.992699 C35.1673514,210.037912 35.1871602,210.083744 35.2131593,210.129576 C35.3196316,210.314144 35.4391034,210.486325 35.5672416,210.649215 C44.6644335,224.670797 57.2826398,236.205048 72.1596685,243.99282 C72.1844295,244.006446 72.2060954,244.024407 72.2308564,244.038033 C72.3076155,244.082007 72.3874697,244.114833 72.4654669,244.153852 C85.8104086,251.08072 100.955475,255 117.000604,255 C136.143334,255 154.00654,249.425184 169.056895,239.815889 C169.084751,239.801644 169.113227,239.790495 169.140464,239.775631 C169.302648,239.683347 169.450595,239.579295 169.594828,239.46905 C183.636792,230.371961 195.186561,217.750741 202.985038,202.862682 C203.004847,202.826759 203.030846,202.798269 203.051274,202.762346 C203.137319,202.616798 203.209126,202.465675 203.274123,202.314553 C210.12673,189.027526 213.99997,173.964808 213.99997,158.012697 C214.001208,156.607999 213.964067,155.211353 213.905259,153.82214 Z M197.431146,194.515632 L192.147767,191.467786 C190.074652,190.27243 187.425225,190.984689 186.229269,193.05767 C185.033931,195.13251 185.74581,197.78335 187.818925,198.979944 L193.445244,202.225365 C187.131188,213.095049 178.564501,222.501196 168.387729,229.804012 L165.348316,224.538255 C164.151122,222.465273 161.502314,221.756111 159.42858,222.951467 C157.356084,224.149919 156.646681,226.800759 157.842019,228.87436 L161.09809,234.51297 C150.456431,240.668121 138.417013,244.667298 125.585243,245.909105 L125.585243,239.796689 C125.585243,237.402262 123.643981,235.461203 121.252068,235.461203 C118.858917,235.461203 116.918893,237.402262 116.918893,239.796689 L116.918893,246.32655 C103.931128,246.314163 91.5908644,243.484949 80.4768889,238.418623 L83.5243491,233.138621 C84.7209245,231.063781 84.0115218,228.412321 81.938407,227.215727 C79.8665302,226.017275 77.216484,226.728295 76.0186706,228.801896 L72.7681701,234.434312 C61.8956144,228.121224 52.4876719,219.555542 45.1850336,209.379537 L50.4455083,206.344697 C52.5186232,205.147483 53.2298829,202.496643 52.0339266,200.422423 C50.8385892,198.346963 48.1891621,197.636563 46.1154282,198.833777 L40.474253,202.089107 C34.3199061,191.449824 30.3240995,179.416992 29.0817163,166.588908 L35.1877792,166.588908 C37.58093,166.588908 39.5209545,164.647849 39.5209545,162.253422 C39.5209545,159.858995 37.58093,157.917935 35.1877792,157.917935 L28.6669695,157.917935 C28.6805881,144.935632 31.5101515,132.600554 36.5750143,121.490561 L41.8534408,124.53655 C42.5356064,124.92984 43.2796745,125.116886 44.0144572,125.116886 C45.5124978,125.116886 46.9696827,124.338976 47.7719392,122.946665 C48.9672765,120.872445 48.2560168,118.221605 46.1829019,117.02501 L40.5602975,113.780209 C46.8749719,102.909287 55.4404213,93.5019012 65.6147168,86.1997037 L68.6522727,91.4623646 C69.4545291,92.8528169 70.911095,93.6301077 72.4085166,93.6301077 C73.1439183,93.6301077 73.8892245,93.4424431 74.5720091,93.0485332 C76.6445049,91.8513196 77.3539076,89.1992408 76.1573322,87.1256397 L72.9043556,81.4895077 C83.545396,75.3331173 95.5829568,71.3345603 108.415346,70.0908952 L108.415346,76.2039307 C108.415346,78.5983578 110.35537,80.5394168 112.748521,80.5394168 C115.141672,80.5394168 117.081696,78.5983578 117.081696,76.2039307 L117.081696,69.6740691 C130.068842,69.6858369 142.409106,72.51629 153.523081,77.583854 L150.47624,82.8626181 C149.277807,84.9362192 149.989067,87.5876787 152.061563,88.7855116 C152.744967,89.1800408 153.490892,89.3670861 154.224436,89.3670861 C155.721858,89.3670861 157.177805,88.5897953 157.98068,87.199343 L161.230562,81.5694045 C172.101879,87.8843498 181.508584,96.4506511 188.810603,106.626657 L183.5557,109.6584 C181.482585,110.854375 180.771325,113.505215 181.9679,115.580055 C182.770157,116.972365 184.226104,117.750275 185.724763,117.750275 C186.460165,117.750275 187.204852,117.56323 187.885161,117.16994 L193.521384,113.918325 C199.673255,124.556369 203.670918,136.589202 204.91454,149.416047 L198.81281,149.416047 C196.419659,149.416047 194.479635,151.357725 194.479635,153.751533 C194.479635,156.145341 196.419659,158.087019 198.81281,158.087019 L205.334239,158.087019 C205.323715,171.069323 202.49539,183.405639 197.431146,194.515632 Z" id="Shape"></path>
            <path d="M120.701684,113.458124 C120.279614,111.441405 118.528145,110 116.500613,110 C114.473695,110 112.72284,111.442029 112.300156,113.458124 L104.763627,149.430852 C101.719568,152.572616 100,156.785762 100,161.215431 C100,170.470998 107.401565,178 116.5,178 C125.598435,178 133,170.470998 133,161.215431 C133,156.785762 131.280432,152.572616 128.23576,149.430852 L120.701684,113.458124 Z M116.500613,169.264836 C112.138199,169.264836 108.589251,165.653835 108.589251,161.216679 C108.589251,158.83992 109.630317,156.587959 111.445587,155.035485 C112.176848,154.409628 112.681737,153.554144 112.881116,152.604439 L116.500613,135.345018 L120.120111,152.604439 C120.320103,153.55352 120.823766,154.410876 121.55564,155.035485 C123.371524,156.587959 124.411976,158.841792 124.411976,161.216679 C124.412589,165.653211 120.863028,169.264836 116.500613,169.264836 Z" id="Shape"></path>
        </g>
    </g>
</svg>