<?xml version="1.0" encoding="UTF-8"?>
<svg width="695px" height="118px" viewBox="0 0 695 118" version="1.1" xmlns="http://www.w3.org/2000/svg" xmlns:xlink="http://www.w3.org/1999/xlink">
    <!-- Generator: Sketch 51.3 (57544) - http://www.bohemiancoding.com/sketch -->
    <title>header-text-large</title>
    <desc>Created with Sketch.</desc>
    <defs></defs>
    <g id="header-text-large" stroke="none" stroke-width="1" fill="none" fill-rule="evenodd">
        <path d="M652,98 L694,98" id="Line-2-Copy" stroke="#FFFFFF" stroke-width="2" stroke-linecap="square" fill-rule="nonzero"></path>
        <text id="A-Future-Proofed-Com" font-family="Georgia-Italic, Georgia" font-size="33" font-style="italic" font-weight="normal" letter-spacing="-1.10628557" fill="#FFFFFF">
            <tspan x="60.4974532" y="109">A Future-Proofed Competitive Advantage</tspan>
        </text>
        <path d="M1,98 L44,98" id="Line-2" stroke="#FFFFFF" stroke-width="2" stroke-linecap="square" fill-rule="nonzero"></path>
        <path d="M2.56533942,23.0124332 L2.56533942,13.8162778 L39.1036355,13.8162778 L39.1036355,23.0124332 L26.4589218,23.0124332 L26.4589218,55.8558454 L15.2100531,55.8558454 L15.2100531,23.0124332 L2.56533942,23.0124332 Z M47.1568813,55.8558454 L47.1568813,13.8162778 L77.4549291,13.8162778 L77.4549291,23.0124332 L58.5699671,23.0124332 L58.5699671,30.2379839 L75.894867,30.2379839 L75.894867,39.4341393 L58.5699671,39.4341393 L58.5699671,46.65969 L77.3728206,46.65969 L77.3728206,55.8558454 L47.1568813,55.8558454 Z M109.565971,26.9536427 C109.340172,24.223534 107.595366,22.6018905 103.900482,22.6018905 C100.369815,22.6018905 98.8302805,23.9566813 98.8097534,25.8041232 C98.7071177,27.8157822 100.492978,28.9858288 104.475242,29.8274412 L107.9238,30.566418 C117.202064,32.5575499 121.020111,37.0529919 121.061165,43.4574573 C121.020111,51.7504189 114.636173,56.3484966 103.982591,56.3484966 C93.021102,56.3484966 85.8776598,51.6272561 85.8366055,41.0763099 L96.6749316,41.0763099 C96.8596758,44.9354108 99.4460945,46.9881241 103.818374,46.9881241 C107.472203,46.9881241 109.3607,45.5306977 109.401754,43.4574573 C109.3607,41.548434 107.759583,40.3783874 103.079397,39.3520308 L98.8918619,38.4488369 C91.4405128,36.8477206 86.8834893,33.193891 86.9040164,26.6252085 C86.842435,18.6196268 93.9037687,13.2415181 103.900482,13.2415181 C114.08194,13.2415181 120.445351,18.7017353 120.486405,26.9536427 L109.565971,26.9536427 Z M129.196518,55.8558454 L129.196518,13.8162778 L140.609604,13.8162778 L140.609604,46.65969 L157.60607,46.65969 L157.60607,55.8558454 L129.196518,55.8558454 Z M176.908178,55.8558454 L164.591899,55.8558454 L178.46824,13.8162778 L194.068861,13.8162778 L207.945203,55.8558454 L195.628923,55.8558454 L193.206721,47.8092094 L179.33038,47.8092094 L176.908178,55.8558454 Z M181.916799,39.2699222 L190.620303,39.2699222 L186.432768,25.3935806 L186.104334,25.3935806 L181.916799,39.2699222 Z M219.364899,13.8162778 L219.364899,18.7427896 C219.364899,22.7661076 216.573209,27.0357512 213.945736,29.33479 L209.265549,26.9536427 C210.415069,24.9830379 211.48248,22.519782 211.48248,18.7427896 L211.48248,13.8162778 L219.364899,13.8162778 Z M251.147486,26.9536427 C250.921688,24.223534 249.176881,22.6018905 245.481998,22.6018905 C241.951331,22.6018905 240.411796,23.9566813 240.391269,25.8041232 C240.288633,27.8157822 242.074494,28.9858288 246.056757,29.8274412 L249.505316,30.566418 C258.78358,32.5575499 262.601626,37.0529919 262.64268,43.4574573 C262.601626,51.7504189 256.217688,56.3484966 245.564106,56.3484966 C234.602617,56.3484966 227.459175,51.6272561 227.418121,41.0763099 L238.256447,41.0763099 C238.441191,44.9354108 241.02761,46.9881241 245.399889,46.9881241 C249.053719,46.9881241 250.942215,45.5306977 250.983269,43.4574573 C250.942215,41.548434 249.341099,40.3783874 244.660912,39.3520308 L240.473377,38.4488369 C233.022028,36.8477206 228.465005,33.193891 228.485532,26.6252085 C228.42395,18.6196268 235.485284,13.2415181 245.481998,13.2415181 C255.663455,13.2415181 262.026867,18.7017353 262.067921,26.9536427 L251.147486,26.9536427 Z M297.469889,13.8162778 L297.469889,55.8558454 L286.056803,55.8558454 L286.056803,13.8162778 L297.469889,13.8162778 Z M343.046712,13.8162778 L343.046712,55.8558454 L333.522122,55.8558454 L318.332044,33.7686507 L318.085718,33.7686507 L318.085718,55.8558454 L306.672633,55.8558454 L306.672633,13.8162778 L316.361439,13.8162778 L331.305192,35.821364 L331.633626,35.821364 L331.633626,13.8162778 L343.046712,13.8162778 Z M351.09996,23.0124332 L351.09996,13.8162778 L387.638256,13.8162778 L387.638256,23.0124332 L374.993542,23.0124332 L374.993542,55.8558454 L363.744673,55.8558454 L363.744673,23.0124332 L351.09996,23.0124332 Z M395.691501,55.8558454 L395.691501,13.8162778 L425.989549,13.8162778 L425.989549,23.0124332 L407.104587,23.0124332 L407.104587,30.2379839 L424.429487,30.2379839 L424.429487,39.4341393 L407.104587,39.4341393 L407.104587,46.65969 L425.907441,46.65969 L425.907441,55.8558454 L395.691501,55.8558454 Z M435.438637,55.8558454 L435.438637,13.8162778 L453.584622,13.8162778 C462.924467,13.8162778 469.185243,19.1533323 469.185243,28.1031621 C469.185243,33.9328678 466.516715,38.0177671 462.0418,40.1731161 L470.581088,55.8558454 L458.1827,55.8558454 L450.792932,41.9795037 L446.851722,41.9795037 L446.851722,55.8558454 L435.438637,55.8558454 Z M446.851722,33.1117824 L450.87504,33.1117824 C454.877831,33.1117824 457.279506,31.6954103 457.279506,28.1031621 C457.279506,24.4903867 454.877831,22.9303247 450.87504,22.9303247 L446.851722,22.9303247 L446.851722,33.1117824 Z M489.226333,13.8162778 L489.226333,55.8558454 L477.813247,55.8558454 L477.813247,13.8162778 L489.226333,13.8162778 Z M539.154908,34.8360616 C539.154908,48.8766203 530.122969,56.4306051 518.709883,56.4306051 C507.214689,56.4306051 498.264859,48.7945118 498.264859,34.8360616 C498.264859,20.7955029 507.214689,13.2415181 518.709883,13.2415181 C530.122969,13.2415181 539.154908,20.7955029 539.154908,34.8360616 Z M527.413388,34.8360616 C527.413388,27.2820768 524.375372,23.1766502 518.709883,23.1766502 C513.044395,23.1766502 510.006379,27.2820768 510.006379,34.8360616 C510.006379,42.3900464 513.044395,46.4954729 518.709883,46.4954729 C524.375372,46.4954729 527.413388,42.3900464 527.413388,34.8360616 Z M548.193462,55.8558454 L548.193462,13.8162778 L566.339447,13.8162778 C575.679292,13.8162778 581.940068,19.1533323 581.940068,28.1031621 C581.940068,33.9328678 579.271541,38.0177671 574.796626,40.1731161 L583.335913,55.8558454 L570.937525,55.8558454 L563.547757,41.9795037 L559.606548,41.9795037 L559.606548,55.8558454 L548.193462,55.8558454 Z M559.606548,33.1117824 L563.629866,33.1117824 C567.632656,33.1117824 570.034331,31.6954103 570.034331,28.1031621 C570.034331,24.4903867 567.632656,22.9303247 563.629866,22.9303247 L559.606548,22.9303247 L559.606548,33.1117824 Z M630.807835,13.8162778 L642.138813,13.8162778 L642.138813,41.5689611 C642.138813,51.1756592 634.99537,56.3484966 623.992827,56.3484966 C612.908176,56.3484966 605.846842,51.1756592 605.846842,41.5689611 L605.846842,13.8162778 L617.259928,13.8162778 L617.259928,41.0763099 C617.259928,44.1964341 619.805292,46.3312559 623.992827,46.3312559 C628.262471,46.3312559 630.807835,44.1964341 630.807835,41.0763099 L630.807835,13.8162778 Z M663.575751,13.8162778 L670.472867,26.0504488 L670.801301,26.0504488 L677.780527,13.8162778 L690.507349,13.8162778 L677.944744,34.8360616 L691,55.8558454 L677.944744,55.8558454 L670.801301,43.3753488 L670.472867,43.3753488 L663.329425,55.8558454 L650.356277,55.8558454 L663.247317,34.8360616 L650.76682,13.8162778 L663.575751,13.8162778 Z" id="TESLA’S-INTERIOR-UX" stroke="#FFFFFF" stroke-width="4"></path>
    </g>
</svg>