<?xml version="1.0" encoding="UTF-8"?>
<svg width="315px" height="102px" viewBox="0 0 315 102" version="1.1" xmlns="http://www.w3.org/2000/svg" xmlns:xlink="http://www.w3.org/1999/xlink">
    <!-- Generator: Sketch 51.3 (57544) - http://www.bohemiancoding.com/sketch -->
    <title>header-text-small</title>
    <desc>Created with Sketch.</desc>
    <defs></defs>
    <g id="header-text-small" stroke="none" stroke-width="1" fill="none" fill-rule="evenodd">
        <path d="M3.50514265,73.1363275 L3.50514265,65.8088525 L32.6187708,65.8088525 L32.6187708,73.1363275 L22.5434927,73.1363275 L22.5434927,99.3058809 L13.5804207,99.3058809 L13.5804207,73.1363275 L3.50514265,73.1363275 Z M40.5094486,99.3058809 L40.5094486,65.8088525 L64.6508616,65.8088525 L64.6508616,73.1363275 L49.6033684,73.1363275 L49.6033684,78.8936292 L63.4078078,78.8936292 L63.4078078,86.2211042 L49.6033684,86.2211042 L49.6033684,91.9784059 L64.5854377,91.9784059 L64.5854377,99.3058809 L40.5094486,99.3058809 Z M91.7107345,76.2766739 C91.5308188,74.1013297 90.1405613,72.809208 87.1964865,72.809208 C84.3832595,72.809208 83.1565617,73.8887021 83.1402057,75.3607395 C83.0584259,76.9636246 84.4813953,77.895915 87.6544537,78.5665098 L90.4022568,79.1553247 C97.7951556,80.7418539 100.837366,84.3238115 100.870078,89.4268744 C100.837366,96.0346867 95.7506593,99.6984242 87.2619104,99.6984242 C78.5278219,99.6984242 72.8359441,95.9365509 72.8032321,87.5295818 L81.4391848,87.5295818 C81.5863885,90.6045043 83.6472408,92.2401014 87.1310626,92.2401014 C90.0424254,92.2401014 91.5471748,91.0788275 91.5798867,89.4268744 C91.5471748,87.9057692 90.271409,86.9734788 86.5422477,86.1556803 L83.2056296,85.4360175 C77.2684122,84.1602518 73.6373867,81.248889 73.6537426,76.0149783 C73.6046747,69.6361497 79.2311287,65.3508853 87.1964865,65.3508853 C95.3090481,65.3508853 100.379399,69.7015736 100.412111,76.2766739 L91.7107345,76.2766739 Z M108.826179,99.3058809 L108.826179,65.8088525 L117.920099,65.8088525 L117.920099,91.9784059 L131.462843,91.9784059 L131.462843,99.3058809 L108.826179,99.3058809 Z M148.316587,99.3058809 L138.503005,99.3058809 L149.559641,65.8088525 L161.990179,65.8088525 L173.046815,99.3058809 L163.233233,99.3058809 L161.303228,92.8943403 L150.246592,92.8943403 L148.316587,99.3058809 Z M152.307444,86.0902564 L159.242376,86.0902564 L155.905758,75.0336201 L155.644062,75.0336201 L152.307444,86.0902564 Z M183.619873,65.8088525 L183.619873,69.7342855 C183.619873,72.9400558 181.395461,76.3420977 179.301896,78.1739665 L175.572735,76.2766739 C176.488669,74.7065007 177.33918,72.7437842 177.33918,69.7342855 L177.33918,65.8088525 L183.619873,65.8088525 Z M210.418034,76.2766739 C210.238118,74.1013297 208.847861,72.809208 205.903786,72.809208 C203.090559,72.809208 201.863861,73.8887021 201.847505,75.3607395 C201.765725,76.9636246 203.188695,77.895915 206.361753,78.5665098 L209.109556,79.1553247 C216.502455,80.7418539 219.544666,84.3238115 219.577378,89.4268744 C219.544666,96.0346867 214.457959,99.6984242 205.96921,99.6984242 C197.235122,99.6984242 191.543244,95.9365509 191.510532,87.5295818 L200.146484,87.5295818 C200.293688,90.6045043 202.35454,92.2401014 205.838362,92.2401014 C208.749725,92.2401014 210.254474,91.0788275 210.287186,89.4268744 C210.254474,87.9057692 208.978709,86.9734788 205.249547,86.1556803 L201.912929,85.4360175 C195.975712,84.1602518 192.344686,81.248889 192.361042,76.0149783 C192.311974,69.6361497 197.938428,65.3508853 205.903786,65.3508853 C214.016348,65.3508853 219.086699,69.7015736 219.119411,76.2766739 L210.418034,76.2766739 Z M261.070297,65.8088525 L270.098793,65.8088525 L270.098793,87.9221251 C270.098793,95.5767195 264.406915,99.6984242 255.640115,99.6984242 C246.807891,99.6984242 241.181437,95.5767195 241.181437,87.9221251 L241.181437,65.8088525 L250.275356,65.8088525 L250.275356,87.5295818 C250.275356,90.0156894 252.303497,91.7167104 255.640115,91.7167104 C259.042157,91.7167104 261.070297,90.0156894 261.070297,87.5295818 L261.070297,65.8088525 Z M288.653566,65.8088525 L294.149172,75.5570111 L294.410867,75.5570111 L299.971897,65.8088525 L310.112599,65.8088525 L300.102745,82.5573667 L310.505143,99.3058809 L300.102745,99.3058809 L294.410867,89.3614506 L294.149172,89.3614506 L288.457294,99.3058809 L278.12032,99.3058809 L288.39187,82.5573667 L278.44744,65.8088525 L288.653566,65.8088525 Z" id="TESLA’S-UX" stroke="#FFFFFF" stroke-width="4"></path>
        <path d="M114,44 L201,44" id="Line-2" stroke="#FFFFFF" stroke-width="2" stroke-linecap="square" fill-rule="nonzero"></path>
        <text id="The-Hidden-Advantage" font-family="Georgia-Italic, Georgia" font-size="29" font-style="italic" font-weight="normal" letter-spacing="-1.00459671" fill="#FFFFFF">
            <tspan x="-1.37145424" y="22">The Hidden Advantage of</tspan>
        </text>
    </g>
</svg>