<svg width="82" height="82" xmlns="http://www.w3.org/2000/svg"><g fill="#FFF" fill-rule="nonzero"><path d="M8.808 54.352h25.46c.565 0 1.018.456 1.018 1.026v1.824c0 .456.34.798.792.798h9.844a.776.776 0 00.792-.798v-1.824c0-.57.453-1.026 1.019-1.026h25.46c4.3 0 7.807-3.534 7.807-7.866V8.866C81 4.534 77.492 1 73.192 1H8.808C4.508 1 1 4.534 1 8.866v37.62c0 4.332 3.395 7.866 7.808 7.866zM6.545 10.006c0-1.824 1.47-3.306 3.281-3.306h62.122c1.81 0 3.281 1.482 3.281 3.306v35.34c0 1.824-1.47 3.306-3.281 3.306H9.939c-1.81 0-3.281-1.482-3.281-3.306v-35.34h-.113zM76.971 78.765l-2.713-15.089C74.03 62.671 73.127 62 71.883 62H8.003c-1.13 0-2.148.67-2.374 1.676l-2.6 15.089C2.803 79.995 3.933 81 5.403 81H74.71c1.357 0 2.487-1.006 2.261-2.235zM33.555 65.24c0-.335.34-.559.679-.559h3.618c.339 0 .678.224.678.56v1.9c0 .334-.339.558-.678.558h-3.618c-.34 0-.679-.224-.679-.559v-1.9zm0 5.253c0-.335.34-.559.679-.559h3.618c.339 0 .678.224.678.56v1.9c0 .334-.339.558-.678.558h-3.618c-.34 0-.679-.224-.679-.559v-1.9zm-8.027-5.253c0-.335.34-.559.678-.559h3.618c.34 0 .679.224.679.56v1.9c0 .334-.34.558-.679.558h-3.618c-.339 0-.678-.224-.678-.559v-1.9zm0 5.253c0-.335.34-.559.678-.559h3.618c.34 0 .679.224.679.56v1.9c0 .334-.34.558-.679.558h-3.618c-.339 0-.678-.224-.678-.559v-1.9zm-7.914-5.253c0-.335.339-.559.678-.559h3.618c.34 0 .679.224.679.56v1.9c0 .334-.34.558-.679.558h-3.618c-.339 0-.678-.224-.678-.559v-1.9zm0 5.253c0-.335.339-.559.678-.559h3.618c.34 0 .679.224.679.56v1.9c0 .334-.34.558-.679.558h-3.618c-.339 0-.678-.224-.678-.559v-1.9zm-3.166 7.265c0 .335-.34.559-.678.559h-3.618c-.34 0-.679-.224-.679-.56v-1.9c0-.334.34-.558.679-.558h3.618c.339 0 .678.224.678.559v1.9zm0-5.365c0 .335-.34.559-.678.559h-3.618c-.34 0-.679-.224-.679-.559v-1.9c0-.335.34-.559.679-.559h3.618c.339 0 .678.224.678.56v1.9zm0-5.253c0 .335-.34.559-.678.559h-3.618c-.34 0-.679-.224-.679-.559v-1.9c0-.335.34-.559.679-.559h3.618c.339 0 .678.224.678.56v1.9zM46.444 77.76c0 .335-.339.559-.678.559H18.18c-.34 0-.678-.224-.678-.56v-1.9c0-.334.339-.558.678-.558h27.587c.34 0 .678.224.678.559v1.9zm0-5.365c0 .335-.339.559-.678.559h-3.618c-.34 0-.678-.224-.678-.559v-1.9c0-.335.339-.559.678-.559h3.618c.34 0 .678.224.678.56v1.9zm0-5.253c0 .335-.339.559-.678.559h-3.618c-.34 0-.678-.224-.678-.559v-1.9c0-.335.339-.559.678-.559h3.618c.34 0 .678.224.678.56v1.9zm8.028 10.618c0 .335-.34.559-.679.559h-3.618c-.339 0-.678-.224-.678-.56v-1.9c0-.334.34-.558.678-.558h3.618c.34 0 .679.224.679.559v1.9zm0-5.365c0 .335-.34.559-.679.559h-3.618c-.339 0-.678-.224-.678-.559v-1.9c0-.335.34-.559.678-.559h3.618c.34 0 .679.224.679.56v1.9zm0-5.253c0 .335-.34.559-.679.559h-3.618c-.339 0-.678-.224-.678-.559v-1.9c0-.335.34-.559.678-.559h3.618c.34 0 .679.224.679.56v1.9zm7.914 10.618c0 .335-.34.559-.678.559H58.09c-.34 0-.679-.224-.679-.56v-1.9c0-.334.34-.558.679-.558h3.618c.339 0 .678.224.678.559v1.9zm0-5.365c0 .335-.34.559-.678.559H58.09c-.34 0-.679-.224-.679-.559v-1.9c0-.335.34-.559.679-.559h3.618c.339 0 .678.224.678.56v1.9zm0-5.253c0 .335-.34.559-.678.559H58.09c-.34 0-.679-.224-.679-.559v-1.9c0-.335.34-.559.679-.559h3.618c.339 0 .678.224.678.56v1.9zm8.027 10.618c0 .335-.339.559-.678.559h-3.618c-.339 0-.678-.224-.678-.56v-1.9c0-.334.339-.558.678-.558h3.618c.34 0 .678.224.678.559v1.9zm0-5.365c0 .335-.339.559-.678.559h-3.618c-.339 0-.678-.224-.678-.559v-1.9c0-.335.339-.559.678-.559h3.618c.34 0 .678.224.678.56v1.9zm0-5.253c0 .335-.339.559-.678.559h-3.618c-.339 0-.678-.224-.678-.559v-1.9c0-.335.339-.559.678-.559h3.618c.34 0 .678.224.678.56v1.9z"/></g></svg>