<svg width="193" height="149" xmlns="http://www.w3.org/2000/svg"><g fill="#000" fill-rule="nonzero"><path d="M179.08 129.078c0 .608-.044 1.216-.131 1.802.087-.586.152-1.15.239-1.737a14.27 14.27 0 01-.934 3.387l.651-1.563a14.663 14.663 0 01-1.15 2.15c-.109.151-.217.303-.326.477-.369.608.977-1.15.5-.652-.304.304-.565.652-.869.956-.26.26-.564.52-.847.76-.65.607.652-.522.652-.5 0 .044-.413.304-.456.326a15.21 15.21 0 01-2.258 1.237l1.563-.651c-1.085.456-2.214.76-3.387.933.587-.086 1.151-.152 1.737-.238-1.823.217-3.69.13-5.514.13H19.951c-.652 0-1.303-.044-1.954-.13.586.086 1.15.152 1.737.238a14.27 14.27 0 01-3.387-.933l1.563.651a14.663 14.663 0 01-2.15-1.15 9.105 9.105 0 00-.477-.326c-.608-.37 1.15.977.652.5-.304-.305-.652-.565-.956-.87-.26-.26-.52-.564-.76-.846-.607-.651.522.652.5.652-.044 0-.304-.413-.326-.456a15.21 15.21 0 01-1.237-2.258l.651 1.563a13.993 13.993 0 01-.933-3.387c.086.586.152 1.15.238 1.737-.173-1.433-.13-2.909-.13-4.364v-7.793-26.03-31.89-27.245c0-4.255-.043-8.532 0-12.787 0-.63.044-1.26.13-1.889-.086.587-.152 1.15-.238 1.737a14.27 14.27 0 01.933-3.387l-.651 1.564c.325-.739.694-1.455 1.15-2.15.109-.152.217-.304.326-.477.369-.608-.977 1.15-.5.651.305-.304.565-.651.869-.955.26-.26.564-.521.847-.76.651-.608-.652.521-.652.5 0-.044.413-.305.456-.326a15.21 15.21 0 012.258-1.238l-1.563.651a13.993 13.993 0 013.387-.933c-.587.087-1.15.152-1.737.239 1.823-.217 3.69-.13 5.514-.13H172.11c.652 0 1.303.043 1.954.13-.586-.087-1.15-.152-1.737-.239a14.27 14.27 0 013.387.933l-1.563-.65c.738.325 1.455.694 2.15 1.15.151.108.303.217.477.325.608.37-1.15-.976-.651-.499.304.304.65.565.955.868.26.261.52.565.76.847.607.651-.521-.651-.5-.651.044 0 .304.412.326.456.478.716.89 1.476 1.237 2.258l-.65-1.564c.455 1.086.759 2.215.933 3.387-.087-.586-.152-1.15-.24-1.737.174 1.433.131 2.888.131 4.32V115.51c0 4.45-.087 8.9 0 13.351v.217c0 3.409 2.996 6.665 6.513 6.513 3.538-.152 6.513-2.866 6.513-6.513v-17.715-38.316-37.362-11.614c0-3.235.108-6.491-1.02-9.596-2.215-6.143-6.948-10.92-13.265-12.808-1.932-.586-3.995-.782-6.014-.782H29.177c-7.055 0-14.762-.825-20.776 3.67C3.213 8.418.065 14.17 0 20.727V128.6c0 2.41.304 4.885 1.172 7.165 2.345 6.078 7.251 10.941 13.677 12.548 2.562.65 5.08.63 7.685.63h134.597c5.037 0 10.073.042 15.11 0 4.06-.023 8.227-1.217 11.506-3.67 5.21-3.886 8.336-9.617 8.401-16.173.043-3.408-3.018-6.665-6.513-6.513-3.603.13-6.513 2.844-6.556 6.491z"/><path d="M11.224 114.034c4.84-4.993 9.66-9.987 14.501-14.98 7.642-7.88 15.284-15.782 22.925-23.663 1.759-1.802 3.517-3.625 5.254-5.427h-9.205c4.494 3.712 8.988 7.446 13.482 11.159 7.164 5.926 14.328 11.853 21.492 17.801l4.95 4.103c1.367 1.129 2.778 1.91 4.602 1.91 1.606 0 3.495-.716 4.602-1.91 2.193-2.388 2.8-6.882 0-9.205-4.494-3.712-8.988-7.446-13.481-11.158a15527.348 15527.348 0 01-21.492-17.802l-4.95-4.103c-1.303-1.085-2.822-1.997-4.602-1.91-1.715.087-3.387.651-4.603 1.91-4.84 4.993-9.66 9.987-14.502 14.98-7.641 7.88-15.283 15.782-22.924 23.663a1219.246 1219.246 0 00-5.254 5.427c-2.366 2.453-2.627 6.795 0 9.205 2.562 2.366 6.665 2.627 9.205 0z"/><path d="M77.306 119.548l6.6-6.6 15.76-15.76 19.127-19.126 16.477-16.478c2.67-2.67 5.449-5.297 8.054-8.054l.109-.108h-9.205c5.123 4.038 10.225 8.054 15.348 12.092 8.163 6.426 16.326 12.852 24.467 19.277 1.867 1.477 3.755 2.953 5.622 4.43 1.411 1.106 2.736 1.91 4.603 1.91 1.606 0 3.495-.717 4.602-1.91 1.129-1.238 1.975-2.867 1.91-4.603-.065-1.607-.586-3.56-1.91-4.603-5.123-4.037-10.225-8.054-15.348-12.092-8.163-6.426-16.326-12.851-24.467-19.277-1.867-1.477-3.755-2.953-5.622-4.429-1.346-1.064-2.78-1.997-4.603-1.91-1.737.086-3.365.65-4.602 1.91l-6.6 6.6-15.76 15.76-19.126 19.126-16.478 16.477c-2.67 2.67-5.427 5.32-8.054 8.055l-.108.108c-2.41 2.41-2.584 6.839 0 9.205 2.605 2.388 6.643 2.562 9.204 0zM94.609 42.046c0 .716-.066 1.411-.152 2.106.086-.586.152-1.15.238-1.737a16.252 16.252 0 01-1.02 3.647l.651-1.563a16.46 16.46 0 01-1.215 2.28c-.13.195-.283.39-.413.586-.325.564 1.13-1.324.413-.543-.283.326-.565.63-.869.934-.304.303-.63.586-.933.868-.673.608.651-.521.651-.5 0 .087-.52.37-.586.413-.76.5-1.563.934-2.388 1.303l1.563-.652c-1.172.5-2.388.825-3.647 1.02.586-.086 1.15-.151 1.737-.238-1.412.195-2.8.195-4.212 0 .586.087 1.15.152 1.737.239a16.252 16.252 0 01-3.647-1.02l1.563.65a16.46 16.46 0 01-2.28-1.215c-.195-.13-.39-.282-.586-.413-.564-.325 1.324 1.13.543.413-.326-.282-.63-.565-.934-.868-.304-.304-.586-.63-.868-.934-.608-.673.52.651.5.651-.088 0-.37-.52-.413-.586-.5-.76-.934-1.563-1.303-2.388l.651 1.563a15.185 15.185 0 01-1.02-3.647c.087.586.152 1.15.239 1.737a15.204 15.204 0 010-4.212c-.087.586-.152 1.15-.239 1.737.196-1.26.543-2.475 1.02-3.647l-.65 1.563a16.46 16.46 0 011.215-2.28c.13-.195.282-.39.412-.586.326-.564-1.128 1.325-.412.543.282-.326.564-.63.868-.933.304-.304.63-.587.934-.869.673-.608-.651.521-.651.5 0-.087.52-.37.586-.413.76-.5 1.563-.933 2.388-1.303l-1.563.652c1.172-.5 2.388-.825 3.647-1.02-.586.086-1.15.151-1.737.238 1.411-.195 2.8-.195 4.212 0-.587-.087-1.151-.152-1.737-.239 1.259.196 2.475.543 3.647 1.02l-1.563-.65a16.46 16.46 0 012.28 1.215c.195.13.39.282.586.413.564.325-1.325-1.13-.543-.413.325.282.63.565.933.869.304.303.586.63.869.933.608.673-.521-.651-.5-.651.087 0 .37.52.413.586.5.76.933 1.563 1.302 2.388l-.65-1.563c.498 1.172.824 2.388 1.02 3.647-.087-.586-.153-1.15-.24-1.737.087.695.153 1.39.153 2.106.043 3.408 2.974 6.665 6.512 6.513 3.496-.152 6.557-2.866 6.513-6.513-.043-4.103-1.194-8.423-3.604-11.788-2.757-3.843-6.274-6.556-10.702-8.206-7.816-2.91-17.541-.217-22.817 6.209-3.017 3.669-4.71 7.815-5.101 12.57-.348 4.102.803 8.531 2.93 12.048 2.063 3.43 5.189 6.448 8.836 8.12 4.407 2.018 8.966 2.604 13.742 1.692 9.704-1.823 16.608-11.006 16.716-20.667.044-3.408-3.017-6.664-6.513-6.512-3.56.173-6.469 2.865-6.512 6.534z"/></g></svg>