<svg width="96" height="90" xmlns="http://www.w3.org/2000/svg"><g fill="#FFF" fill-rule="nonzero"><path d="M91.9.4H34.6C32.6.4 31 2 31 4v18.9c.8 1.4 2 3.3 2.8 4.5l9.6-.5h.2c1.6 0 3 1.3 3.1 2.9l.1 1.7c.1 1.7-1 3.1-2.7 3.4-3.6.5-12 1.6-12.5 1.7h-.5v8.9c0 2 1.6 3.6 3.6 3.6H92c2 0 3.6-1.6 3.6-3.6V4C95.5 2 93.9.4 91.9.4z"/><circle cx="16.9" cy="10.3" r="7"/><path d="M26.9 69.4h-1.8c-.3 0-.5.1-.7.3-1.7 1.6-3.9 2.5-6.4 2.5-2.5 0-4.7-1-6.4-2.5-.2-.2-.5-.3-.7-.3H9.1c-1.9 0-3.3 1.6-3.1 3.5L4.8 84.8c.1 1.5 1.1 2.9 2.6 3.4 2.8.9 7.6 1.4 10.8 1.4 3.2 0 8-.5 10.8-1.4 1.5-.5 2.5-1.8 2.6-3.4l-1.2-11.9c-.2-1.9-1.6-3.5-3.5-3.5z"/><circle cx="17.9" cy="62.8" r="7.2"/><path d="M59 69.4h-1.8c-.3 0-.5.1-.7.3-1.7 1.6-3.9 2.5-6.4 2.5-2.5 0-4.7-1-6.4-2.5-.2-.2-.5-.3-.7-.3h-1.8c-1.9 0-3.3 1.6-3.1 3.5l-1.2 11.9c.1 1.5 1.1 2.9 2.6 3.4 2.8.9 7.6 1.4 10.8 1.4 3.2 0 8-.5 10.8-1.4 1.5-.5 2.5-1.8 2.6-3.4l-1.2-11.9c-.1-1.9-1.6-3.5-3.5-3.5z"/><circle cx="50.1" cy="62.8" r="7.2"/><path d="M91.2 69.4h-1.8c-.3 0-.5.1-.7.3-1.7 1.6-3.9 2.5-6.4 2.5-2.5 0-4.7-1-6.4-2.5-.2-.2-.5-.3-.7-.3h-1.8c-1.9 0-3.3 1.6-3.1 3.5l-1.2 11.9c.1 1.5 1.1 2.9 2.6 3.4 2.8.9 7.6 1.4 10.8 1.4 3.2 0 8-.5 10.8-1.4 1.5-.5 2.5-1.8 2.6-3.4l-1.2-11.9c-.2-1.9-1.7-3.5-3.5-3.5z"/><circle cx="82.2" cy="62.8" r="7.2"/><path d="M6.5 33.8l2.6-5.4-.8 18.8c0 1.2.9 2.2 2.1 2.2h12.9c1.2 0 2.1-1 2.1-2.1l-.6-20.1 4.3 5.8.9 1.2c.3.4.7.6 1.3.5.5-.1 9.4-1.2 12.5-1.7.6-.1 1-.6 1-1.2l-.1-1.7c-.1-.6-.6-1.1-1.2-1l-10.8.5s-3.8-6.3-4.3-7c-.4-.6-1.5-2.2-1.9-2.6l-.9-.6L22 18c-1.5 1-3.2 1.5-5.1 1.5-1.9 0-3.6-.6-5.1-1.5l-3.6 1.3c-.8.3-1.5 1-1.8 1.8L2.1 31.4c-.3.6-.4 1.2-.5 1.9L.5 45.9c0 .5.3.9.8 1l2.5.2c.5 0 .9-.3 1-.8l1.7-12.5z"/></g></svg>