<svg width="90" height="54" xmlns="http://www.w3.org/2000/svg"><g fill="none" fill-rule="evenodd"><path d="M18.088 3.997c-.461-.167-1.196.001-1.676.047a15.948 15.948 0 00-3.076.598c-3.17.956-5.867 3.025-7.678 5.788-.248.378-2.733 4.393-1.153 4.393.687 0 1.238-1.367 1.601-1.9.352-.518.722-1.023 1.118-1.508a16.998 16.998 0 013.912-3.502c2.086-1.35 4.442-2.233 6.862-2.764.561-.124.64-.952.09-1.152zM74.865 3.997c-.461-.167-1.195.001-1.676.047a15.948 15.948 0 00-3.076.598c-3.17.956-5.867 3.025-7.678 5.788-.248.378-2.732 4.393-1.152 4.393.686 0 1.238-1.367 1.6-1.9.352-.518.723-1.023 1.119-1.508a16.957 16.957 0 013.912-3.502C70 6.563 72.355 5.68 74.775 5.149c.561-.124.641-.952.09-1.152z"/><path d="M90 17.599C90 8.275 82.441.716 73.116.716S56.233 8.275 56.233 17.599c0 1.17.119 2.313.346 3.415-3.71-1.64-7.74-2.602-11.96-2.602-3.911 0-7.661.823-11.143 2.248a16.97 16.97 0 00.291-3.062c0-9.324-7.56-16.883-16.885-16.883C7.56.716 0 8.274 0 17.599S7.56 34.48 16.883 34.48c.02 0 .037-.003.057-.003-3.397 5.111-5.379 10.782-5.379 15.973 0 .957 16.945 2.834 33.973 2.834 17.282 0 32.144-2.076 32.144-2.834 0-5.203-1.991-10.89-5.404-16.012.281.015.559.043.844.043C82.441 34.481 90 26.923 90 17.599zM17.998 5.148c-2.42.53-4.776 1.414-6.862 2.764a16.977 16.977 0 00-3.912 3.502c-.396.484-.767.99-1.118 1.508-.362.533-.914 1.9-1.601 1.9-1.58 0 .905-4.015 1.153-4.393 1.811-2.763 4.508-4.832 7.678-5.788a15.948 15.948 0 013.076-.598c.479-.046 1.215-.214 1.676-.047.55.201.471 1.029-.09 1.152zm49.916 2.764a16.936 16.936 0 00-3.912 3.502c-.396.484-.768.99-1.119 1.508-.361.533-.914 1.9-1.6 1.9-1.58 0 .904-4.015 1.152-4.393 1.811-2.763 4.508-4.832 7.678-5.788a15.948 15.948 0 013.076-.598c.48-.046 1.215-.214 1.676-.047.551.2.471 1.028-.09 1.151-2.42.532-4.775 1.416-6.861 2.765z" fill="#FFF" fill-rule="nonzero"/></g></svg>