<svg width="152" height="98" xmlns="http://www.w3.org/2000/svg"><g fill="#FFF" fill-rule="nonzero"><path d="M142.177 84.356a14.017 14.017 0 00-10.137-4.286 14.017 14.017 0 00-10.137 4.286l-3.653 3.762a7.067 7.067 0 01-5.114 2.163 7.071 7.071 0 01-5.115-2.163l-3.653-3.762a14.017 14.017 0 00-10.137-4.286 14.017 14.017 0 00-10.137 4.286l-3.653 3.762a7.067 7.067 0 01-5.114 2.163 7.071 7.071 0 01-5.115-2.163l-3.653-3.762a14.017 14.017 0 00-10.137-4.286 14.017 14.017 0 00-10.137 4.286l-3.654 3.763a7.066 7.066 0 01-5.113 2.162 7.071 7.071 0 01-5.115-2.163l-3.653-3.762a14.017 14.017 0 00-10.137-4.286c-3.853 0-7.453 1.522-10.162 4.312L1.87 91.298a3.5 3.5 0 005.071 4.826l6.556-6.891a7.066 7.066 0 015.115-2.163c1.944 0 3.76.768 5.115 2.163l3.653 3.762a14.017 14.017 0 0010.137 4.286c3.853 0 7.452-1.522 10.136-4.286l3.653-3.762a7.068 7.068 0 015.115-2.163c1.944 0 3.761.768 5.115 2.163l3.653 3.762a14.015 14.015 0 0010.137 4.286c3.853 0 7.452-1.522 10.136-4.286l3.653-3.762a7.068 7.068 0 015.115-2.163c1.944 0 3.761.768 5.115 2.163l3.653 3.762a14.015 14.015 0 0010.137 4.286c3.853 0 7.452-1.522 10.136-4.286l3.653-3.762a7.068 7.068 0 015.115-2.163c1.944 0 3.761.768 5.115 2.163l6.716 6.916a3.501 3.501 0 005.021-4.877l-6.714-6.916zM150.442 56.338a3.497 3.497 0 00-4.882-.813c-6.164 4.403-13.448 6.454-22.925 6.454-24.103 0-30.533-15.364-30.533-24.443 0-7.648 4.952-12.979 9.396-12.979 3.835 0 7.019 1.309 9.731 4 1.904 1.89 4.772 2.151 6.978.638 2.217-1.522 3.008-4.311 1.922-6.781C116.568 14.311 107.04.72 83.228.72c-18.306 0-34.891 10.921-43.247 28.432C30.047 48.819 18.86 58.966 3.708 62.049a3.5 3.5 0 101.396 6.86c17.214-3.503 30.282-15.133 41.16-36.672C53.483 17.114 67.647 7.719 83.229 7.719c14.642 0 22.715 5.977 27.096 11.736-2.687-1.263-5.637-1.898-8.825-1.898-9.041 0-16.396 8.962-16.396 19.979 0 15.145 11.745 31.443 37.533 31.443 11.007 0 19.585-2.466 26.993-7.759a3.5 3.5 0 00.812-4.882z"/></g></svg>