<svg width="96" height="84" xmlns="http://www.w3.org/2000/svg"><g fill="#FFF" fill-rule="nonzero"><path d="M59.4 29.5C47.5 20 65 17.5 72.7 9.2 80.4.9 70.3.5 70.3.5S79.9 3.6 57.7 11 34.5 30.5 39.6 34.4c6 4.6 15.6 9.8-6 20.3-14.1 6.9-20.4 20-22.6 25.8-.5 1.4.5 2.8 2 2.8l46.5.2c1.7 0 2.7-1.8 1.8-3.2-2.9-4.8-6.1-14 5.4-21.8 23.5-15.9 2.3-21.2-7.3-29zM16.1 54.7l-.4-11.8H24c1.3 0 2-1.5 1.2-2.5l-4.7-5.9h2.3c1.1 0 1.7-1.3 1-2.1L19.3 27h1.4c.7 0 1.1-.9.7-1.4L13.7 16c-.4-.4-1-.4-1.4 0l-7.7 9.6c-.5.5-.1 1.4.7 1.4h1.4l-4.5 5.5c-.7.8-.1 2.1 1 2.1h2.3L.8 40.5C0 41.5.7 43 2 43h8.4L10 54.7c0 .8 1.8.9 3 .9s3.1-.1 3.1-.9zM95.3 24.6l-3.2-4h1.6c.7 0 1.1-.9.7-1.4l-3-3.8h1c.5 0 .8-.6.5-1l-5.3-6.5c-.2-.3-.7-.3-.9 0l-5.3 6.5c-.3.4 0 1 .5 1h1l-3 3.8c-.5.6-.1 1.4.7 1.4h1.6l-3.2 4c-.5.7-.1 1.7.8 1.7h5.7l-.3 8c0 .6 1.3.6 2.1.6s2.1 0 2.1-.6l-.3-8h5.7c.5 0 1-1 .5-1.7z"/></g></svg>