<svg width="86" height="90" xmlns="http://www.w3.org/2000/svg"><g fill="#FFF" fill-rule="nonzero"><path d="M29.41 56.54v-2.9H3.25V90h8.23V71.4a8.65 8.65 0 1117.3 0V90h3.49V58h-1.36a1.5 1.5 0 01-1.5-1.46zM33.45 44.54V30.82H6.81v13.72h9.27v-7.09a4.05 4.05 0 018.1 0v7.09h9.27zM17.08 17.3a3.05 3.05 0 116.1 0v4.41h6.76V11.5H10.32v10.21h6.76V17.3zM23.25 0h-6.24l-6.69 10h19.62zM33.77 90H39V71.4a8.65 8.65 0 1117.3 0V90h3.9V71.4a8.65 8.65 0 1117.3 0V90h5.2V58H33.77v32z"/><path d="M47.62 64.25a7.15 7.15 0 00-7.15 7.15V90h14.3V71.4a7.15 7.15 0 00-7.15-7.15zM20.13 64.25A7.15 7.15 0 0013 71.4V90h14.3V71.4a7.15 7.15 0 00-7.17-7.15zM17.58 37.45v7.09h5.1v-7.09a2.55 2.55 0 00-5.1 0zM18.58 17.3v4.41h3.1V17.3a1.55 1.55 0 10-3.1 0zM56.45 17.85h3.57v5.89h-3.57zM62.4 28.08v-2.84h-8.33v2.84a34.82 34.82 0 018.33 0zM30.91 50.64h1.5a31.69 31.69 0 011-4.6H.44v6.1h29a1.5 1.5 0 011.47-1.5zM33.45 29.32h3.03v-6.11H3.78v6.11h3.03zM68.85 64.25a7.15 7.15 0 00-7.15 7.15V90H76V71.4a7.15 7.15 0 00-7.15-7.15zM82.56 50.64c-.65-5.09-4.3-21.31-24.32-21.31S34.56 45.55 33.91 50.64h48.65zM30.91 52.14v4.4h54.65v-4.4H39.82z"/></g></svg>