<svg width="480" height="430" xmlns="http://www.w3.org/2000/svg"><g fill="#FFF" fill-rule="nonzero"><path d="M470 430H292.002a9.998 9.998 0 01-8.189-4.262L197.716 302.87a10 10 0 01-.006-11.469l89.897-128.577a10 10 0 018.195-4.27h.021a9.997 9.997 0 018.198 4.306L478.22 414.306A9.998 9.998 0 01470 430zm-172.795-20h153.702L295.765 186.061l-77.653 111.064L297.205 410z"/><path d="M292.002 430H10a10 10 0 01-8.196-15.731l140.844-201.445a10.002 10.002 0 018.19-4.27h.005a9.995 9.995 0 018.189 4.262L300.19 414.261A9.999 9.999 0 01292.002 430zM29.193 410h243.591L150.853 235.993 29.193 410zM323.995 281.5a9.955 9.955 0 01-6.16-2.127l-19.951-15.622-17.265 15.245a9.998 9.998 0 01-15.528-2.954l-21.158-41.5c-2.509-4.92-.554-10.942 4.367-13.451 4.918-2.507 10.941-.554 13.451 4.367l15.299 30.009 13.831-12.213a9.998 9.998 0 0112.784-.377l18.987 14.867 17.676-20.512c3.604-4.183 9.918-4.654 14.103-1.048 4.185 3.604 4.653 9.919 1.048 14.103l-23.903 27.74a9.986 9.986 0 01-7.581 3.473zM110 180c-5.523 0-10-4.478-10-10V10c0-5.522 4.477-10 10-10s10 4.478 10 10v160c0 5.522-4.477 10-10 10z"/><path d="M110 60a9.97 9.97 0 01-7.071-2.929l-30-30c-3.905-3.905-3.905-10.237 0-14.143 3.905-3.904 10.237-3.904 14.143 0L110 35.857l22.929-22.929c3.905-3.904 10.237-3.904 14.143 0 3.905 3.905 3.905 10.237 0 14.143l-30 30A9.975 9.975 0 01110 60zM140 170a9.97 9.97 0 01-7.071-2.929L110 144.143l-22.929 22.929c-3.905 3.904-10.237 3.904-14.143 0-3.905-3.905-3.905-10.237 0-14.143l30-30c3.905-3.904 10.237-3.904 14.143 0l30 30c3.905 3.905 3.905 10.237 0 14.143A9.974 9.974 0 01140 170zM190 100H30c-5.523 0-10-4.478-10-10s4.477-10 10-10h160c5.523 0 10 4.478 10 10s-4.477 10-10 10z"/><path d="M180 130a9.97 9.97 0 01-7.071-2.929l-30-30c-3.905-3.905-3.905-10.237 0-14.143l30-30c3.905-3.904 10.237-3.904 14.143 0 3.905 3.905 3.905 10.237 0 14.143L164.142 90l22.929 22.929c3.905 3.905 3.905 10.237 0 14.143A9.974 9.974 0 01180 130zM40 130a9.97 9.97 0 01-7.071-2.929c-3.905-3.905-3.905-10.237 0-14.143L55.858 90 32.929 67.071c-3.905-3.905-3.905-10.237 0-14.143 3.905-3.904 10.237-3.904 14.143 0l30 30c3.905 3.905 3.905 10.237 0 14.143l-30 30A9.975 9.975 0 0140 130zM167.501 317.5a9.998 9.998 0 01-8.364-4.518l-10.538-16.073-15.938 12.467a10 10 0 01-15.101-3.395l-14.048-28.033c-2.474-4.938-.478-10.946 4.46-13.421 4.937-2.477 10.946-.478 13.421 4.46l8.573 17.107 14.875-11.636a10 10 0 0114.524 2.394l8.915 13.597 15.663-19.71c3.438-4.324 9.728-5.043 14.051-1.607 4.324 3.437 5.043 9.727 1.607 14.051l-24.271 30.54a10.01 10.01 0 01-7.829 3.777z"/></g></svg>