<svg width="100" height="70" xmlns="http://www.w3.org/2000/svg"><g fill="#FFF" fill-rule="nonzero"><path d="M97.5 55.051v-5.549C97.5 33.235 84.265 20 67.997 20H57.499v-3.288c6.939-1.051 13.105-2.844 15.038-5.739H9.5v2.57l.906.391c4.008 1.727 10.526 3.003 18.138 3.631V20H17.003C10.108 20 4.5 25.608 4.5 32.502V38h18.07v3H4.5v14H3.003A2.506 2.506 0 00.5 57.502v1.994A2.506 2.506 0 003.003 62h9.127c.724 4.525 4.644 8 9.37 8 4.726 0 8.646-3.475 9.37-8h34.76c.724 4.525 4.644 8 9.37 8 4.726 0 8.646-3.475 9.37-8H97.5v-.051c1.14-.234 2-1.244 2-2.453v-1.994c0-1.207-.86-2.219-2-2.451zM31.544 17.77c2.545.148 5.18.23 7.867.23 4.19 0 9.72-.244 15.088-.884V20H31.544v-2.23zM21.5 67a6.508 6.508 0 01-6.5-6.5c0-3.584 2.916-6.5 6.5-6.5s6.5 2.916 6.5 6.5-2.916 6.5-6.5 6.5zm8-29.166v-8.667c0-1.191.975-2.167 2.167-2.167h10.666c1.192 0 2.167.976 2.167 2.167v8.667A2.173 2.173 0 0142.333 40H31.667a2.173 2.173 0 01-2.167-2.166zM63.5 58h-31v-3h31v3zm0-20.166A2.173 2.173 0 0161.333 40H50.667a2.173 2.173 0 01-2.167-2.166v-8.667c0-1.191.975-2.167 2.167-2.167h10.666c1.192 0 2.167.976 2.167 2.167v8.667zM75 67a6.508 6.508 0 01-6.5-6.5c0-3.584 2.916-6.5 6.5-6.5s6.5 2.916 6.5 6.5S78.584 67 75 67zm-5.462-27c-1.121 0-2.038-.975-2.038-2.166v-8.667c0-1.191.917-2.167 2.038-2.167H82.47c4.017 3.364 7.167 7.848 9.03 13H69.538zM39.411 0c-12.07 0-23.185 1.559-29.005 4.066l-.906.392v3.515h63.494C70.97 1.702 50.503 0 39.411 0z"/><path d="M75 58a2.505 2.505 0 00-2.5 2.5c0 1.377 1.123 2.5 2.5 2.5s2.5-1.123 2.5-2.5S76.377 58 75 58zM21.5 58a2.505 2.505 0 00-2.5 2.5c0 1.377 1.123 2.5 2.5 2.5s2.5-1.123 2.5-2.5-1.123-2.5-2.5-2.5z"/></g></svg>