<svg width="56" height="45" xmlns="http://www.w3.org/2000/svg"><path d="M53.57 0H1.83A1.84 1.84 0 000 1.84v41.32A1.84 1.84 0 001.83 45h51.74a1.84 1.84 0 001.84-1.84V1.84A1.84 1.84 0 0053.57 0zM51.7 9.87h-9.49l6.2-6.2h3.29v6.2zm-39.66 0l6.2-6.2H28.7l-6.2 6.2H12.04zm21.81-6.2h9.33l-6.2 6.2H27.7l6.15-6.2zm-20.81 0l-6.2 6.2H3.7v-6.2h9.34zM3.7 41.33V13.5h48v27.83h-48zm19-4.77a1.84 1.84 0 01-1.84-1.84V20.2a1.84 1.84 0 012.76-1.59l12.57 7.26a1.84 1.84 0 010 3.18l-12.61 7.26a1.83 1.83 0 01-.88.24v.01zm1.8-13.17v8.11l7.06-4-7.06-4.11z" fill="#000" fill-rule="nonzero"/></svg>