<svg width="60" height="56" xmlns="http://www.w3.org/2000/svg"><g fill="#FFF" fill-rule="nonzero"><path d="M54.037 18.1a42.687 42.687 0 00-13.466-4.777L38.2 5.029a3.7 3.7 0 00-1.389-2A27.47 27.47 0 0032.066.442a5.09 5.09 0 00-4.128 0A27.5 27.5 0 0023.2 3.016a3.718 3.718 0 00-1.4 2.019l-2.369 8.288A42.715 42.715 0 005.964 18.1 16.977 16.977 0 00.51 22.736a2.9 2.9 0 00-.439 2.286 3.04 3.04 0 001.423 1.949c2.272 1.34 6.3 2.926 12.632 3.02-.72 4.315-.383 9.866 4.448 13.608-.313.206-.63.408-.94.617-1.039.73-2.118 1.4-3.234 2.006-1.625.843-2.866 1.015-3.795.532a1.844 1.844 0 01-.979-1.278 1.427 1.427 0 01.541-1.343 1.5 1.5 0 011.495-.268A1 1 0 1012.387 42a3.518 3.518 0 00-3.484.58 3.4 3.4 0 00-1.251 3.225 3.83 3.83 0 002.028 2.72 4.4 4.4 0 002.068.5A7.878 7.878 0 0015.32 48a35.1 35.1 0 003.432-2.123c.4-.272.813-.538 1.222-.8.028 1.839.41 5.469 2.78 8.065A9.363 9.363 0 0030 56a9.363 9.363 0 007.246-2.864c2.37-2.6 2.752-6.226 2.78-8.065.409.266.819.532 1.222.8A35.1 35.1 0 0044.68 48a7.881 7.881 0 003.573 1.028 4.394 4.394 0 002.066-.5 3.83 3.83 0 002.029-2.72 3.4 3.4 0 00-1.248-3.226A3.516 3.516 0 0047.613 42a1 1 0 00.727 1.863 1.492 1.492 0 011.494.268c.412.315.619.83.541 1.342a1.845 1.845 0 01-.98 1.279c-.929.485-2.17.312-3.794-.532a33.122 33.122 0 01-3.235-2.006c-.31-.209-.627-.411-.94-.617 4.831-3.742 5.168-9.293 4.448-13.608 6.334-.094 10.357-1.678 12.63-3.017a3.05 3.05 0 001.426-1.953 2.905 2.905 0 00-.442-2.29 16.987 16.987 0 00-5.451-4.629zM23.719 5.591c.104-.382.333-.717.651-.953a25.566 25.566 0 014.377-2.374 3.088 3.088 0 012.512 0 25.475 25.475 0 014.381 2.382c.312.233.537.563.639.939l.6 2.094A32.844 32.844 0 0030 7a32.844 32.844 0 00-6.878.679l.597-2.088zM22.488 9.9A28.347 28.347 0 0130 9a28.328 28.328 0 017.511.9l.867 3.033a98.068 98.068 0 00-3.5-.5l-.108-.014A43.077 43.077 0 0029.988 12c-1.591.05-3.179.188-4.755.414l-.108.014c-1.074.134-2.255.3-3.5.5l.863-3.028zm17.1 32.567a10.741 10.741 0 00-5.628-1.454 1 1 0 00-.96 1.034.987.987 0 001.038.962 8.314 8.314 0 013.976.9.963.963 0 00-.01.186c0 .048.4 4.807-2.235 7.7A7.451 7.451 0 0130 54a7.453 7.453 0 01-5.762-2.206c-2.633-2.873-2.246-7.657-2.242-7.7a.938.938 0 00-.011-.184 8.328 8.328 0 013.977-.9.975.975 0 001.038-.963 1 1 0 00-.961-1.037 10.733 10.733 0 00-5.627 1.454c-7.719-5.241-3.685-15.443-2.7-17.62A54.2 54.2 0 0130 23c4.154.141 8.279.76 12.292 1.844.98 2.163 5.042 12.366-2.703 17.62l-.001.003zm18.389-17.88c-.064.28-.241.52-.489.664-1.727 1.017-5.581 2.717-12.035 2.749a24.979 24.979 0 00-1.553-4.447c0-.007-.01-.011-.014-.017a.98.98 0 00-.144-.185.951.951 0 00-.1-.118 1.11 1.11 0 00-.139-.079 1.049 1.049 0 00-.205-.106c-.007 0-.012-.007-.019-.009A56.5 56.5 0 0030 21a56.5 56.5 0 00-13.275 2.039 1 1 0 00-.62.514A24.979 24.979 0 0014.547 28c-6.456-.029-10.31-1.73-12.038-2.749a1.03 1.03 0 01-.486-.66.916.916 0 01.138-.722 15.173 15.173 0 014.824-4.047 41.225 41.225 0 0113.242-4.6.952.952 0 00.314-.061c1.74-.32 3.388-.562 4.832-.742l.107-.013c1.494-.215 3-.349 4.508-.4 1.517.05 3.03.184 4.532.4l.108.014c1.429.179 3.058.417 4.779.732.12.054.25.083.383.086h.038a41.172 41.172 0 0113.19 4.594 15.206 15.206 0 014.82 4.043.92.92 0 01.139.712z"/><path d="M29.293 38.293l-1 1a1 1 0 101.414 1.414l.293-.293.293.293a1 1 0 001.414-1.414l-1-1a1 1 0 00-1.414 0zM27.243 35.829l-.076-.076A4.961 4.961 0 0027.9 34h.1a1 1 0 000-2h-.1a4.961 4.961 0 00-.732-1.753l.076-.076a1 1 0 10-1.414-1.414l-.076.076A4.961 4.961 0 0024 28.1V28a1 1 0 00-2 0v.1a4.961 4.961 0 00-1.753.732l-.076-.076a1 1 0 10-1.414 1.414l.076.076A4.961 4.961 0 0018.1 32H18a1 1 0 000 2h.1c.129.626.377 1.221.732 1.753l-.076.076a1 1 0 101.414 1.414l.076-.076A4.961 4.961 0 0022 37.9v.1a1 1 0 002 0v-.1a4.961 4.961 0 001.753-.732l.076.076a1 1 0 101.414-1.414v-.001zM23 36a3 3 0 110-6 3 3 0 010 6zM42 32h-.1a4.961 4.961 0 00-.732-1.753l.076-.076a1 1 0 10-1.414-1.414l-.076.076A4.961 4.961 0 0038 28.1V28a1 1 0 00-2 0v.1a4.961 4.961 0 00-1.753.732l-.076-.076a1 1 0 10-1.414 1.414l.076.076A4.961 4.961 0 0032.1 32H32a1 1 0 000 2h.1c.129.626.377 1.221.732 1.753l-.076.076a1 1 0 101.414 1.414l.076-.076A4.961 4.961 0 0036 37.9v.1a1 1 0 002 0v-.1a4.961 4.961 0 001.753-.732l.076.076a1 1 0 001.414-1.414l-.076-.076A4.961 4.961 0 0041.9 34h.1a1 1 0 000-2zm-5 4a3 3 0 110-6 3 3 0 010 6zM29.293 27.707a1 1 0 001.414 0l2-2a1 1 0 00-1.414-1.414L30 25.586l-1.293-1.293a1 1 0 00-1.414 1.414l2 2zM7.38 23.072a1.041 1.041 0 00-1.09.211 1.451 1.451 0 00-.12.149.776.776 0 00-.09.18.636.636 0 00-.06.18 1.355 1.355 0 00-.02.2 1 1 0 00.08.38c.05.121.122.233.21.33.192.183.445.286.71.29a1 1 0 00.38-.08c.121-.05.233-.122.33-.21.088-.097.16-.209.21-.33a1 1 0 00.08-.38 1.047 1.047 0 00-.29-.709 1.137 1.137 0 00-.33-.211zM13.38 20.072a1.041 1.041 0 00-1.09.211 1.451 1.451 0 00-.12.149.776.776 0 00-.09.18.636.636 0 00-.06.18 1.355 1.355 0 00-.02.2 1 1 0 00.08.38c.05.121.122.233.21.33.192.183.445.286.71.29a1 1 0 00.38-.08.9.9 0 00.54-.54 1 1 0 00.08-.38 1.047 1.047 0 00-.29-.709 1.137 1.137 0 00-.33-.211zM18.38 18.072a1.041 1.041 0 00-1.09.211 1.451 1.451 0 00-.12.149.776.776 0 00-.09.18.636.636 0 00-.06.18 1.355 1.355 0 00-.02.2 1 1 0 00.08.38c.05.121.122.233.21.33.192.183.445.286.71.29a1 1 0 00.38-.08.9.9 0 00.54-.54 1 1 0 00.08-.38 1.047 1.047 0 00-.29-.709 1.137 1.137 0 00-.33-.211zM24.38 16.08a1.041 1.041 0 00-1.09.21 1.576 1.576 0 00-.12.15.757.757 0 00-.09.18.636.636 0 00-.06.18 1.355 1.355 0 00-.02.2 1 1 0 00.08.38c.05.121.122.233.21.33.192.183.445.286.71.29a1 1 0 00.38-.08.9.9 0 00.54-.54A1 1 0 0025 17a1.052 1.052 0 00-.29-.71 1.155 1.155 0 00-.33-.21zM53.92 23.612a.776.776 0 00-.09-.18 1.451 1.451 0 00-.12-.149 1.041 1.041 0 00-1.09-.211c-.121.05-.233.122-.33.211a1.047 1.047 0 00-.29.709 1 1 0 00.08.38.9.9 0 00.54.54 1 1 0 00.38.08c.265-.004.518-.107.71-.29.088-.097.16-.209.21-.33a1 1 0 00.08-.38 1.355 1.355 0 00-.02-.2.636.636 0 00-.06-.18zM47.92 20.612a.776.776 0 00-.09-.18 1.451 1.451 0 00-.12-.149 1.041 1.041 0 00-1.09-.211c-.121.05-.233.122-.33.211a1.047 1.047 0 00-.29.709 1 1 0 00.08.38.9.9 0 00.54.54 1 1 0 00.38.08c.265-.004.518-.107.71-.29.088-.097.16-.209.21-.33a1 1 0 00.08-.38 1.355 1.355 0 00-.02-.2.636.636 0 00-.06-.18zM42.92 18.612a.776.776 0 00-.09-.18 1.451 1.451 0 00-.12-.149 1.041 1.041 0 00-1.09-.211c-.121.05-.233.122-.33.211a1.047 1.047 0 00-.29.709 1 1 0 00.08.38.9.9 0 00.54.54 1 1 0 00.38.08c.265-.004.518-.107.71-.29.088-.097.16-.209.21-.33a1 1 0 00.08-.38 1.355 1.355 0 00-.02-.2.636.636 0 00-.06-.18zM36.92 16.62a.757.757 0 00-.09-.18 1.576 1.576 0 00-.12-.15 1.041 1.041 0 00-1.09-.21c-.121.05-.233.122-.33.21A1.052 1.052 0 0035 17a1 1 0 00.08.38.9.9 0 00.54.54A1 1 0 0036 18c.265-.004.518-.107.71-.29.088-.097.16-.209.21-.33A1 1 0 0037 17a1.355 1.355 0 00-.02-.2.636.636 0 00-.06-.18zM30.38 16.08a1.041 1.041 0 00-1.09.21 1.576 1.576 0 00-.12.15.757.757 0 00-.09.18.636.636 0 00-.06.18 1.355 1.355 0 00-.02.2 1 1 0 00.08.38c.05.121.122.233.21.33.192.183.445.286.71.29a1 1 0 00.38-.08.9.9 0 00.54-.54A1 1 0 0031 17a1.052 1.052 0 00-.29-.71 1.155 1.155 0 00-.33-.21zM33 47h-2v-1a1 1 0 00-2 0v1h-2v-1a1 1 0 00-2 0v1a1 1 0 000 2 1 1 0 002 0h2a1 1 0 002 0h2a1 1 0 002 0 1 1 0 000-2v-1a1 1 0 00-2 0v1z"/></g></svg>