<svg width="42" height="60" xmlns="http://www.w3.org/2000/svg"><g fill="#FFF" fill-rule="nonzero"><path d="M1.155 59.369a3.026 3.026 0 004.216-.526L18 42.515V57a3 3 0 006 0V42.514l12.634 16.335A2.992 2.992 0 0039 60a3 3 0 002.367-4.847L27.449 37.37c.353-.369.55-.86.551-1.37v-2h2a1 1 0 002 0v-2a1 1 0 00-2 0h-2v-2a2 2 0 00-2-2h-1v-2a2 2 0 002-2v-2h5a4 4 0 004-4V8a4 4 0 00-4-4h-2V3a3 3 0 00-3-3H15a3 3 0 00-3 3v1h-2a4 4 0 00-4 4v10a4 4 0 004 4h5v2a2 2 0 002 2v2h-1a2 2 0 00-2 2v6c.001.51.198 1.001.551 1.37L.632 55.154a3.022 3.022 0 00.523 4.215zM22 57a1 1 0 01-2 0V39.929l1-1.293 1 1.293V57zm17.616.791a1.042 1.042 0 01-1.405-.173L23.037 38H25.4l14.392 18.385a1 1 0 01-.176 1.406zM8 10h1a1 1 0 011 1v4a1 1 0 01-1 1H8v-6zm2 10a2 2 0 01-2-2h1a3 3 0 003-3v-4a3 3 0 00-3-3H8a2 2 0 012-2h2a2 2 0 002-2V3a1 1 0 011-1h12a1 1 0 011 1v1a2 2 0 002 2h2a2 2 0 012 2v10a2 2 0 01-2 2H10zm15 2v2h-8v-2h8zm-6 4h4v2h-4v-2zm-3 4h10v6H16v-6zM2.207 56.386L16.6 38h2.366L3.8 57.608a1.003 1.003 0 11-1.59-1.222h-.003z"/><path d="M27 12a6 6 0 10-12 0 6 6 0 0012 0zm-10 0a4 4 0 118 0 4 4 0 01-8 0z"/><path d="M22 11a1 1 0 00-1-1 2 2 0 00-2 2 1 1 0 002 0 1 1 0 001-1zM30 10h1a1 1 0 000-2h-1a1 1 0 000 2zM23 32h-4a1 1 0 000 2h4a1 1 0 000-2z"/></g></svg>