<svg width="82" height="82" xmlns="http://www.w3.org/2000/svg"><g fill="#FFF" fill-rule="nonzero"><path d="M60.284 17L57 20.5l3.284 3.5L62 22.172 60.431 20.5 62 18.828z"/><path d="M71.42 44.182v-6.488l2.646-1.984A19.937 19.937 0 0082 19.839C82 8.899 73.1 0 62.161 0a26.269 26.269 0 00-13.01 3.455l-5.264 3.007L47.95 9.51a11.358 11.358 0 00-2.913 4.62l-.582 1.742h5.803v6.839A7.66 7.66 0 0148 28.162l-1.296 1.297 3.554 1.778v5.122a5.969 5.969 0 007.6 5.735l2.98-.852v5.733a18.407 18.407 0 00-7.82 13.103l-5.822-2.91-1.427-2.142a4.764 4.764 0 00-3.969-2.123 4.773 4.773 0 00-4.768 4.768c0 1.01.216 1.995.597 2.907a15.845 15.845 0 00-9.855-4.924v-2.75h6.678c4.34 0 7.87-3.53 7.87-7.871a6.58 6.58 0 00-.862-3.25l-4.428-7.748v-4.649l-1.002-.25a18.369 18.369 0 01-8.53-4.83l-.47-.468a7.897 7.897 0 002.067-5.322c0-4.376-3.56-7.935-7.936-7.935-2.84 0-5.659.939-7.935 2.645L3.008 20.89A7.558 7.558 0 000 26.904c0 1.742.596 3.366 1.616 4.658l-.26.39A8.041 8.041 0 000 36.43a8.014 8.014 0 003.264 6.467l-.293.882a6.319 6.319 0 005.302 8.289l6.03.67a11.86 11.86 0 01-.606 2.04l-.164.41a22.694 22.694 0 00-1.63 8.463C11.903 73.768 20.135 82 30.253 82c3.847 0 7.534-1.182 10.665-3.418l11.25-8.036.735.413V82H76.71V71.634a12.772 12.772 0 002.645-7.78v-6.047a15.58 15.58 0 00-7.936-13.625zM51.943 9.892l1.55-.774-1.183-2.366-1.55.775c-.207.103-.401.222-.6.337l-1.468-1.102 1.77-1.011a23.625 23.625 0 0111.698-3.106c9.48 0 17.194 7.713 17.194 17.194 0 5.383-2.57 10.525-6.876 13.755l-1.06.793v-5.29a5.296 5.296 0 005.29-5.29 5.296 5.296 0 00-5.29-5.29h-.133c-.615-3.015-3.286-5.291-6.48-5.291H48.343a8.715 8.715 0 013.601-3.333zm.96 21.85h.065a7.501 7.501 0 005.338-2.211 1.484 1.484 0 012.531 1.049 3.812 3.812 0 01-3.807 3.807h-4.128v-2.645zm10.58 8.744l3.007-.86-.726-2.543-8.632 2.466a3.325 3.325 0 01-4.16-2.517h4.058a6.459 6.459 0 006.453-6.453 4.132 4.132 0 00-4.128-4.127c-1.087 0-2.15.44-2.919 1.208a4.874 4.874 0 01-3.468 1.437h-1.076l-.87-.434a10.274 10.274 0 001.88-5.952v-6.84h11.903a3.973 3.973 0 013.968 3.968v1.322h2.645a2.648 2.648 0 012.646 2.645 2.648 2.648 0 01-2.646 2.646h-2.645v17.396l-.414.068c-1.728.289-3.36.819-4.876 1.533v-4.963zM40.843 65.748c-.302-.79-.66-1.547-1.076-2.267.12.1.232.205.357.296l1.967 1.106-1.248.865zm-6.456-34.322v3.313l1.596 2.795-.82.82H32.11l-1.323 3.969h-3.014v2.645h4.922L34.018 41h2.24l1.086-1.087 1.819 3.183c.336.589.514 1.26.514 1.937a5.23 5.23 0 01-5.225 5.225H22.484v2.645h2.645v2.645h-8.902c.636-1.665.967-3.41.967-5.192v-8.033h-2.646a2.648 2.648 0 01-2.645-2.646 2.648 2.648 0 012.645-2.645h2.646V31.22c0-1.77.636-3.503 1.761-4.858.289.05.58.09.884.09h1.322a7.89 7.89 0 003.783-.96l.685.685a21.026 21.026 0 008.758 5.249zM5.29 45.78c0-.397.064-.788.19-1.164l.156-.466 1.809.724.981-2.456-2.37-.948a5.404 5.404 0 01-3.41-5.04c0-1.075.314-2.116.91-3.01l.068-.102a7.524 7.524 0 002.071.881l.597.15.64-2.566-.597-.15a4.869 4.869 0 01-3.69-4.73 4.9 4.9 0 011.95-3.898l10.218-7.663a10.648 10.648 0 016.348-2.116 5.296 5.296 0 015.29 5.29 5.296 5.296 0 01-5.29 5.29H19.84a2.648 2.648 0 01-2.645-2.645 2.648 2.648 0 012.645-2.645h1.322v-2.645H19.84a5.296 5.296 0 00-5.29 5.29c0 1.646.77 3.1 1.952 4.07a10.307 10.307 0 00-1.953 5.989v3.167a5.296 5.296 0 00-5.29 5.29 5.296 5.296 0 005.29 5.29v5.136l-5.983-.665A3.677 3.677 0 015.29 45.78zm34.091 30.65a15.62 15.62 0 01-9.128 2.925c-8.66 0-15.705-7.046-15.705-15.704 0-1.859.262-3.685.762-5.457h10.721a13.2 13.2 0 0112.563 9.11l-3.953 2.737a7.707 7.707 0 01-4.41 1.378c-4.271 0-7.747-3.475-7.747-7.747v-.188h-2.645v.188c0 5.73 4.66 10.393 10.391 10.393a10.36 10.36 0 005.917-1.848l8.51-5.892 4.964 2.79-10.24 7.314zm16.167 2.925v-6.91l4.657 2.618A12.891 12.891 0 0066.5 76.71c2.83 0 5.44-.93 7.566-2.485v5.13H55.548zm10.951-5.29c-1.747 0-3.475-.453-4.998-1.309L41.631 61.6a4.94 4.94 0 01-1.954-3.928c0-1.17.953-2.123 2.123-2.123a2.12 2.12 0 011.767.946l1.817 2.726 17.927 8.963a5.64 5.64 0 002.506.591c2.982 0 5.405-2.349 5.57-5.29h5.323v.37c0 5.63-4.58 10.21-10.21 10.21zm10.21-13.226h-5.29v-7.936h-2.645v10.269a2.96 2.96 0 01-4.28 2.645l-8.924-4.462a15.798 15.798 0 0113.224-14.83l1.085-.18a12.959 12.959 0 016.83 11.462v3.032z"/><path d="M22 32.523l3.134.909-1.044 2.728 2.898.84L29 31.751 22.966 30z"/></g></svg>