<svg width="64" height="87" xmlns="http://www.w3.org/2000/svg"><path d="M61.419 45.396c-1.028-1.168-2.278-1.991-3.61-2.593 4.981-2.685 6.227-10.698 4.157-17.072-1.695-5.215-8.721-6.803-12.144-7.271.062-.58.102-1.164.102-1.754 0-9.218-7.5-16.718-16.718-16.718s-16.718 7.5-16.718 16.718c0 .537.034 1.066.084 1.593-1.349.119-3.266.455-5.574 1.322-5.404 2.03-6.793 9.835-7.105 12.352C.87 34.143.315 38.919.795 42.082c.151 1.001.669 1.78 1.497 2.252.381.217.81.349 1.275.422.389 1.773 1.417 4.983 3.997 7.065.259.209.528.398.804.574-.425 2.333-2.515 13.812-2.843 15.941-.301 1.957-1.217 7.913 3.78 9.986l4.264 1.659a9.948 9.948 0 00-.523 3.129c-.021.39-.016 1.683.846 2.613.528.57 1.247.872 2.079.872h13.986c.853 0 1.944-.335 2.696-1.127.063.086.124.174.199.255.527.57 1.246.872 2.079.872h13.986c1.435 0 3.568-.915 3.568-3.438 0-1.03-.158-2.025-.45-2.963l4.837-1.881c4.976-2.065 4.059-8.021 3.758-9.979-.278-1.806-1.775-10.076-2.477-13.929.066.002.129.013.195.013.563 0 1.163-.093 1.781-.323 1.405-.525 2.431-1.701 2.813-3.226.465-1.848-.09-3.845-1.523-5.473zM39.867 28.701c-.049.027-.09.063-.135.094-3.903-.041-7.964.264-11.689.647-.058-.034-.114-.07-.177-.097a13.7 13.7 0 01-5.701-4.5l21.86.29a13.704 13.704 0 01-4.158 3.566zm-27.813-6.273c2.229-.837 3.982-1.091 5.074-1.161a16.662 16.662 0 005.954 8.735l-1.074.13c-2.873.349-5.59.677-6.464.581l-.585-.066c-2.823-.318-4.805-.538-7.839.099.583-2.997 2.014-7.221 4.934-8.318zM6.6 33.95c3.259-.859 4.952-.667 8.023-.321l.59.066c1.17.131 3.259-.111 7.157-.584 7.778-.944 19.533-2.37 26.846-.131a1.5 1.5 0 10.879-2.868c-1.706-.522-3.614-.855-5.628-1.06a16.748 16.748 0 004.777-7.65c3.26.413 8.747 1.804 9.869 5.257 1.733 5.335.666 12.363-3.357 13.783-.942.333-2.512.613-4.513.818a.417.417 0 00-.035.004c-7.557.769-21.292.447-31.354-2.379-.614-.227-3.529-1.13-7.39.394l-1.058.423c-1.298.524-4.667 1.882-6.508 2.129-.068-.003-.137-.008-.208-.002-.064.006-.124.023-.186.038-.317.013-.571-.019-.714-.123 0 0-.017-.031-.029-.113-.42-2.769.183-6.983 2.839-7.681zm24.923 43.226a10.261 10.261 0 00-8.239-4.136c-2.415 0-4.633.834-6.386 2.221V53.192c1.369-.247 3.466-.535 6.335-.679 2.038-.1 5.021-.021 8.29.096v24.567zm-1.584 6.42l-13.866-.002a1.32 1.32 0 01-.032-.318l.004-.117c0-3.925 3.248-7.118 7.239-7.118 3.992 0 7.24 3.193 7.24 7.118 0 .154 0 .414-.585.437zm4.584-7.063V52.719c5.315.196 10.688.37 14.07-.016l.234-.046c.01-.003.302-.078.757-.155l-.814 22.865a10.265 10.265 0 00-6.524-2.327 10.262 10.262 0 00-7.723 3.493zm14.376 7.063l-13.866-.002a1.373 1.373 0 01-.032-.318l.005-.117c0-3.925 3.247-7.118 7.239-7.118s7.239 3.193 7.239 7.118c0 .154 0 .414-.585.437zm11.133-33.455c-.139.554-.486.971-.953 1.146-1.351.505-2.708-.62-2.712-.624l-.202-.148c-3.069-1.892-7.215-.98-8.015-.779-3.361.365-8.979.156-14.416-.047-4.141-.153-8.051-.299-10.65-.17-5.315.266-8.195 1.005-8.889 1.204-1.918.192-3.467-.208-4.735-1.226-1.703-1.367-2.503-3.556-2.862-4.967 1.719-.395 3.713-1.15 5.93-2.045l1.037-.416c3.065-1.209 5.161-.405 5.232-.377l.178.063c9.927 2.803 24.06 3.348 32.395 2.512 2.814.327 5.908.966 7.797 3.111.771.876 1.086 1.884.865 2.763z" fill="#FFF" fill-rule="nonzero"/></svg>