<svg width="85" height="85" xmlns="http://www.w3.org/2000/svg"><g fill="none" fill-rule="evenodd"><path d="M28.76 72.332a2.591 2.591 0 00-.007 3.66l.264.265a2.46 2.46 0 001.82.743 2.587 2.587 0 001.831-.76L38 70.909 34.093 67l-5.332 5.332zM28.987 62l-7.128 7.129-3.085 3.084a2.651 2.651 0 000 3.744l.269.269a2.65 2.65 0 003.744 0L33 66.012 28.987 62zM60.565 50.903a1.574 1.574 0 00-.443-.772l-5.757-5.54c-.12-.116-.334-.101-.423.04a3.055 3.055 0 00.448 3.806l3.612 3.476-.003.003c.07.067.265.35.3.42l.054.114-2.003 1.816-.396-.382L40.507 39.36a1.318 1.318 0 00-1.813 0l-.173.166c-.5.482-.5 1.263 0 1.745l6.97 6.708-.987 1.11-1.156 1.11-.083-.08-10.29-9.902a1.301 1.301 0 00-.906-.361c-.33 0-.657.12-.907.36l-.173.167a1.2 1.2 0 000 1.745l10.374 9.982-2.225 2.141-7.607-7.32a1.3 1.3 0 00-.906-.361c-.33 0-.658.12-.908.36l-.173.167a1.2 1.2 0 000 1.745l7.607 7.32-2.225 2.14-.002.002-4.559-4.387a1.328 1.328 0 00-1.823-.003l-.174.166a1.203 1.203 0 00.014 1.745h-.001l8.869 8.534 8.87 8.533c.566.213 2.735.835 6.918 1.844l.156.039.868.204.085.02c.222-.219.446-.435.669-.653a695.457 695.457 0 015.982-5.762c1.07-1.018 2.138-2.037 3.202-3.058l-2.993-12.744-.442-1.88z"/><path d="M74.889 29.348c-3.72-3.555-7.435-7.217-11.037-10.773A1966.19 1966.19 0 0058.187 13L31.62 18.866l-17.14 16.78c2.366 2.274 6.165 2.272 8.538.01l11.296-11.049c.127-.18.29-.34.482-.471l.18-.178.042.04c.935-.477 2.09-.15 2.613.754.271.47.613.912.985 1.34 1.688 1.937 4.338 3.417 7.426 4.063 2.963.62 5.76.318 7.297-.791.963-.693 2.356-.4 2.921.688.459.883.09 1.938-.74 2.506-1.676 1.148-3.991 1.75-6.565 1.75-1.2 0-2.459-.132-3.734-.4-3.799-.794-7.129-2.642-9.382-5.1-.061-.067-.118-.137-.177-.204l-9.873 9.656c-.034.033-.07.06-.104.092L5.821 57.783A2.71 2.71 0 005 59.736c0 .742.291 1.434.821 1.953l.287.28a2.867 2.867 0 003.991 0l11.086-10.846 2.711 2.652L7.301 70.01a2.708 2.708 0 00-.821 1.953c0 .74.29 1.434.82 1.952l.287.28a2.875 2.875 0 003.99 0l4.59-4.49.002-.002 3.288-3.216 7.622-7.457a1.515 1.515 0 01-.263-.81 4.295 4.295 0 01-.27-1.853 4.273 4.273 0 011.28-2.705l.177-.173c.32-.312.684-.546 1.063-.743l-.06-.058a4.284 4.284 0 010-6.152l.174-.17c.327-.32.7-.558 1.089-.757a4.275 4.275 0 01.189-5.926l.173-.17c1.736-1.698 4.55-1.698 6.287 0l.34.332c.2-.37.44-.726.76-1.038l.173-.17c1.736-1.698 4.552-1.698 6.287 0l7.833 7.664a6.22 6.22 0 011.673-2.888l1.104-1.08a1.165 1.165 0 011.621 0l5.837 5.71 1.858 1.818 6.858-6.71c.394-.875 1.636-5.08 3.329-11.701.108-.444.225-.906.341-1.366l.068-.273-.293-.287.182-.176z"/><path d="M75.426 25.652c-3.66-3.57-7.326-7.259-10.88-10.84-1.855-1.868-3.711-3.735-5.57-5.592l6.88-6.871L63.504 0l-8.212 8.202L28.685 14.2c-.04.008-.075.026-.114.038-.074.021-.148.042-.218.072-.055.024-.105.054-.157.083-.056.03-.113.06-.165.095-.061.041-.115.09-.17.139-.032.028-.068.05-.098.08L7.788 34.67l2.637 2.632a9.753 9.753 0 005.727 2.781L1.92 54.298a6.564 6.564 0 000 9.277l.283.283a6.517 6.517 0 002.414 1.523L3.38 66.616a6.56 6.56 0 000 9.277l.283.282a6.55 6.55 0 004.644 1.918c1.68 0 3.363-.64 4.643-1.918l.33-.33c.317.88.82 1.707 1.525 2.41l.283.283a6.529 6.529 0 004.644 1.915c1.758 0 3.408-.68 4.644-1.915l.782-.78a6.5 6.5 0 001.527 2.418l.285.285a6.498 6.498 0 004.627 1.907h.026a6.556 6.556 0 004.638-1.925l5.514-5.507a.017.017 0 01.005-.004l.236-.236 2.065 2.063c.112.111.238.194.37.265.04.02.077.046.12.063l.03.015c.604.29 2.216.829 7.324 2.114L57.72 85l1.102-1.101 1.102-1.101-3.868-3.864a604.607 604.607 0 016.776-6.787c.979-.967 1.954-1.936 2.93-2.906l3.868 3.864 1.103-1.102 1.101-1.1-5.033-5.027-2.942-12.995 7.925-7.915.004-.004.278-.278c.188-.187.327-.406.42-.639.433-.883 1.34-3.5 3.648-12.706.11-.457.222-.914.335-1.369l.126-.521c.03-.03.064-.053.091-.085.156-.183.257-.391.331-.607L85 20.783l-2.352-2.348-7.222 7.217zM21.702 75.866a2.791 2.791 0 01-3.938 0l-.283-.282a2.783 2.783 0 010-3.934l3.245-3.24 7.5-7.49 4.22 4.216-10.744 10.73zm11.886 1.904a2.79 2.79 0 01-1.978.818 2.659 2.659 0 01-1.963-.8l-.285-.286a2.79 2.79 0 01.008-3.945l5.754-5.747 4.218 4.212-5.754 5.748zm27.05-7.834a701.146 701.146 0 00-5.926 5.925l-.663.671a2.732 2.732 0 01-.084-.02l-.86-.21-.155-.04c-4.143-1.039-6.292-1.678-6.853-1.896l-8.786-8.775-8.786-8.775a1.27 1.27 0 01-.012-1.795l.172-.17a1.28 1.28 0 011.806.002l4.517 4.512.002-.002 2.204-2.201-7.536-7.527a1.267 1.267 0 010-1.794l.172-.171c.246-.248.572-.371.899-.371.325 0 .65.123.897.37l7.536 7.528 2.204-2.201L31.11 42.73a1.267 1.267 0 010-1.794l.171-.17c.247-.248.572-.372.899-.372.326 0 .65.124.898.371l10.195 10.182.082.082 1.144-1.143.979-1.14-6.905-6.898a1.268 1.268 0 010-1.794l.171-.171a1.272 1.272 0 011.796 0l15.303 14.934.392.393 1.984-1.867-.054-.118a3.082 3.082 0 00-.297-.43l.004-.004-3.578-3.574a3.23 3.23 0 01-.444-3.914c.088-.144.3-.16.42-.04l5.702 5.695c.219.219.371.493.44.795l.437 1.934 2.965 13.104a2485.76 2485.76 0 01-3.175 3.145zm12.156-40.87c-.114.463-.23.929-.337 1.376-1.672 6.67-2.897 10.907-3.285 11.789l-6.767 6.76-1.833-1.832-5.76-5.753a1.133 1.133 0 00-1.6 0l-1.09 1.088a6.298 6.298 0 00-1.65 2.91l-7.732-7.72a4.39 4.39 0 00-6.204 0l-.171.17a4.313 4.313 0 00-.75 1.046l-.335-.335a4.39 4.39 0 00-6.204 0l-.171.171c-1.639 1.638-1.69 4.25-.186 5.97-.384.2-.753.442-1.075.763l-.17.171a4.378 4.378 0 000 6.198l.058.058a4.335 4.335 0 00-1.049.75l-.175.173a4.345 4.345 0 00-1.262 2.725 4.41 4.41 0 00.266 1.866c.008.286.093.57.259.817l-7.522 7.512-3.244 3.24-.001.001-4.53 4.524a2.795 2.795 0 01-3.937 0l-.283-.282a2.756 2.756 0 01-.81-1.966c0-.748.287-1.445.81-1.968L22.43 52.932l-2.675-2.672L8.816 61.187a2.788 2.788 0 01-3.938 0l-.283-.283a2.756 2.756 0 01-.81-1.967c0-.747.287-1.445.81-1.967l19.6-19.576c.033-.032.069-.06.102-.092l9.74-9.729c.06.068.115.139.176.206 2.224 2.476 5.51 4.338 9.257 5.139 1.259.269 2.5.401 3.685.401 2.54 0 4.825-.605 6.479-1.762.818-.573 1.182-1.635.73-2.525a1.94 1.94 0 00-2.882-.693c-1.518 1.117-4.277 1.422-7.201.797-3.047-.65-5.663-2.142-7.328-4.094a8.742 8.742 0 01-.972-1.349 1.933 1.933 0 00-2.579-.759l-.038-.04-.178.179c-.19.133-.35.293-.476.475L21.564 34.679c-2.342 2.278-6.09 2.28-8.426-.01L30.05 17.764l26.217-5.91c1.868 1.866 3.73 3.742 5.59 5.617 3.554 3.582 7.22 7.27 10.892 10.853l-.18.178.29.29a38.16 38.16 0 01-.066.274z" fill="#FFF" fill-rule="nonzero"/></g></svg>