<svg width="81" height="68" xmlns="http://www.w3.org/2000/svg"><path d="M12.1 51H3.6c-1.7 0-3 1.3-3 3s1.3 3 3 3h8.5c6.5 0 12.7-2.8 17.1-7.6L39 38.5l9.8 10.9c4.4 4.8 10.6 7.6 17.1 7.6h3.6l-5.2 5.5c-1.1 1.2-1.1 3.1.1 4.2.6.5 1.3.8 2.1.8s1.6-.3 2.2-.9L80.5 54 68.7 41.4c-1.1-1.2-3-1.3-4.2-.1-1.2 1.1-1.3 3-.1 4.2l5.2 5.5H66c-4.8 0-9.4-2.1-12.6-5.6L43 34l10.2-11.4C56.4 19 61 17 65.8 17h3.6l-5.2 5.5c-1.1 1.2-1.1 3.1.1 4.2.6.5 1.3.8 2.1.8s1.6-.3 2.2-.9L80.5 14 68.7 1.4c-1.1-1.2-3-1.3-4.2-.1-1.2 1.1-1.3 3-.1 4.2l5.2 5.5H66c-6.5 0-12.7 2.8-17.1 7.6L39 29.5l-9.8-10.9C24.8 13.8 18.6 11 12.1 11H3.6c-1.7 0-3 1.3-3 3s1.3 3 3 3h8.5c4.8 0 9.4 2.1 12.6 5.6L35 34 24.7 45.4c-3.2 3.5-7.8 5.6-12.6 5.6z" fill="#FFF" fill-rule="nonzero"/></svg>