<svg xmlns="http://www.w3.org/2000/svg" xmlns:xlink="http://www.w3.org/1999/xlink" version="1.1" x="0px" y="0px" viewBox="0 0 160 200" style="enable-background:new 0 0 160 160;" xml:space="preserve"><path d="M146.177,115.356c-2.684-2.764-6.284-4.286-10.137-4.286s-7.453,1.522-10.137,4.286l-3.653,3.762  c-1.354,1.396-3.171,2.163-5.114,2.163c-1.944,0-3.761-0.768-5.115-2.163l-3.653-3.762c-2.684-2.764-6.284-4.286-10.137-4.286  s-7.453,1.522-10.137,4.286l-3.653,3.762c-1.354,1.396-3.171,2.163-5.114,2.163c-1.944,0-3.761-0.768-5.115-2.163l-3.653-3.762  c-2.684-2.764-6.284-4.286-10.137-4.286s-7.453,1.522-10.137,4.286l-3.654,3.763c-1.354,1.395-3.169,2.162-5.113,2.162  c-1.944,0-3.761-0.768-5.115-2.163l-3.653-3.762c-2.684-2.764-6.284-4.286-10.137-4.286c-3.853,0-7.453,1.522-10.162,4.312  l-6.581,6.916c-1.333,1.4-1.277,3.616,0.123,4.948c1.4,1.335,3.615,1.278,4.948-0.122l6.556-6.891  c1.354-1.396,3.17-2.163,5.115-2.163c1.944,0,3.76,0.768,5.115,2.163l3.653,3.762c2.684,2.764,6.284,4.286,10.137,4.286  c3.853,0,7.452-1.522,10.136-4.286l3.653-3.762c1.354-1.396,3.171-2.163,5.115-2.163s3.761,0.768,5.115,2.163l3.653,3.762  c2.684,2.764,6.283,4.286,10.137,4.286c3.853,0,7.452-1.522,10.136-4.286l3.653-3.762c1.354-1.396,3.171-2.163,5.115-2.163  s3.761,0.768,5.115,2.163l3.653,3.762c2.684,2.764,6.283,4.286,10.137,4.286c3.853,0,7.452-1.522,10.136-4.286l3.653-3.762  c1.354-1.396,3.171-2.163,5.115-2.163s3.761,0.768,5.115,2.163l6.716,6.916c1.348,1.387,3.561,1.417,4.949,0.072  c1.387-1.347,1.419-3.563,0.072-4.949L146.177,115.356z"/><path d="M154.442,87.338c-1.123-1.575-3.312-1.938-4.882-0.813c-6.164,4.403-13.448,6.454-22.925,6.454  c-24.103,0-30.533-15.364-30.533-24.443c0-7.648,4.952-12.979,9.396-12.979c3.835,0,7.019,1.309,9.731,4  c1.904,1.89,4.772,2.151,6.978,0.638c2.217-1.522,3.008-4.311,1.922-6.781c-3.561-8.103-13.089-21.694-36.901-21.694  c-18.306,0-34.891,10.921-43.247,28.432C34.047,79.819,22.86,89.966,7.708,93.049c-1.895,0.386-3.117,2.233-2.732,4.128  c0.337,1.658,1.796,2.803,3.426,2.803c0.231,0,0.466-0.023,0.702-0.071c17.214-3.503,30.282-15.133,41.16-36.672  c7.219-15.123,21.383-24.518,36.965-24.518c14.642,0,22.715,5.977,27.096,11.736c-2.687-1.263-5.637-1.898-8.825-1.898  c-9.041,0-16.396,8.962-16.396,19.979c0,15.145,11.745,31.443,37.533,31.443c11.007,0,19.585-2.466,26.993-7.759  C155.202,91.097,155.566,88.91,154.442,87.338z"/><text x="0" y="175" fill="#000000" font-size="5px" font-weight="bold" font-family="'Helvetica Neue', Helvetica, Arial-Unicode, Arial, Sans-serif">Created by Symbolon</text><text x="0" y="180" fill="#000000" font-size="5px" font-weight="bold" font-family="'Helvetica Neue', Helvetica, Arial-Unicode, Arial, Sans-serif">from the Noun Project</text></svg>