<svg xmlns="http://www.w3.org/2000/svg" xmlns:xlink="http://www.w3.org/1999/xlink" version="1.1" x="0px" y="0px" viewBox="0 0 100 125" enable-background="new 0 0 100 100" xml:space="preserve"><g><path d="M-122.362,710.157v-5.865c0-1.077-0.462-2.044-1.298-2.72c-0.831-0.674-1.886-0.926-2.935-0.702l-42.424,9.074h-1.343v66   h46.5c3.033,0,5.5-2.468,5.5-5.5v-55C-118.362,712.933-120.057,710.813-122.362,710.157z M-125.967,703.804   c0.126-0.026,0.221-0.061,0.419,0.101c0.134,0.107,0.186,0.217,0.186,0.388v5.652h-29.315L-125.967,703.804z M-121.362,770.444   c0,1.379-1.122,2.5-2.5,2.5h-43.5v-60h43.5c1.378,0,2.5,1.121,2.5,2.5V770.444z"/><path d="M-144.362,716.944c-9.098,0-16.5,7.402-16.5,16.5s7.402,16.5,16.5,16.5s16.5-7.402,16.5-16.5   S-135.264,716.944-144.362,716.944z M-136.396,731.944c-0.068-1.713-0.252-3.334-0.538-4.835c1.099-0.577,2.13-1.29,3.081-2.121   c1.571,1.949,2.612,4.34,2.903,6.956H-136.396z M-144.362,746.944c-1.236,0-2.807-1.941-3.856-5.299   c1.24-0.386,2.54-0.592,3.856-0.592c1.323,0,2.619,0.208,3.855,0.592C-141.555,745.003-143.126,746.944-144.362,746.944z    M-137.723,742.888c0.582,0.347,1.136,0.741,1.663,1.18c-0.889,0.696-1.862,1.287-2.909,1.745   C-138.499,744.946-138.077,743.973-137.723,742.888z M-149.756,745.813c-1.047-0.459-2.021-1.05-2.91-1.746   c0.525-0.436,1.083-0.824,1.667-1.171C-150.645,743.977-150.225,744.948-149.756,745.813z M-144.362,738.054   c-1.553,0-3.085,0.24-4.554,0.679c-0.205-1.163-0.352-2.425-0.413-3.788h9.933c-0.061,1.357-0.207,2.614-0.41,3.773   C-141.271,738.283-142.802,738.054-144.362,738.054z M-149.329,731.944c0.059-1.321,0.201-2.546,0.395-3.68   c1.475,0.44,3.011,0.681,4.571,0.681c1.566,0,3.104-0.232,4.573-0.67c0.193,1.131,0.334,2.352,0.393,3.669H-149.329z    M-144.362,719.944c1.248,0,2.839,1.979,3.887,5.398c-1.246,0.39-2.553,0.603-3.888,0.603c-1.329,0-2.636-0.216-3.886-0.608   C-147.2,721.921-145.609,719.944-144.362,719.944z M-151.035,724.095c-0.598-0.357-1.17-0.761-1.708-1.215   c0.909-0.723,1.91-1.332,2.987-1.804C-150.24,721.969-150.674,722.972-151.035,724.095z M-138.968,721.076   c1.073,0.47,2.07,1.077,2.977,1.796c-0.538,0.454-1.104,0.863-1.699,1.221C-138.051,722.971-138.485,721.968-138.968,721.076z    M-152.943,723.03l-1.788,2.101c0.908,0.772,1.9,1.422,2.943,1.969c-0.287,1.504-0.471,3.128-0.54,4.845h-5.446   C-157.376,728.368-155.582,725.208-152.943,723.03z M-157.774,734.944h5.446c0.07,1.756,0.26,3.419,0.559,4.951   c-1.09,0.569-2.122,1.251-3.06,2.06C-156.425,739.997-157.48,737.585-157.774,734.944z M-133.903,741.967   c-0.943-0.816-1.962-1.519-3.048-2.088c0.296-1.528,0.485-3.185,0.555-4.935h5.446   C-131.244,737.59-132.303,740.006-133.903,741.967z"/><rect x="-160.362" y="755.944" width="32" height="3"/><rect x="-152.362" y="760.945" width="15.999" height="3"/></g><g><path fill-rule="evenodd" clip-rule="evenodd" d="M97.5,70.051v-5.549C97.5,48.235,84.265,35,67.997,35H57.499v-3.288   c6.939-1.051,13.105-2.844,15.038-5.739H9.5v2.57l0.906,0.391c4.008,1.727,10.526,3.003,18.138,3.631V35H17.003   C10.108,35,4.5,40.608,4.5,47.502V53h18.07v3H4.5v14H3.003C1.623,70,0.5,71.123,0.5,72.502v1.994C0.5,75.877,1.623,77,3.003,77H4.5   h7.63c0.724,4.525,4.644,8,9.37,8s8.646-3.475,9.37-8h34.76c0.724,4.525,4.644,8,9.37,8s8.646-3.475,9.37-8h2.13h10.497H97.5   v-0.051c1.14-0.234,2-1.244,2-2.453v-1.994C99.5,71.295,98.64,70.283,97.5,70.051z M31.544,32.77   C34.089,32.918,36.724,33,39.411,33c4.19,0,9.72-0.244,15.088-0.884V35H31.544V32.77z M21.5,82c-3.584,0-6.5-2.916-6.5-6.5   s2.916-6.5,6.5-6.5s6.5,2.916,6.5,6.5S25.084,82,21.5,82z M29.5,52.834v-8.667c0-1.191,0.975-2.167,2.167-2.167h10.666   c1.192,0,2.167,0.976,2.167,2.167v8.667c0,1.191-0.975,2.166-2.167,2.166H31.667C30.475,55,29.5,54.025,29.5,52.834z M63.5,73h-31   v-3h31V73z M63.5,52.834c0,1.191-0.975,2.166-2.167,2.166H50.667c-1.192,0-2.167-0.975-2.167-2.166v-8.667   c0-1.191,0.975-2.167,2.167-2.167h10.666c1.192,0,2.167,0.976,2.167,2.167V52.834z M75,82c-3.584,0-6.5-2.916-6.5-6.5   S71.416,69,75,69s6.5,2.916,6.5,6.5S78.584,82,75,82z M69.538,55c-1.121,0-2.038-0.975-2.038-2.166v-8.667   c0-1.191,0.917-2.167,2.038-2.167H82.47c4.017,3.364,7.167,7.848,9.03,13H69.538z"/><path fill-rule="evenodd" clip-rule="evenodd" d="M39.411,15c-12.07,0-23.185,1.559-29.005,4.066L9.5,19.458v3.515h63.494   C70.97,16.702,50.503,15,39.411,15z"/><path fill-rule="evenodd" clip-rule="evenodd" d="M75,73c-1.377,0-2.5,1.123-2.5,2.5S73.623,78,75,78s2.5-1.123,2.5-2.5   S76.377,73,75,73z"/><path fill-rule="evenodd" clip-rule="evenodd" d="M21.5,73c-1.377,0-2.5,1.123-2.5,2.5s1.123,2.5,2.5,2.5s2.5-1.123,2.5-2.5   S22.877,73,21.5,73z"/></g><text x="0" y="115" fill="#000000" font-size="5px" font-weight="bold" font-family="'Helvetica Neue', Helvetica, Arial-Unicode, Arial, Sans-serif">Created by Nikita Kozin</text><text x="0" y="120" fill="#000000" font-size="5px" font-weight="bold" font-family="'Helvetica Neue', Helvetica, Arial-Unicode, Arial, Sans-serif">from the Noun Project</text></svg>