<svg xmlns="http://www.w3.org/2000/svg" xmlns:xlink="http://www.w3.org/1999/xlink" viewBox="0 0 42 75" version="1.1" x="0px" y="0px"><title>006 - Camera On Tripod</title><desc>Created with Sketch.</desc><g stroke="none" stroke-width="1" fill="none" fill-rule="evenodd"><g fill="#000000" fill-rule="nonzero"><path d="M1.155,59.369 C2.46784688,60.3755992 4.34572013,60.1413105 5.371,58.843 L18,42.515 L18,57 C18,58.6568542 19.3431458,60 21,60 C22.6568542,60 24,58.6568542 24,57 L24,42.514 L36.634,58.849 C37.2026015,59.5774568 38.0759049,60.0022971 39,60 C40.1475226,60.0011403 41.1951645,59.3475835 41.6987142,58.3164447 C42.2022639,57.285306 42.0734923,56.0572555 41.367,55.153 L27.449,37.37 C27.8017471,37.0010123 27.9990375,36.5104718 28,36 L28,34 L30,34 C30,34.5522847 30.4477153,35 31,35 C31.5522847,35 32,34.5522847 32,34 L32,32 C32,31.4477153 31.5522847,31 31,31 C30.4477153,31 30,31.4477153 30,32 L28,32 L28,30 C28,28.8954305 27.1045695,28 26,28 L25,28 L25,26 C26.1045695,26 27,25.1045695 27,24 L27,22 L32,22 C34.209139,22 36,20.209139 36,18 L36,8 C36,5.790861 34.209139,4 32,4 L30,4 L30,3 C30,1.34314575 28.6568542,1.01453063e-16 27,0 L15,0 C13.3431458,-1.01453063e-16 12,1.34314575 12,3 L12,4 L10,4 C7.790861,4 6,5.790861 6,8 L6,18 C6,20.209139 7.790861,22 10,22 L15,22 L15,24 C15,25.1045695 15.8954305,26 17,26 L17,28 L16,28 C14.8954305,28 14,28.8954305 14,30 L14,36 C14.0009625,36.5104718 14.1982529,37.0010123 14.551,37.37 L0.632,55.154 C-0.376863368,56.465285 -0.143745614,58.3440447 1.155,59.369 Z M22,57 C22,57.5522847 21.5522847,58 21,58 C20.4477153,58 20,57.5522847 20,57 L20,39.929 L21,38.636 L22,39.929 L22,57 Z M39.616,57.791 C39.174363,58.1091379 38.5622697,58.0337698 38.211,57.618 L23.037,38 L25.4,38 L39.792,56.385 C39.9556156,56.5945929 40.0290229,56.8607172 39.9959967,57.1245515 C39.9629705,57.3883858 39.8262304,57.6282043 39.616,57.791 L39.616,57.791 Z M8,10 L9,10 C9.55228475,10 10,10.4477153 10,11 L10,15 C10,15.5522847 9.55228475,16 9,16 L8,16 L8,10 Z M10,20 C8.8954305,20 8,19.1045695 8,18 L9,18 C10.6568542,18 12,16.6568542 12,15 L12,11 C12,9.34314575 10.6568542,8 9,8 L8,8 C8,6.8954305 8.8954305,6 10,6 L12,6 C13.1045695,6 14,5.1045695 14,4 L14,3 C14,2.44771525 14.4477153,2 15,2 L27,2 C27.5522847,2 28,2.44771525 28,3 L28,4 C28,5.1045695 28.8954305,6 30,6 L32,6 C33.1045695,6 34,6.8954305 34,8 L34,18 C34,19.1045695 33.1045695,20 32,20 L10,20 Z M25,22 L25,24 L17,24 L17,22 L25,22 Z M19,26 L23,26 L23,28 L19,28 L19,26 Z M16,30 L26,30 L26,36 L16,36 L16,30 Z M2.207,56.386 L16.6,38 L18.966,38 L3.8,57.608 C3.46255402,58.0470664 2.83306638,58.129446 2.394,57.792 C1.95493362,57.454554 1.87255402,56.8250664 2.21,56.386 L2.207,56.386 Z"/><path d="M27,12 C27,8.6862915 24.3137085,6 21,6 C17.6862915,6 15,8.6862915 15,12 C15,15.3137085 17.6862915,18 21,18 C24.3123376,17.9966926 26.9966926,15.3123376 27,12 L27,12 Z M17,12 C17,9.790861 18.790861,8 21,8 C23.209139,8 25,9.790861 25,12 C25,14.209139 23.209139,16 21,16 C18.790861,16 17,14.209139 17,12 Z"/><path d="M22,11 C22,10.4477153 21.5522847,10 21,10 C19.8954305,10 19,10.8954305 19,12 C19,12.5522847 19.4477153,13 20,13 C20.5522847,13 21,12.5522847 21,12 C21.5522847,12 22,11.5522847 22,11 Z"/><path d="M30,10 L31,10 C31.5522847,10 32,9.55228475 32,9 C32,8.44771525 31.5522847,8 31,8 L30,8 C29.4477153,8 29,8.44771525 29,9 C29,9.55228475 29.4477153,10 30,10 Z"/><path d="M23,32 L19,32 C18.4477153,32 18,32.4477153 18,33 C18,33.5522847 18.4477153,34 19,34 L23,34 C23.5522847,34 24,33.5522847 24,33 C24,32.4477153 23.5522847,32 23,32 Z"/></g></g><text x="0" y="75" fill="#000000" font-size="5px" font-weight="bold" font-family="'Helvetica Neue', Helvetica, Arial-Unicode, Arial, Sans-serif">Created by Juicy Fish</text><text x="0" y="80" fill="#000000" font-size="5px" font-weight="bold" font-family="'Helvetica Neue', Helvetica, Arial-Unicode, Arial, Sans-serif">from the Noun Project</text></svg>