<svg xmlns="http://www.w3.org/2000/svg" xmlns:xlink="http://www.w3.org/1999/xlink" version="1.1" x="0px" y="0px" viewBox="0 0 512 640" style="enable-background:new 0 0 512 512;" xml:space="preserve"><g><g><g><g><path d="M486,471H308.002c-3.262,0-6.318-1.591-8.189-4.262L213.716,343.87      c-2.412-3.441-2.414-8.024-0.006-11.469l89.897-128.577c1.871-2.676,4.931-4.27,8.195-4.27c0.007,0,0.015,0,0.021,0      c3.272,0.007,6.335,1.615,8.198,4.306L494.22,455.306c2.119,3.058,2.365,7.038,0.639,10.334C493.133,468.935,489.72,471,486,471      z M313.205,451h153.702L311.765,227.061l-77.653,111.064L313.205,451z"/></g><g><path d="M308.002,471H26c-3.728,0-7.146-2.073-8.869-5.38c-1.722-3.306-1.463-7.295,0.673-10.351      l140.844-201.445c1.87-2.674,4.927-4.268,8.19-4.27c0.002,0,0.004,0,0.005,0c3.262,0,6.318,1.59,8.189,4.262l141.158,201.445      c2.141,3.054,2.403,7.046,0.682,10.354S311.731,471,308.002,471z M45.193,451h243.591L166.853,276.993L45.193,451z"/></g><g><path d="M339.995,322.5c-2.161,0-4.334-0.696-6.16-2.127l-19.951-15.622l-17.265,15.245      c-2.317,2.047-5.449,2.905-8.488,2.328c-3.037-0.578-5.636-2.528-7.04-5.282l-21.158-41.5      c-2.509-4.92-0.554-10.942,4.367-13.451c4.918-2.507,10.941-0.554,13.451,4.367l15.299,30.009l13.831-12.213      c3.614-3.19,8.988-3.351,12.784-0.377l18.987,14.867l17.676-20.512c3.604-4.183,9.918-4.654,14.103-1.048      c4.185,3.604,4.653,9.919,1.048,14.103l-23.903,27.74C345.603,321.316,342.809,322.5,339.995,322.5z"/></g><g><g><g><path d="M126,221c-5.523,0-10-4.478-10-10V51c0-5.522,4.477-10,10-10s10,4.478,10,10v160        C136,216.522,131.523,221,126,221z"/></g><g><path d="M126,101c-2.559,0-5.119-0.977-7.071-2.929l-30-30c-3.905-3.905-3.905-10.237,0-14.143        c3.905-3.904,10.237-3.904,14.143,0L126,76.857l22.929-22.929c3.905-3.904,10.237-3.904,14.143,0        c3.905,3.905,3.905,10.237,0,14.143l-30,30C131.119,100.023,128.559,101,126,101z"/></g><g><path d="M156,211c-2.559,0-5.119-0.977-7.071-2.929L126,185.143l-22.929,22.929        c-3.905,3.904-10.237,3.904-14.143,0c-3.905-3.905-3.905-10.237,0-14.143l30-30c3.905-3.904,10.237-3.904,14.143,0l30,30        c3.905,3.905,3.905,10.237,0,14.143C161.119,210.023,158.559,211,156,211z"/></g><g><path d="M206,141H46c-5.523,0-10-4.478-10-10s4.477-10,10-10h160c5.523,0,10,4.478,10,10        S211.523,141,206,141z"/></g><g><path d="M196,171c-2.559,0-5.119-0.977-7.071-2.929l-30-30c-3.905-3.905-3.905-10.237,0-14.143l30-30        c3.905-3.904,10.237-3.904,14.143,0c3.905,3.905,3.905,10.237,0,14.143L180.142,131l22.929,22.929        c3.905,3.905,3.905,10.237,0,14.143C201.119,170.023,198.559,171,196,171z"/></g><g><path d="M56,171c-2.559,0-5.119-0.977-7.071-2.929c-3.905-3.905-3.905-10.237,0-14.143L71.858,131        l-22.929-22.929c-3.905-3.905-3.905-10.237,0-14.143c3.905-3.904,10.237-3.904,14.143,0l30,30        c3.905,3.905,3.905,10.237,0,14.143l-30,30C61.119,170.023,58.559,171,56,171z"/></g></g></g><g><path d="M183.501,358.5c-0.152,0-0.304-0.004-0.457-0.011c-3.206-0.146-6.147-1.822-7.907-4.507      l-10.538-16.073l-15.938,12.467c-2.362,1.85-5.428,2.54-8.355,1.88c-2.926-0.657-5.402-2.595-6.746-5.275l-14.048-28.033      c-2.474-4.938-0.478-10.946,4.46-13.421c4.937-2.477,10.946-0.478,13.421,4.46l8.573,17.107l14.875-11.636      c2.204-1.724,5.025-2.443,7.787-1.991c2.76,0.455,5.203,2.045,6.737,4.385l8.915,13.597l15.663-19.71      c3.438-4.324,9.728-5.043,14.051-1.607c4.324,3.437,5.043,9.727,1.607,14.051l-24.271,30.54      C189.427,357.114,186.541,358.5,183.501,358.5z"/></g><g><path d="M406,191c-27.57,0-50-22.43-50-50s22.43-50,50-50s50,22.43,50,50S433.57,191,406,191z M406,111      c-16.542,0-30,13.458-30,30s13.458,30,30,30s30-13.458,30-30S422.542,111,406,111z"/></g></g></g></g><text x="0" y="527" fill="#000000" font-size="5px" font-weight="bold" font-family="'Helvetica Neue', Helvetica, Arial-Unicode, Arial, Sans-serif">Created by Icon Market</text><text x="0" y="532" fill="#000000" font-size="5px" font-weight="bold" font-family="'Helvetica Neue', Helvetica, Arial-Unicode, Arial, Sans-serif">from the Noun Project</text></svg>