<svg xmlns="http://www.w3.org/2000/svg" data-name="Layer 69" viewBox="0 0 100 125" x="0px" y="0px"><path d="M36.41,61.54v-2.9H10.25V95h8.23V76.4a8.65,8.65,0,0,1,17.3,0V95h3.49V63H37.91A1.5,1.5,0,0,1,36.41,61.54Z"/><path d="M40.45,49.54V35.82H13.81V49.54h9.27V42.45a4.05,4.05,0,1,1,8.1,0v7.09Z"/><path d="M24.08,22.3a3.05,3.05,0,0,1,6.1,0v4.41h6.76V16.5H17.32V26.71h6.76Z"/><polygon points="30.25 5 24.01 5 17.32 15 36.94 15 30.25 5"/><path d="M40.77,95H46V76.4a8.65,8.65,0,0,1,17.3,0V95H67.2V76.4a8.65,8.65,0,1,1,17.3,0V95h5.2V63H40.77Z"/><path d="M54.62,69.25a7.15,7.15,0,0,0-7.15,7.15V95h14.3V76.4A7.15,7.15,0,0,0,54.62,69.25Z"/><path d="M27.13,69.25A7.15,7.15,0,0,0,20,76.4V95h14.3V76.4A7.15,7.15,0,0,0,27.13,69.25Z"/><path d="M24.58,42.45v7.09h5.1V42.45a2.55,2.55,0,1,0-5.1,0Z"/><path d="M25.58,22.3v4.41h3.1V22.3a1.55,1.55,0,0,0-3.1,0Z"/><rect x="63.45" y="22.85" width="3.57" height="5.89"/><path d="M69.4,33.08V30.24H61.07v2.84a34.82,34.82,0,0,1,8.33,0Z"/><path d="M37.91,55.64h1.5a31.69,31.69,0,0,1,1-4.6H7.44v6.1h29A1.5,1.5,0,0,1,37.91,55.64Z"/><polygon points="40.45 34.32 43.48 34.32 43.48 28.21 36.94 28.21 17.32 28.21 10.78 28.21 10.78 34.32 13.81 34.32 40.45 34.32"/><path d="M75.85,69.25A7.15,7.15,0,0,0,68.7,76.4V95H83V76.4A7.15,7.15,0,0,0,75.85,69.25Z"/><path d="M89.56,55.64c-.65-5.09-4.3-21.31-24.32-21.31S41.56,50.55,40.91,55.64Z"/><polygon points="37.91 57.14 37.91 61.54 40.77 61.54 89.7 61.54 92.56 61.54 92.56 57.14 46.82 57.14 37.91 57.14"/><text x="0" y="115" fill="#000000" font-size="5px" font-weight="bold" font-family="'Helvetica Neue', Helvetica, Arial-Unicode, Arial, Sans-serif">Created by Lars Meiertoberens</text><text x="0" y="120" fill="#000000" font-size="5px" font-weight="bold" font-family="'Helvetica Neue', Helvetica, Arial-Unicode, Arial, Sans-serif">from the Noun Project</text></svg>