<svg xmlns="http://www.w3.org/2000/svg" xmlns:xlink="http://www.w3.org/1999/xlink" version="1.1" x="0px" y="0px" viewBox="0 0 100 125" enable-background="new 0 0 100 100" xml:space="preserve"><g><path fill="none" d="M23.088,26.997c-0.461-0.167-1.196,0.001-1.676,0.047c-1.041,0.101-2.074,0.295-3.076,0.598   c-3.17,0.956-5.867,3.025-7.678,5.788c-0.248,0.378-2.733,4.393-1.153,4.393c0.687,0,1.238-1.367,1.601-1.9   c0.352-0.518,0.722-1.023,1.118-1.508c1.114-1.361,2.435-2.546,3.912-3.502c2.086-1.35,4.442-2.233,6.862-2.764   C23.559,28.025,23.638,27.197,23.088,26.997z"/><path fill="none" d="M79.865,26.997c-0.461-0.167-1.195,0.001-1.676,0.047c-1.041,0.101-2.074,0.295-3.076,0.598   c-3.17,0.956-5.867,3.025-7.678,5.788c-0.248,0.378-2.732,4.393-1.152,4.393c0.686,0,1.238-1.367,1.6-1.9   c0.352-0.518,0.723-1.023,1.119-1.508c1.113-1.361,2.434-2.546,3.912-3.502c2.086-1.35,4.441-2.233,6.861-2.764   C80.336,28.025,80.416,27.197,79.865,26.997z"/><path fill="#000000" d="M95,40.599c0-9.324-7.559-16.883-16.884-16.883s-16.883,7.559-16.883,16.883   c0,1.17,0.119,2.313,0.346,3.415c-3.71-1.64-7.74-2.602-11.96-2.602c-3.911,0-7.661,0.823-11.143,2.248   c0.182-0.994,0.291-2.015,0.291-3.062c0-9.324-7.56-16.883-16.885-16.883C12.56,23.716,5,31.274,5,40.599S12.56,57.48,21.883,57.48   c0.02,0,0.037-0.003,0.057-0.003c-3.397,5.111-5.379,10.782-5.379,15.973c0,0.957,16.945,2.834,33.973,2.834   c17.282,0,32.144-2.076,32.144-2.834c0-5.203-1.991-10.89-5.404-16.012c0.281,0.015,0.559,0.043,0.844,0.043   C87.441,57.481,95,49.923,95,40.599z M22.998,28.148c-2.42,0.53-4.776,1.414-6.862,2.764c-1.478,0.956-2.798,2.141-3.912,3.502   c-0.396,0.484-0.767,0.99-1.118,1.508c-0.362,0.533-0.914,1.9-1.601,1.9c-1.58,0,0.905-4.015,1.153-4.393   c1.811-2.763,4.508-4.832,7.678-5.788c1.002-0.303,2.035-0.497,3.076-0.598c0.479-0.046,1.215-0.214,1.676-0.047   C23.638,27.197,23.559,28.025,22.998,28.148z M72.914,30.912c-1.479,0.956-2.799,2.141-3.912,3.502   c-0.396,0.484-0.768,0.99-1.119,1.508c-0.361,0.533-0.914,1.9-1.6,1.9c-1.58,0,0.904-4.015,1.152-4.393   c1.811-2.763,4.508-4.832,7.678-5.788c1.002-0.303,2.035-0.497,3.076-0.598c0.48-0.046,1.215-0.214,1.676-0.047   c0.551,0.2,0.471,1.028-0.09,1.151C77.355,28.679,75,29.563,72.914,30.912z"/></g><text x="0" y="115" fill="#000000" font-size="5px" font-weight="bold" font-family="'Helvetica Neue', Helvetica, Arial-Unicode, Arial, Sans-serif">Created by Jonathan Lutaster</text><text x="0" y="120" fill="#000000" font-size="5px" font-weight="bold" font-family="'Helvetica Neue', Helvetica, Arial-Unicode, Arial, Sans-serif">from the Noun Project</text></svg>