<svg xmlns="http://www.w3.org/2000/svg" xmlns:xlink="http://www.w3.org/1999/xlink" version="1.1" x="0px" y="0px" viewBox="0 0 100 125" style="enable-background:new 0 0 100 100;" xml:space="preserve"><g><path d="M22.1,67h-8.5c-1.7,0-3,1.3-3,3s1.3,3,3,3h8.5c6.5,0,12.7-2.8,17.1-7.6L49,54.5l9.8,10.9c4.4,4.8,10.6,7.6,17.1,7.6h3.6   l-5.2,5.5c-1.1,1.2-1.1,3.1,0.1,4.2c0.6,0.5,1.3,0.8,2.1,0.8c0.8,0,1.6-0.3,2.2-0.9L90.5,70L78.7,57.4c-1.1-1.2-3-1.3-4.2-0.1   c-1.2,1.1-1.3,3-0.1,4.2l5.2,5.5h-3.6c-4.8,0-9.4-2.1-12.6-5.6L53,50l10.2-11.4c3.2-3.6,7.8-5.6,12.6-5.6h3.6l-5.2,5.5   c-1.1,1.2-1.1,3.1,0.1,4.2c0.6,0.5,1.3,0.8,2.1,0.8c0.8,0,1.6-0.3,2.2-0.9L90.5,30L78.7,17.4c-1.1-1.2-3-1.3-4.2-0.1   c-1.2,1.1-1.3,3-0.1,4.2l5.2,5.5h-3.6c-6.5,0-12.7,2.8-17.1,7.6L49,45.5l-9.8-10.9C34.8,29.8,28.6,27,22.1,27h-8.5   c-1.7,0-3,1.3-3,3s1.3,3,3,3h8.5c4.8,0,9.4,2.1,12.6,5.6L45,50L34.7,61.4C31.5,64.9,26.9,67,22.1,67z"/></g><text x="0" y="115" fill="#000000" font-size="5px" font-weight="bold" font-family="'Helvetica Neue', Helvetica, Arial-Unicode, Arial, Sans-serif">Created by Ananth</text><text x="0" y="120" fill="#000000" font-size="5px" font-weight="bold" font-family="'Helvetica Neue', Helvetica, Arial-Unicode, Arial, Sans-serif">from the Noun Project</text></svg>