<svg xmlns="http://www.w3.org/2000/svg" xmlns:xlink="http://www.w3.org/1999/xlink" viewBox="0 0 60 70" version="1.1" x="0px" y="0px"><title>015 - Skull</title><desc>Created with Sketch.</desc><g stroke="none" stroke-width="1" fill="none" fill-rule="evenodd"><g transform="translate(-1.000000, 0.000000)" fill="#000000" fill-rule="nonzero"><path d="M55.037,18.1 C50.8485985,15.7624163 46.2961732,14.1474649 41.571,13.323 L39.2,5.029 C38.9759159,4.22471128 38.486393,3.51985465 37.811,3.029 C36.3182115,2.01279738 34.7288551,1.14627155 33.066,0.442 C31.7517555,-0.141011257 30.2522445,-0.141011257 28.938,0.442 C27.2781609,1.14272127 25.6912012,2.00486444 24.2,3.016 C23.5180283,3.51091136 23.0243959,4.22279984 22.8,5.035 L20.431,13.323 C15.7056182,14.1478747 11.1529311,15.7627991 6.964,18.1 C4.83717499,19.2401475 2.97785167,20.8206064 1.51,22.736 C1.05084744,23.4032571 0.891671929,24.23213 1.071,25.022 C1.256116,25.8401716 1.77108054,26.5454884 2.494,26.971 C4.766,28.311 8.794,29.897 15.126,29.991 C14.406,34.306 14.743,39.857 19.574,43.599 C19.261,43.805 18.944,44.007 18.634,44.216 C17.5953366,44.9460948 16.5155548,45.6158667 15.4,46.222 C13.775,47.065 12.534,47.237 11.605,46.754 C11.1001214,46.5004654 10.7393268,46.0294792 10.626,45.476 C10.5489734,44.9632948 10.7560866,44.4491486 11.167,44.133 C11.5799368,43.779329 12.1519238,43.6767922 12.662,43.865 C12.9951502,43.9945088 13.3720857,43.9364464 13.6508187,43.7126842 C13.9295517,43.4889221 14.0677359,43.1334551 14.0133187,42.7801842 C13.9589015,42.4269133 13.7201502,42.1295088 13.387,42 C12.2057308,41.5541165 10.8761056,41.7754663 9.903,42.58 C8.9294486,43.3466965 8.45013022,44.5823494 8.652,45.805 C8.86764012,46.9779642 9.61738075,47.9835335 10.68,48.525 C11.3180523,48.8583275 12.0281438,49.0300131 12.748,49.025 C14.003368,48.9730664 15.2281065,48.6216227 16.32,48 C17.5037683,47.3587381 18.6496617,46.6499002 19.752,45.877 C20.152,45.605 20.565,45.339 20.974,45.077 C21.002,46.916 21.384,50.546 23.754,53.142 C25.6396266,55.1018173 28.2842178,56.1449089 31,56 C33.7167117,56.1433594 36.3614455,55.0980216 38.246,53.136 C40.616,50.536 40.998,46.91 41.026,45.071 C41.435,45.337 41.845,45.603 42.248,45.871 C43.3501897,46.6459492 44.4960861,47.3567923 45.68,48 C46.7719708,48.6227166 47.9970592,48.975191 49.253,49.028 C49.9722089,49.0329303 50.6816329,48.8612401 51.319,48.528 C52.3820031,47.9867707 53.1321425,46.9811625 53.348,45.808 C53.5509443,44.5855911 53.0727817,43.3495713 52.1,42.582 C51.1267995,41.7752725 49.7954444,41.5530618 48.613,42 C48.1059943,42.2056296 47.8583646,42.7805307 48.0572595,43.290216 C48.2561544,43.7999012 48.8277246,44.0551253 49.34,43.863 C49.8496295,43.6734204 50.4220412,43.776102 50.834,44.131 C51.2456336,44.4461547 51.45297,44.9604716 51.375,45.473 C51.2615948,46.0269865 50.9004065,46.4983741 50.395,46.752 C49.466,47.237 48.225,47.064 46.601,46.22 C45.4851039,45.6139 44.4049874,44.9441276 43.366,44.214 C43.056,44.005 42.739,43.803 42.426,43.597 C47.257,39.855 47.594,34.304 46.874,29.989 C53.208,29.895 57.231,28.311 59.504,26.972 C60.2281261,26.5452923 60.7440687,25.8386753 60.93,25.019 C61.1090056,24.2274375 60.9487365,23.3970839 60.488,22.729 C59.0200559,20.8166818 57.1618854,19.2387197 55.037,18.1 Z M24.719,5.591 C24.823002,5.20932369 25.0522795,4.87368394 25.37,4.638 C26.7482789,3.70613233 28.21423,2.91102886 29.747,2.264 C30.5465026,1.90803947 31.4594974,1.90803947 32.259,2.264 C33.7937183,2.91281643 35.2610799,3.71063776 36.64,4.646 C36.9518106,4.87892887 37.176745,5.20946622 37.279,5.585 L37.879,7.679 C35.616267,7.21132979 33.3105003,6.9837363 31,7 C28.6898337,6.98380669 26.3844059,7.2113998 24.122,7.679 L24.719,5.591 Z M23.488,9.9 C25.9405372,9.26569186 28.4670341,8.96299654 31,9 C33.5326437,8.96285709 36.0588288,9.26555535 38.511,9.9 L39.378,12.933 C38.131,12.733 36.949,12.565 35.878,12.433 L35.77,12.419 C34.185027,12.1905585 32.5885489,12.0506747 30.988,12 C29.3965807,12.0502493 27.8091574,12.1884603 26.233,12.414 L26.125,12.428 C25.051,12.562 23.87,12.728 22.625,12.928 L23.488,9.9 Z M40.588,42.467 C38.8812952,41.4742725 36.9339809,40.9711817 34.96,41.013 C34.4099467,41.0346863 33.9808563,41.4968524 34,42.047 C34.0063917,42.313484 34.1202986,42.5660524 34.3158068,42.7472459 C34.511315,42.9284394 34.7717995,43.0228503 35.038,43.009 C36.4174854,42.9743922 37.7838925,43.2836896 39.014,43.909 C39.0046642,43.9705312 39.0013152,44.0328225 39.004,44.095 C39.004,44.143 39.404,48.902 36.769,51.795 C35.2554902,53.3298921 33.1514235,54.1340985 31,54 C28.8508482,54.13151 26.7498384,53.3271318 25.238,51.794 C22.605,48.921 22.992,44.137 22.996,44.094 C22.9983832,44.0324543 22.9946988,43.9708234 22.985,43.91 C24.2156078,43.2850838 25.5822365,42.975814 26.962,43.01 C27.2292445,43.0273183 27.4918471,42.9339499 27.6881737,42.7518087 C27.8845003,42.5696675 27.9972645,42.3147911 28,42.047 C28.0208313,41.4953251 27.5906632,41.0311375 27.039,41.01 C25.0653087,40.9679516 23.1182546,41.4710646 21.412,42.464 C13.693,37.223 17.727,27.021 18.712,24.844 C22.7237656,23.7603002 26.8468534,23.1415687 31,23 C35.1544693,23.1414836 39.2788914,23.7602141 43.292,24.844 C44.272,27.007 48.334,37.21 40.589,42.464 L40.588,42.467 Z M58.977,24.587 C58.9127947,24.8664133 58.7357787,25.1067785 58.488,25.251 C56.761,26.268 52.907,27.968 46.453,28 C46.0765653,26.4720578 45.5565873,24.9831061 44.9,23.553 C44.9,23.546 44.89,23.542 44.886,23.536 C44.8455755,23.4687935 44.7972297,23.4066825 44.742,23.351 C44.7119259,23.3090167 44.678482,23.2695529 44.642,23.233 C44.5976259,23.2033597 44.5511721,23.1769579 44.503,23.154 C44.4387732,23.1112345 44.3700239,23.0756861 44.298,23.048 C44.291,23.048 44.286,23.041 44.279,23.039 C39.9495132,21.8336301 35.4916738,21.1491257 31,21 C26.5096695,21.1494427 22.0531915,21.8339442 17.725,23.039 C17.4554265,23.1158621 17.2304905,23.3023413 17.105,23.553 C16.4467013,24.982929 15.9250475,26.4718854 15.547,28 C9.091,27.971 5.237,26.27 3.509,25.251 C3.26267295,25.1077048 3.08672195,24.868759 3.023,24.591 C2.96618281,24.3416215 3.01621755,24.0798456 3.161,23.869 C4.46831303,22.1975128 6.11169577,20.8188291 7.985,19.822 C12.104021,17.5439353 16.5827581,15.9881136 21.227,15.222 C21.334358,15.219522 21.4405229,15.1988976 21.541,15.161 C23.281,14.841 24.929,14.599 26.373,14.419 L26.48,14.406 C27.9742679,14.1907301 29.4791738,14.057198 30.988,14.006 C32.5048308,14.056586 34.0177583,14.1901188 35.52,14.406 L35.628,14.42 C37.057,14.599 38.686,14.837 40.407,15.152 C40.5275777,15.2061508 40.6578465,15.2354017 40.79,15.238 C40.802,15.238 40.815,15.238 40.828,15.238 C45.454219,16.0069551 49.9150599,17.56064 54.018,19.832 C55.8889312,20.8289382 57.5307302,22.2060737 58.838,23.875 C58.9798987,24.0832769 59.0301435,24.3406461 58.977,24.587 Z"/><path d="M30.293,38.293 L29.293,39.293 C29.0330434,39.5440745 28.9287874,39.9158779 29.0203028,40.2655073 C29.1118183,40.6151368 29.3848632,40.8881817 29.7344927,40.9796972 C30.0841221,41.0712126 30.4559255,40.9669566 30.707,40.707 L31,40.414 L31.293,40.707 C31.6853789,41.0859722 32.3090848,41.0805524 32.6948186,40.6948186 C33.0805524,40.3090848 33.0859722,39.6853789 32.707,39.293 L31.707,38.293 C31.3165001,37.9026181 30.6834999,37.9026181 30.293,38.293 Z"/><path d="M28.243,35.829 L28.167,35.753 C28.5219971,35.2213517 28.7708947,34.6261027 28.9,34 L29,34 C29.5522847,34 30,33.5522847 30,33 C30,32.4477153 29.5522847,32 29,32 L28.9,32 C28.7712007,31.3739692 28.5226445,30.7787247 28.168,30.247 L28.244,30.171 C28.5039566,29.9199255 28.6082126,29.5481221 28.5166972,29.1984927 C28.4251817,28.8488632 28.1521368,28.5758183 27.8025073,28.4843028 C27.4528779,28.3927874 27.0810745,28.4970434 26.83,28.757 L26.754,28.833 C26.2220503,28.4778848 25.6264509,28.2289827 25,28.1 L25,28 C25,27.4477153 24.5522847,27 24,27 C23.4477153,27 23,27.4477153 23,28 L23,28.1 C22.3739692,28.2287993 21.7787247,28.4773555 21.247,28.832 L21.171,28.756 C20.9199255,28.4960434 20.5481221,28.3917874 20.1984927,28.4833028 C19.8488632,28.5748183 19.5758183,28.8478632 19.4843028,29.1974927 C19.3927874,29.5471221 19.4970434,29.9189255 19.757,30.17 L19.833,30.246 C19.4778848,30.7779497 19.2289827,31.3735491 19.1,32 L19,32 C18.4477153,32 18,32.4477153 18,33 C18,33.5522847 18.4477153,34 19,34 L19.1,34 C19.2287993,34.6260308 19.4773555,35.2212753 19.832,35.753 L19.756,35.829 C19.4960434,36.0800745 19.3917874,36.4518779 19.4833028,36.8015073 C19.5748183,37.1511368 19.8478632,37.4241817 20.1974927,37.5156972 C20.5471221,37.6072126 20.9189255,37.5029566 21.17,37.243 L21.246,37.167 C21.7779497,37.5221152 22.3735491,37.7710173 23,37.9 L23,38 C23,38.5522847 23.4477153,39 24,39 C24.5522847,39 25,38.5522847 25,38 L25,37.9 C25.6260308,37.7712007 26.2212753,37.5226445 26.753,37.168 L26.829,37.244 C27.0800745,37.5039566 27.4518779,37.6082126 27.8015073,37.5166972 C28.1511368,37.4251817 28.4241817,37.1521368 28.5156972,36.8025073 C28.6072126,36.4528779 28.5029566,36.0810745 28.243,35.83 L28.243,35.829 Z M24,36 C22.3431458,36 21,34.6568542 21,33 C21,31.3431458 22.3431458,30 24,30 C25.6568542,30 27,31.3431458 27,33 C27,34.6568542 25.6568542,36 24,36 Z"/><path d="M43,32 L42.9,32 C42.7712007,31.3739692 42.5226445,30.7787247 42.168,30.247 L42.244,30.171 C42.5039566,29.9199255 42.6082126,29.5481221 42.5166972,29.1984927 C42.4251817,28.8488632 42.1521368,28.5758183 41.8025073,28.4843028 C41.4528779,28.3927874 41.0810745,28.4970434 40.83,28.757 L40.754,28.833 C40.2220503,28.4778848 39.6264509,28.2289827 39,28.1 L39,28 C39,27.4477153 38.5522847,27 38,27 C37.4477153,27 37,27.4477153 37,28 L37,28.1 C36.3739692,28.2287993 35.7787247,28.4773555 35.247,28.832 L35.171,28.756 C34.9199255,28.4960434 34.5481221,28.3917874 34.1984927,28.4833028 C33.8488632,28.5748183 33.5758183,28.8478632 33.4843028,29.1974927 C33.3927874,29.5471221 33.4970434,29.9189255 33.757,30.17 L33.833,30.246 C33.4778848,30.7779497 33.2289827,31.3735491 33.1,32 L33,32 C32.4477153,32 32,32.4477153 32,33 C32,33.5522847 32.4477153,34 33,34 L33.1,34 C33.2287993,34.6260308 33.4773555,35.2212753 33.832,35.753 L33.756,35.829 C33.4960434,36.0800745 33.3917874,36.4518779 33.4833028,36.8015073 C33.5748183,37.1511368 33.8478632,37.4241817 34.1974927,37.5156972 C34.5471221,37.6072126 34.9189255,37.5029566 35.17,37.243 L35.246,37.167 C35.7779497,37.5221152 36.3735491,37.7710173 37,37.9 L37,38 C37,38.5522847 37.4477153,39 38,39 C38.5522847,39 39,38.5522847 39,38 L39,37.9 C39.6260308,37.7712007 40.2212753,37.5226445 40.753,37.168 L40.829,37.244 C41.2213789,37.6229722 41.8450848,37.6175524 42.2308186,37.2318186 C42.6165524,36.8460848 42.6219722,36.2223789 42.243,35.83 L42.167,35.754 C42.5221152,35.2220503 42.7710173,34.6264509 42.9,34 L43,34 C43.5522847,34 44,33.5522847 44,33 C44,32.4477153 43.5522847,32 43,32 Z M38,36 C36.3431458,36 35,34.6568542 35,33 C35,31.3431458 36.3431458,30 38,30 C39.6568542,30 41,31.3431458 41,33 C41,34.6568542 39.6568542,36 38,36 Z"/><path d="M30.293,27.707 C30.6834999,28.0973819 31.3165001,28.0973819 31.707,27.707 L33.707,25.707 C34.0859722,25.3146211 34.0805524,24.6909152 33.6948186,24.3051814 C33.3090848,23.9194476 32.6853789,23.9140278 32.293,24.293 L31,25.586 L29.707,24.293 C29.3146211,23.9140278 28.6909152,23.9194476 28.3051814,24.3051814 C27.9194476,24.6909152 27.9140278,25.3146211 28.293,25.707 L30.293,27.707 Z"/><path d="M8.38,23.072 C8.00635144,22.9265468 7.58237785,23.0086187 7.29,23.283 C7.24676572,23.3299727 7.20667861,23.3797475 7.17,23.432 C7.13231406,23.4878391 7.10205971,23.5483478 7.08,23.612 C7.05111232,23.6686624 7.03088731,23.7293375 7.02,23.792 C7.00839112,23.8580796 7.00170607,23.9249301 7,23.992 C7.00157999,24.1226773 7.02875903,24.2517777 7.08,24.372 C7.13072915,24.4931393 7.20174734,24.6047393 7.29,24.702 C7.48174298,24.884565 7.73527314,24.9881196 8,24.992 C8.13067726,24.99042 8.25977769,24.963241 8.38,24.912 C8.50113929,24.8612709 8.61273931,24.7902527 8.71,24.702 C8.79825266,24.6047393 8.86927085,24.4931393 8.92,24.372 C8.97124097,24.2517777 8.99842001,24.1226773 9,23.992 C8.99636168,23.7275195 8.89275428,23.4742173 8.71,23.283 C8.61303416,23.1941064 8.5013777,23.1227139 8.38,23.072 Z"/><path d="M14.38,20.072 C14.0063514,19.9265468 13.5823778,20.0086187 13.29,20.283 C13.2467657,20.3299727 13.2066786,20.3797475 13.17,20.432 C13.1323141,20.4878391 13.1020597,20.5483478 13.08,20.612 C13.0511123,20.6686624 13.0308873,20.7293375 13.02,20.792 C13.0083911,20.8580796 13.0017061,20.9249301 13,20.992 C13.00158,21.1226773 13.028759,21.2517777 13.08,21.372 C13.1307291,21.4931393 13.2017473,21.6047393 13.29,21.702 C13.481743,21.884565 13.7352731,21.9881196 14,21.992 C14.1306773,21.99042 14.2597777,21.963241 14.38,21.912 C14.6312303,21.8210762 14.8290762,21.6232303 14.92,21.372 C14.971241,21.2517777 14.99842,21.1226773 15,20.992 C14.9963617,20.7275195 14.8927543,20.4742173 14.71,20.283 C14.6130342,20.1941064 14.5013777,20.1227139 14.38,20.072 Z"/><path d="M19.38,18.072 C19.0063514,17.9265468 18.5823778,18.0086187 18.29,18.283 C18.2467657,18.3299727 18.2066786,18.3797475 18.17,18.432 C18.1323141,18.4878391 18.1020597,18.5483478 18.08,18.612 C18.0511123,18.6686624 18.0308873,18.7293375 18.02,18.792 C18.0083911,18.8580796 18.0017061,18.9249301 18,18.992 C18.00158,19.1226773 18.028759,19.2517777 18.08,19.372 C18.1307291,19.4931393 18.2017473,19.6047393 18.29,19.702 C18.481743,19.884565 18.7352731,19.9881196 19,19.992 C19.1306773,19.99042 19.2597777,19.963241 19.38,19.912 C19.6312303,19.8210762 19.8290762,19.6232303 19.92,19.372 C19.971241,19.2517777 19.99842,19.1226773 20,18.992 C19.9963617,18.7275195 19.8927543,18.4742173 19.71,18.283 C19.6130342,18.1941064 19.5013777,18.1227139 19.38,18.072 Z"/><path d="M25.38,16.08 C25.0065399,15.934286 24.5825908,16.0159643 24.29,16.29 C24.2469872,16.3375135 24.2069128,16.3876065 24.17,16.44 C24.1321227,16.4957271 24.1018554,16.5562619 24.08,16.62 C24.0511123,16.6766624 24.0308873,16.7373375 24.02,16.8 C24.0083911,16.8660796 24.0017061,16.9329301 24,17 C24.00158,17.1306773 24.028759,17.2597777 24.08,17.38 C24.1307291,17.5011393 24.2017473,17.6127393 24.29,17.71 C24.481743,17.892565 24.7352731,17.9961196 25,18 C25.1306773,17.99842 25.2597777,17.971241 25.38,17.92 C25.6312303,17.8290762 25.8290762,17.6312303 25.92,17.38 C25.971241,17.2597777 25.99842,17.1306773 26,17 C25.9961196,16.7352731 25.892565,16.481743 25.71,16.29 C25.6127393,16.2017473 25.5011393,16.1307291 25.38,16.08 Z"/><path d="M54.92,23.612 C54.8979403,23.5483478 54.8676859,23.4878391 54.83,23.432 C54.7933214,23.3797475 54.7532343,23.3299727 54.71,23.283 C54.4176222,23.0086187 53.9936486,22.9265468 53.62,23.072 C53.4986223,23.1227139 53.3869658,23.1941064 53.29,23.283 C53.1072457,23.4742173 53.0036383,23.7275195 53,23.992 C53.00158,24.1226773 53.028759,24.2517777 53.08,24.372 C53.1709238,24.6232303 53.3687697,24.8210762 53.62,24.912 C53.7402223,24.963241 53.8693227,24.99042 54,24.992 C54.2647269,24.9881196 54.518257,24.884565 54.71,24.702 C54.7982527,24.6047393 54.8692709,24.4931393 54.92,24.372 C54.971241,24.2517777 54.99842,24.1226773 55,23.992 C54.9982939,23.9249301 54.9916089,23.8580796 54.98,23.792 C54.9691127,23.7293375 54.9488877,23.6686624 54.92,23.612 Z"/><path d="M48.92,20.612 C48.8979403,20.5483478 48.8676859,20.4878391 48.83,20.432 C48.7933214,20.3797475 48.7532343,20.3299727 48.71,20.283 C48.4176222,20.0086187 47.9936486,19.9265468 47.62,20.072 C47.4986223,20.1227139 47.3869658,20.1941064 47.29,20.283 C47.1072457,20.4742173 47.0036383,20.7275195 47,20.992 C47.00158,21.1226773 47.028759,21.2517777 47.08,21.372 C47.1709238,21.6232303 47.3687697,21.8210762 47.62,21.912 C47.7402223,21.963241 47.8693227,21.99042 48,21.992 C48.2647269,21.9881196 48.518257,21.884565 48.71,21.702 C48.7982527,21.6047393 48.8692709,21.4931393 48.92,21.372 C48.971241,21.2517777 48.99842,21.1226773 49,20.992 C48.9982939,20.9249301 48.9916089,20.8580796 48.98,20.792 C48.9691127,20.7293375 48.9488877,20.6686624 48.92,20.612 Z"/><path d="M43.92,18.612 C43.8979403,18.5483478 43.8676859,18.4878391 43.83,18.432 C43.7933214,18.3797475 43.7532343,18.3299727 43.71,18.283 C43.4176222,18.0086187 42.9936486,17.9265468 42.62,18.072 C42.4986223,18.1227139 42.3869658,18.1941064 42.29,18.283 C42.1072457,18.4742173 42.0036383,18.7275195 42,18.992 C42.00158,19.1226773 42.028759,19.2517777 42.08,19.372 C42.1709238,19.6232303 42.3687697,19.8210762 42.62,19.912 C42.7402223,19.963241 42.8693227,19.99042 43,19.992 C43.2647269,19.9881196 43.518257,19.884565 43.71,19.702 C43.7982527,19.6047393 43.8692709,19.4931393 43.92,19.372 C43.971241,19.2517777 43.99842,19.1226773 44,18.992 C43.9982939,18.9249301 43.9916089,18.8580796 43.98,18.792 C43.9691127,18.7293375 43.9488877,18.6686624 43.92,18.612 Z"/><path d="M37.92,16.62 C37.8981446,16.5562619 37.8678773,16.4957271 37.83,16.44 C37.7930872,16.3876065 37.7530128,16.3375135 37.71,16.29 C37.4174092,16.0159643 36.9934601,15.934286 36.62,16.08 C36.4988607,16.1307291 36.3872607,16.2017473 36.29,16.29 C36.107435,16.481743 36.0038804,16.7352731 36,17 C36.00158,17.1306773 36.028759,17.2597777 36.08,17.38 C36.1709238,17.6312303 36.3687697,17.8290762 36.62,17.92 C36.7402223,17.971241 36.8693227,17.99842 37,18 C37.2647269,17.9961196 37.518257,17.892565 37.71,17.71 C37.7982527,17.6127393 37.8692709,17.5011393 37.92,17.38 C37.971241,17.2597777 37.99842,17.1306773 38,17 C37.9982939,16.9329301 37.9916089,16.8660796 37.98,16.8 C37.9691127,16.7373375 37.9488877,16.6766624 37.92,16.62 Z"/><path d="M31.38,16.08 C31.0065399,15.934286 30.5825908,16.0159643 30.29,16.29 C30.2469872,16.3375135 30.2069128,16.3876065 30.17,16.44 C30.1321227,16.4957271 30.1018554,16.5562619 30.08,16.62 C30.0511123,16.6766624 30.0308873,16.7373375 30.02,16.8 C30.0083911,16.8660796 30.0017061,16.9329301 30,17 C30.00158,17.1306773 30.028759,17.2597777 30.08,17.38 C30.1307291,17.5011393 30.2017473,17.6127393 30.29,17.71 C30.481743,17.892565 30.7352731,17.9961196 31,18 C31.1306773,17.99842 31.2597777,17.971241 31.38,17.92 C31.6312303,17.8290762 31.8290762,17.6312303 31.92,17.38 C31.971241,17.2597777 31.99842,17.1306773 32,17 C31.9961196,16.7352731 31.892565,16.481743 31.71,16.29 C31.6127393,16.2017473 31.5011393,16.1307291 31.38,16.08 Z"/><path d="M34,47 L32,47 L32,46 C32,45.4477153 31.5522847,45 31,45 C30.4477153,45 30,45.4477153 30,46 L30,47 L28,47 L28,46 C28,45.4477153 27.5522847,45 27,45 C26.4477153,45 26,45.4477153 26,46 L26,47 C25.4477153,47 25,47.4477153 25,48 C25,48.5522847 25.4477153,49 26,49 C26,49.5522847 26.4477153,50 27,50 C27.5522847,50 28,49.5522847 28,49 L30,49 C30,49.5522847 30.4477153,50 31,50 C31.5522847,50 32,49.5522847 32,49 L34,49 C34,49.5522847 34.4477153,50 35,50 C35.5522847,50 36,49.5522847 36,49 C36.5522847,49 37,48.5522847 37,48 C37,47.4477153 36.5522847,47 36,47 L36,46 C36,45.4477153 35.5522847,45 35,45 C34.4477153,45 34,45.4477153 34,46 L34,47 Z"/></g></g><text x="0" y="71" fill="#000000" font-size="5px" font-weight="bold" font-family="'Helvetica Neue', Helvetica, Arial-Unicode, Arial, Sans-serif">Created by Ben Davis</text><text x="0" y="76" fill="#000000" font-size="5px" font-weight="bold" font-family="'Helvetica Neue', Helvetica, Arial-Unicode, Arial, Sans-serif">from the Noun Project</text></svg>