<svg width="1440" height="700" xmlns="http://www.w3.org/2000/svg"><g fill="#4A4A4A" stroke="#FFF" fill-rule="evenodd" fill-opacity="0" font-family="Inter-Bold, Inter" font-size="100" font-weight="bold"><text transform="rotate(-15 3366.748 -4668.166)" opacity=".222"><tspan x=".423" y="97">Inter</tspan></text><text transform="rotate(-15 3051.524 -4626.666)" opacity=".494" stroke-width="2"><tspan x=".423" y="97">Inter</tspan></text><text transform="rotate(-15 3167.524 -3745.558)" opacity=".148" stroke-width="2"><tspan x=".423" y="97">Inter</tspan></text><text transform="rotate(-15 3283.524 -2864.45)" opacity=".219"><tspan x=".423" y="97">Inter</tspan></text><text transform="rotate(-15 2736.3 -4585.166)" opacity=".749" stroke-width="2"><tspan x=".423" y="97">Inter</tspan></text><text transform="rotate(-15 2852.3 -3704.058)" opacity=".555" stroke-width="2"><tspan x=".423" y="97">Inter</tspan></text><text transform="rotate(-15 2968.3 -2822.95)" opacity=".199" stroke-width="2"><tspan x=".423" y="97">Inter</tspan></text><text transform="rotate(-15 3084.3 -1941.843)" opacity=".523"><tspan x=".423" y="97">Inter</tspan></text><text transform="rotate(-15 2421.076 -4543.666)" opacity=".541" stroke-width="2"><tspan x=".423" y="97">Inter</tspan></text><text transform="rotate(-15 2537.076 -3662.558)" opacity=".797" stroke-width="2"><tspan x=".423" y="97">Inter</tspan></text><text transform="rotate(-15 2653.076 -2781.45)" opacity=".756" stroke-width="2"><tspan x=".423" y="97">Inter</tspan></text><text transform="rotate(-15 2769.076 -1900.343)" opacity=".801" stroke-width="2"><tspan x=".423" y="97">Inter</tspan></text><text transform="rotate(-15 2885.076 -1019.236)" opacity=".269" stroke-width="2"><tspan x=".423" y="97">Inter</tspan></text><text transform="rotate(-15 2105.853 -4502.166)" opacity=".862" stroke-width="2"><tspan x=".423" y="97">Inter</tspan></text><text transform="rotate(-15 2221.853 -3621.058)" opacity=".253" stroke-width="2"><tspan x=".423" y="97">Inter</tspan></text><text transform="rotate(-15 2337.853 -2739.95)" opacity=".879" stroke-width="2"><tspan x=".423" y="97">Inter</tspan></text><text transform="rotate(-15 2453.853 -1858.843)" opacity=".586" stroke-width="2"><tspan x=".423" y="97">Inter</tspan></text><text transform="rotate(-15 2569.853 -977.736)" opacity=".931" stroke-width="2"><tspan x=".423" y="97">Inter</tspan></text><text transform="rotate(-15 2685.853 -96.628)" opacity=".853" stroke-width="2"><tspan x=".423" y="97">Inter</tspan></text><text transform="rotate(-15 2801.853 784.48)" opacity=".812"><tspan x=".423" y="97">Inter</tspan></text><text transform="rotate(-15 1674.629 -5341.773)" opacity=".752"><tspan x=".423" y="97">Inter</tspan></text><text transform="rotate(-15 1790.629 -4460.666)" opacity=".254" stroke-width="2"><tspan x=".423" y="97">Inter</tspan></text><text transform="rotate(-15 1906.629 -3579.558)" opacity=".68" stroke-width="2"><tspan x=".423" y="97">Inter</tspan></text><text transform="rotate(-15 2022.629 -2698.45)" opacity=".439" stroke-width="2"><tspan x=".423" y="97">Inter</tspan></text><text transform="rotate(-15 2138.629 -1817.343)" opacity=".789" stroke-width="2"><tspan x=".423" y="97">Inter</tspan></text><text transform="rotate(-15 2254.629 -936.236)" opacity=".202" stroke-width="2"><tspan x=".423" y="97">Inter</tspan></text><text transform="rotate(-15 2370.629 -55.128)" opacity=".673" stroke-width="2"><tspan x=".423" y="97">Inter</tspan></text><text transform="rotate(-15 2486.629 825.98)" opacity=".251" stroke-width="2"><tspan x=".423" y="97">Inter</tspan></text><text transform="rotate(-15 1359.405 -5300.273)" opacity=".741" stroke-width="2"><tspan x=".423" y="97">Inter</tspan></text><text transform="rotate(-15 1475.405 -4419.166)" opacity=".124" stroke-width="2"><tspan x=".423" y="97">Inter</tspan></text><text transform="rotate(-15 1591.405 -3538.058)" opacity=".668" stroke-width="2"><tspan x=".423" y="97">Inter</tspan></text><text transform="rotate(-15 1707.405 -2656.95)" opacity=".185" stroke-width="2"><tspan x=".423" y="97">Inter</tspan></text><text transform="rotate(-15 1823.405 -1775.843)" stroke-width="2"><tspan x=".423" y="97">Inter</tspan></text><text transform="rotate(-15 1939.405 -894.736)" opacity=".621" stroke-width="2"><tspan x=".423" y="97">Inter</tspan></text><text transform="rotate(-15 2055.405 -13.628)" opacity=".371" stroke-width="2"><tspan x=".423" y="97">Inter</tspan></text><text transform="rotate(-15 2171.405 867.48)" opacity=".561" stroke-width="2"><tspan x=".423" y="97">Inter</tspan></text><text transform="rotate(-15 1044.181 -5258.773)" opacity=".402" stroke-width="2"><tspan x=".423" y="97">Inter</tspan></text><text transform="rotate(-15 1160.181 -4377.666)" opacity=".383" stroke-width="2"><tspan x=".423" y="97">Inter</tspan></text><text transform="rotate(-15 1276.181 -3496.558)" stroke-width="2"><tspan x=".423" y="97">Inter</tspan></text><text transform="rotate(-15 1392.181 -2615.45)" opacity=".486" stroke-width="2"><tspan x=".423" y="97">Inter</tspan></text><text transform="rotate(-15 1508.181 -1734.343)" opacity=".125" stroke-width="2"><tspan x=".423" y="97">Inter</tspan></text><text transform="rotate(-15 1624.181 -853.236)" opacity=".662" stroke-width="2"><tspan x=".423" y="97">Inter</tspan></text><text transform="rotate(-15 1740.181 27.872)" opacity=".122" stroke-width="2"><tspan x=".423" y="97">Inter</tspan></text><text transform="rotate(-15 1856.181 908.98)" opacity=".785" stroke-width="2"><tspan x=".423" y="97">Inter</tspan></text><text transform="rotate(-15 728.957 -5217.273)" opacity=".177" stroke-width="2"><tspan x=".423" y="97">Inter</tspan></text><text transform="rotate(-15 844.957 -4336.166)" opacity=".66" stroke-width="2"><tspan x=".423" y="97">Inter</tspan></text><text transform="rotate(-15 960.957 -3455.058)" opacity=".187" stroke-width="2"><tspan x=".423" y="97">Inter</tspan></text><text transform="rotate(-15 1076.957 -2573.95)" opacity=".564" stroke-width="2"><tspan x=".423" y="97">Inter</tspan></text><text transform="rotate(-15 1192.957 -1692.843)" opacity=".45" stroke-width="2"><tspan x=".423" y="97">Inter</tspan></text><text transform="rotate(-15 1308.957 -811.736)" opacity=".366" stroke-width="2"><tspan x=".423" y="97">Inter</tspan></text><text transform="rotate(-15 1424.957 69.372)" opacity=".167" stroke-width="2"><tspan x=".423" y="97">Inter</tspan></text><text transform="rotate(-15 1540.957 950.48)" opacity=".541" stroke-width="2"><tspan x=".423" y="97">Inter</tspan></text><text transform="rotate(-15 413.734 -5175.773)" opacity=".182" stroke-width="2"><tspan x=".423" y="97">Inter</tspan></text><text transform="rotate(-15 529.734 -4294.666)" opacity=".731" stroke-width="2"><tspan x=".423" y="97">Inter</tspan></text><text transform="rotate(-15 645.734 -3413.558)" opacity=".573" stroke-width="2"><tspan x=".423" y="97">Inter</tspan></text><text transform="rotate(-15 761.734 -2532.45)" opacity=".608" stroke-width="2"><tspan x=".423" y="97">Inter</tspan></text><text transform="rotate(-15 877.734 -1651.343)" opacity=".656" stroke-width="2"><tspan x=".423" y="97">Inter</tspan></text><text transform="rotate(-15 993.734 -770.236)" opacity=".948" stroke-width="2"><tspan x=".423" y="97">Inter</tspan></text><text transform="rotate(-15 1109.734 110.872)" opacity=".612" stroke-width="2"><tspan x=".423" y="97">Inter</tspan></text><text transform="rotate(-15 1225.734 991.98)" opacity=".597" stroke-width="2"><tspan x=".423" y="97">Inter</tspan></text><text transform="rotate(-15 214.51 -4253.166)" opacity=".431" stroke-width="2"><tspan x=".423" y="97">Inter</tspan></text><text transform="rotate(-15 330.51 -3372.058)" opacity=".329" stroke-width="2"><tspan x=".423" y="97">Inter</tspan></text><text transform="rotate(-15 446.51 -2490.95)" opacity=".699" stroke-width="2"><tspan x=".423" y="97">Inter</tspan></text><text transform="rotate(-15 562.51 -1609.843)" opacity=".789" stroke-width="2"><tspan x=".423" y="97">Inter</tspan></text><text transform="rotate(-15 678.51 -728.736)" opacity=".285" stroke-width="2"><tspan x=".423" y="97">Inter</tspan></text><text transform="rotate(-15 794.51 152.372)" opacity=".786" stroke-width="2"><tspan x=".423" y="97">Inter</tspan></text><text transform="rotate(-15 910.51 1033.48)" opacity=".679"><tspan x=".423" y="97">Inter</tspan></text><text transform="rotate(-15 15.286 -3330.558)" opacity=".714"><tspan x=".423" y="97">Inter</tspan></text><text transform="rotate(-15 131.286 -2449.45)" opacity=".422" stroke-width="2"><tspan x=".423" y="97">Inter</tspan></text><text transform="rotate(-15 247.286 -1568.343)" opacity=".586" stroke-width="2"><tspan x=".423" y="97">Inter</tspan></text><text transform="rotate(-15 363.286 -687.236)" opacity=".474" stroke-width="2"><tspan x=".423" y="97">Inter</tspan></text><text transform="rotate(-15 479.286 193.872)" opacity=".953" stroke-width="2"><tspan x=".423" y="97">Inter</tspan></text><text transform="rotate(-15 -67.938 -1526.843)" opacity=".394" stroke-width="2"><tspan x=".423" y="97">Inter</tspan></text><text transform="rotate(-15 48.062 -645.736)" opacity=".629" stroke-width="2"><tspan x=".423" y="97">Inter</tspan></text><text transform="rotate(-15 164.062 235.372)" opacity=".408" stroke-width="2"><tspan x=".423" y="97">Inter</tspan></text><text transform="rotate(-15 -267.162 -604.236)" opacity=".763" stroke-width="2"><tspan x=".423" y="97">Inter</tspan></text><text transform="rotate(-15 -151.162 276.872)" opacity=".498" stroke-width="2"><tspan x=".423" y="97">Inter</tspan></text></g></svg>