<?xml version="1.0" encoding="UTF-8"?>
<svg width="332px" height="249px" viewBox="0 0 332 249" version="1.1" xmlns="http://www.w3.org/2000/svg" xmlns:xlink="http://www.w3.org/1999/xlink">
    <!-- Generator: Sketch 51.3 (57544) - http://www.bohemiancoding.com/sketch -->
    <title>header-text-small</title>
    <desc>Created with Sketch.</desc>
    <defs></defs>
    <g id="header-text-small" stroke="none" stroke-width="1" fill="none" fill-rule="evenodd">
        <path d="M27.4070796,176 L3,176 L3,113 L27.159292,113 C46.7345133,113 59,124.8125 59,144.5 C59,164.1875 46.7345133,176 27.4070796,176 Z M20,162 L26.7398844,162 C36.4046243,162 42,158.181159 42,145 C42,131.818841 36.4046243,128 26.2312139,128 L20,128 L20,162 Z M67,176 L67,113 L113,113 L113,126.78125 L84.3279133,126.78125 L84.3279133,137.609375 L110.631436,137.609375 L110.631436,151.390625 L84.3279133,151.390625 L84.3279133,162.21875 L112.875339,162.21875 L112.875339,176 L67,176 Z M156.703963,132.67619 C156.364219,128.559524 153.738928,126.114286 148.179487,126.114286 C142.867133,126.114286 140.550699,128.157143 140.519814,130.942857 C140.365385,133.97619 143.052448,135.740476 149.044289,137.009524 L154.2331,138.12381 C168.193473,141.12619 173.938228,147.904762 174,157.561905 C173.938228,170.066667 164.332751,177 148.30303,177 C131.810023,177 121.061772,169.880952 121,153.971429 L137.307692,153.971429 C137.585664,159.790476 141.477273,162.885714 148.055944,162.885714 C153.553613,162.885714 156.395105,160.688095 156.456876,157.561905 C156.395105,154.683333 153.986014,152.919048 146.944056,151.371429 L140.643357,150.009524 C129.431818,147.595238 122.575175,142.085714 122.606061,132.180952 C122.513403,120.109524 133.138112,112 148.179487,112 C163.498834,112 173.073427,120.233333 173.135198,132.67619 L156.703963,132.67619 Z M198,113 L198,176 L181,176 L181,113 L198,113 Z M247.725572,133.749049 C246.665281,129.423954 242.985447,126.952471 237.559252,126.952471 C228.827443,126.952471 223.837838,133.409221 223.837838,144.376426 C223.837838,155.498099 228.453222,162.047529 237.434511,162.047529 C245.199584,162.047529 249.128898,158.525665 249.284823,153.026616 L237.683992,153.026616 L237.683992,140.792776 L266,140.792776 L266,149.56654 C266,166.86692 254.024948,177 237.309771,177 C218.661123,177 206,164.642586 206,144.623574 C206,123.739544 219.970894,112 237.185031,112 C252.278586,112 263.910603,121.051806 265.251559,133.749049 L247.725572,133.749049 Z M329,113 L329,176 L314.598194,176 L291.629797,142.900391 L291.257336,142.900391 L291.257336,176 L274,176 L274,113 L288.650113,113 L311.24605,145.976562 L311.742664,145.976562 L311.742664,113 L329,113 Z M33.988345,208.813333 C33.6934732,205.266667 31.4149184,203.16 26.5897436,203.16 C21.979021,203.16 19.9685315,204.92 19.9417249,207.32 C19.8076923,209.933333 22.1398601,211.453333 27.3403263,212.546667 L31.8438228,213.506667 C43.960373,216.093333 48.9463869,221.933333 49,230.253333 C48.9463869,241.026667 40.6095571,247 26.6969697,247 C12.3822844,247 3.05361305,240.866667 3,227.16 L17.1538462,227.16 C17.3951049,232.173333 20.7727273,234.84 26.4825175,234.84 C31.2540793,234.84 33.7202797,232.946667 33.7738928,230.253333 C33.7202797,227.773333 31.6293706,226.253333 25.5174825,224.92 L20.048951,223.746667 C10.3181818,221.666667 4.36713287,216.92 4.39393939,208.386667 C4.31351981,197.986667 13.534965,191 26.5897436,191 C39.8857809,191 48.1958042,198.093333 48.2494172,208.813333 L33.988345,208.813333 Z M55,247 L55,192 L78.6593674,192 C90.836983,192 99,199.734375 99,211.443359 C99,223.286621 90.622871,230.671875 78.1240876,230.671875 L69.8807786,230.671875 L69.8807786,247 L55,247 Z M70,219 L75.4015748,219 C80.7755906,219 84,215.907801 84,210.943262 C84,205.950355 80.7755906,203 75.4015748,203 L70,203 L70,219 Z M104,247 L104,192 L127.752336,192 C139.977804,192 148.172897,198.982422 148.172897,210.691406 C148.172897,218.318359 144.679907,223.662598 138.82243,226.482422 L150,247 L133.771028,247 L124.098131,228.845703 L118.939252,228.845703 L118.939252,247 L104,247 Z M120,217 L125.401575,217 C130.775591,217 134,215.052419 134,210.112903 C134,205.145161 130.775591,203 125.401575,203 L120,203 L120,217 Z M170,192 L170,247 L155,247 L155,192 L170,192 Z M226,192 L226,247 L213.431151,247 L193.386005,218.103516 L193.060948,218.103516 L193.060948,247 L178,247 L178,192 L190.785553,192 L210.505643,220.789062 L210.939052,220.789062 L210.939052,192 L226,192 Z M232,204.03125 L232,192 L280,192 L280,204.03125 L263.388764,204.03125 L263.388764,247 L248.611236,247 L248.611236,204.03125 L232,204.03125 Z M314.988345,208.813333 C314.693473,205.266667 312.414918,203.16 307.589744,203.16 C302.979021,203.16 300.968531,204.92 300.941725,207.32 C300.807692,209.933333 303.13986,211.453333 308.340326,212.546667 L312.843823,213.506667 C324.960373,216.093333 329.946387,221.933333 330,230.253333 C329.946387,241.026667 321.609557,247 307.69697,247 C293.382284,247 284.053613,240.866667 284,227.16 L298.153846,227.16 C298.395105,232.173333 301.772727,234.84 307.482517,234.84 C312.254079,234.84 314.72028,232.946667 314.773893,230.253333 C314.72028,227.773333 312.629371,226.253333 306.517483,224.92 L301.048951,223.746667 C291.318182,221.666667 285.367133,216.92 285.393939,208.386667 C285.31352,197.986667 294.534965,191 307.589744,191 C320.885781,191 329.195804,198.093333 329.249417,208.813333 L314.988345,208.813333 Z" id="DESIGN-SPRINTS" stroke="#FFFFFF" stroke-width="4"></path>
        <path d="M120,91 L207,91" id="Line-2" stroke="#FFFFFF" stroke-width="2" stroke-linecap="square" fill-rule="nonzero"></path>
        <text id="A-placeholder-graphi" font-family="Georgia-Italic, Georgia" font-size="36" font-style="italic" font-weight="normal" letter-spacing="-1.206857" fill="#FFFFFF">
            <tspan x="63.3475002" y="28">A placeholder </tspan>
            <tspan x="7.05578756" y="69">graphic for sketching</tspan>
        </text>
    </g>
</svg>