<?xml version="1.0" encoding="UTF-8"?>
<svg width="693px" height="129px" viewBox="0 0 693 129" version="1.1" xmlns="http://www.w3.org/2000/svg" xmlns:xlink="http://www.w3.org/1999/xlink">
    <!-- Generator: Sketch 51.3 (57544) - http://www.bohemiancoding.com/sketch -->
    <title>header-text-large</title>
    <desc>Created with Sketch.</desc>
    <defs></defs>
    <g id="header-text-large" stroke="none" stroke-width="1" fill="none" fill-rule="evenodd">
        <path d="M25.2618474,123.342193 L2,123.342193 L2,62.885006 L25.0256865,62.885006 C43.6823967,62.885006 55.3723606,74.2207286 55.3723606,93.1135996 C55.3723606,112.006471 43.6823967,123.342193 25.2618474,123.342193 Z M18.4131817,109.408701 L24.6714452,109.408701 C33.6455589,109.408701 38.8410985,105.748207 38.8410985,93.1135996 C38.8410985,80.4789921 33.6455589,76.8184983 24.1991234,76.8184983 L18.4131817,76.8184983 L18.4131817,109.408701 Z M62.9295671,123.342193 L62.9295671,62.885006 L106.501251,62.885006 L106.501251,76.1100157 L79.3427488,76.1100157 L79.3427488,86.5010947 L104.257722,86.5010947 L104.257722,99.7261045 L79.3427488,99.7261045 L79.3427488,110.117184 L106.38317,110.117184 L106.38317,123.342193 L62.9295671,123.342193 Z M147.239053,81.777877 C146.914332,77.8517022 144.405123,75.5196135 139.091503,75.5196135 C134.014044,75.5196135 131.800035,77.4679408 131.770515,80.1247508 C131.622915,83.0177217 134.191164,84.700368 139.918066,85.9106925 L144.877444,86.9734165 C158.220535,89.8368673 163.711275,96.3017716 163.770315,105.512046 C163.711275,117.438171 154.530521,124.050676 139.209583,124.050676 C123.445844,124.050676 113.172845,117.26105 113.113805,102.087713 L128.700424,102.087713 C128.966105,107.637494 132.685639,110.589505 138.973422,110.589505 C144.228002,110.589505 146.943852,108.493577 147.002892,105.512046 C146.943852,102.766676 144.641284,101.08403 137.910698,99.608024 L131.888596,98.3091391 C121.172795,96.0065705 114.619331,90.7519907 114.648851,81.3055552 C114.560291,69.7927119 124.715209,62.0584429 139.091503,62.0584429 C153.733478,62.0584429 162.884712,69.9107924 162.943752,81.777877 L147.239053,81.777877 Z M186.441814,62.885006 L186.441814,123.342193 L170.028632,123.342193 L170.028632,62.885006 L186.441814,62.885006 Z M233.496893,82.840601 C232.49321,78.7077855 229.009837,76.3461766 223.873337,76.3461766 C215.607706,76.3461766 210.884488,82.5158798 210.884488,92.9955192 C210.884488,103.622759 215.253465,109.881023 223.755257,109.881023 C231.105764,109.881023 234.825298,106.51573 234.972899,101.26115 L223.991418,101.26115 L223.991418,89.5711863 L250.795678,89.5711863 L250.795678,97.9548978 C250.795678,114.48616 239.459956,124.168756 223.637176,124.168756 C205.98415,124.168756 193.998985,112.360712 193.998985,93.23168 C193.998985,73.276085 207.223995,62.0584429 223.519096,62.0584429 C237.80683,62.0584429 248.817831,70.7078354 250.087196,82.840601 L233.496893,82.840601 Z M310.780605,62.885006 L310.780605,123.342193 L297.083274,123.342193 L275.238392,91.5785538 L274.88415,91.5785538 L274.88415,123.342193 L258.470969,123.342193 L258.470969,62.885006 L272.404461,62.885006 L293.895102,94.5305649 L294.367424,94.5305649 L294.367424,62.885006 L310.780605,62.885006 Z M367.695452,81.777877 C367.370731,77.8517022 364.861522,75.5196135 359.547902,75.5196135 C354.470443,75.5196135 352.256434,77.4679408 352.226914,80.1247508 C352.079314,83.0177217 354.647563,84.700368 360.374465,85.9106925 L365.333843,86.9734165 C378.676934,89.8368673 384.167674,96.3017716 384.226714,105.512046 C384.167674,117.438171 374.98692,124.050676 359.665982,124.050676 C343.902243,124.050676 333.629244,117.26105 333.570204,102.087713 L349.156823,102.087713 C349.422504,107.637494 353.142038,110.589505 359.429821,110.589505 C364.684401,110.589505 367.400251,108.493577 367.459291,105.512046 C367.400251,102.766676 365.097682,101.08403 358.367097,99.608024 L352.344995,98.3091391 C341.629194,96.0065705 335.07573,90.7519907 335.10525,81.3055552 C335.016689,69.7927119 345.171608,62.0584429 359.547902,62.0584429 C374.189877,62.0584429 383.341111,69.9107924 383.400151,81.777877 L367.695452,81.777877 Z M390.485031,123.342193 L390.485031,62.885006 L416.580809,62.885006 C430.012459,62.885006 439.016093,71.3867979 439.016093,84.2575663 C439.016093,97.2759352 429.776298,105.393966 415.990407,105.393966 L406.898212,105.393966 L406.898212,123.342193 L390.485031,123.342193 Z M406.898212,92.6412778 L412.684154,92.6412778 C418.440576,92.6412778 421.894429,89.4235857 421.894429,84.2575663 C421.894429,79.0620268 418.440576,75.9919352 412.684154,75.9919352 L406.898212,75.9919352 L406.898212,92.6412778 Z M445.038248,123.342193 L445.038248,62.885006 L471.134026,62.885006 C484.565676,62.885006 493.56931,70.5602348 493.56931,83.4310032 C493.56931,91.8147147 489.731696,97.6892168 483.296312,100.788828 L495.576678,123.342193 L477.746531,123.342193 L467.119291,103.386598 L461.451429,103.386598 L461.451429,123.342193 L445.038248,123.342193 Z M461.451429,90.6339103 L467.237371,90.6339103 C472.993793,90.6339103 476.447646,88.5970226 476.447646,83.4310032 C476.447646,78.2354637 472.993793,75.9919352 467.237371,75.9919352 L461.451429,75.9919352 L461.451429,90.6339103 Z M516.949291,62.885006 L516.949291,123.342193 L500.536109,123.342193 L500.536109,62.885006 L516.949291,62.885006 Z M577.05226,62.885006 L577.05226,123.342193 L563.354929,123.342193 L541.510046,91.5785538 L541.155805,91.5785538 L541.155805,123.342193 L524.742623,123.342193 L524.742623,62.885006 L538.676116,62.885006 L560.166757,94.5305649 L560.639078,94.5305649 L560.639078,62.885006 L577.05226,62.885006 Z M583.1925,76.1100157 L583.1925,62.885006 L635.738298,62.885006 L635.738298,76.1100157 L617.55391,76.1100157 L617.55391,123.342193 L601.376889,123.342193 L601.376889,76.1100157 L583.1925,76.1100157 Z M674.468738,81.777877 C674.144017,77.8517022 671.634807,75.5196135 666.321187,75.5196135 C661.243728,75.5196135 659.02972,77.4679408 659.0002,80.1247508 C658.852599,83.0177217 661.420849,84.700368 667.14775,85.9106925 L672.107129,86.9734165 C685.450219,89.8368673 690.94096,96.3017716 691,105.512046 C690.94096,117.438171 681.760205,124.050676 666.439268,124.050676 C650.675528,124.050676 640.40253,117.26105 640.34349,102.087713 L655.930108,102.087713 C656.195789,107.637494 659.915323,110.589505 666.203107,110.589505 C671.457687,110.589505 674.173537,108.493577 674.232577,105.512046 C674.173537,102.766676 671.870968,101.08403 665.140383,99.608024 L659.11828,98.3091391 C648.40248,96.0065705 641.849015,90.7519907 641.878535,81.3055552 C641.789975,69.7927119 651.944893,62.0584429 666.321187,62.0584429 C680.963162,62.0584429 690.114397,69.9107924 690.173437,81.777877 L674.468738,81.777877 Z" id="DESIGN-SPRINTS" stroke="#FFFFFF" stroke-width="4"></path>
        <path d="M645,16.5 L693,16.5" id="Line-2-Copy" stroke="#FFFFFF" stroke-width="2" stroke-linecap="square" fill-rule="nonzero"></path>
        <path d="M0,16.5 L49,16.5" id="Line-2" stroke="#FFFFFF" stroke-width="2" stroke-linecap="square" fill-rule="nonzero"></path>
        <text id="A-placeholder-graphi" font-family="Georgia-Italic, Georgia" font-size="36" font-style="italic" font-weight="normal" letter-spacing="-1.206857" fill="#FFFFFF">
            <tspan x="79.6649194" y="28">A placeholder graphic for sketching</tspan>
        </text>
    </g>
</svg>